G04 #@! TF.GenerationSoftware,KiCad,Pcbnew,(5.1.5-rc2)*
G04 #@! TF.CreationDate,2020-01-23T16:56:20-08:00*
G04 #@! TF.ProjectId,fpgb,66706762-2e6b-4696-9361-645f70636258,0.1*
G04 #@! TF.SameCoordinates,Original*
G04 #@! TF.FileFunction,Copper,L3,Inr*
G04 #@! TF.FilePolarity,Positive*
%FSLAX46Y46*%
G04 Gerber Fmt 4.6, Leading zero omitted, Abs format (unit mm)*
G04 Created by KiCad (PCBNEW (5.1.5-rc2)) date 2020-01-23 16:56:20*
%MOMM*%
%LPD*%
G04 APERTURE LIST*
%ADD10O,1.700000X1.700000*%
%ADD11R,1.700000X1.700000*%
%ADD12O,1.350000X1.700000*%
%ADD13O,1.100000X1.500000*%
%ADD14C,0.800000*%
%ADD15C,3.000000*%
%ADD16C,0.254000*%
G04 APERTURE END LIST*
D10*
X100330000Y-45339000D03*
X100330000Y-47879000D03*
X100330000Y-50419000D03*
D11*
X100330000Y-52959000D03*
D12*
X137198000Y-44478000D03*
X131738000Y-44478000D03*
D13*
X136888000Y-47478000D03*
X132048000Y-47478000D03*
D14*
X116713000Y-47625000D03*
X120650000Y-88392000D03*
X119912232Y-108973558D03*
X126238000Y-84836000D03*
X115062000Y-90170000D03*
X128712000Y-44620000D03*
X126111002Y-49022000D03*
X124714000Y-66802000D03*
X114554000Y-69469000D03*
X109759790Y-85471000D03*
X133858000Y-108712000D03*
X133604000Y-89408000D03*
X133858000Y-69342000D03*
X111506000Y-108712000D03*
X111429279Y-88829389D03*
X128524000Y-56324500D03*
X111886994Y-54356000D03*
X109759790Y-82880200D03*
X109759790Y-77800200D03*
X116332000Y-104394000D03*
X137922005Y-84581993D03*
X138243429Y-104399790D03*
X136398000Y-104394000D03*
X116109193Y-84622916D03*
X137858500Y-64706500D03*
X137922000Y-63500000D03*
X135890000Y-103124000D03*
X138080622Y-83343216D03*
X136350903Y-83058000D03*
X138296631Y-103124000D03*
X115061994Y-103124000D03*
X115316000Y-83312000D03*
X136144000Y-81280000D03*
X116332000Y-82042000D03*
X137922000Y-62230000D03*
X116332000Y-101854000D03*
X135128000Y-101854000D03*
X138029765Y-82064690D03*
X138296631Y-101854000D03*
X136334500Y-62166500D03*
X137922000Y-60960000D03*
X115062000Y-100584000D03*
X134874000Y-100584000D03*
X134620000Y-80518000D03*
X138093421Y-80772000D03*
X138296631Y-100584000D03*
X115316000Y-80772000D03*
X134397710Y-60959996D03*
X116332000Y-79502000D03*
X116332000Y-99314000D03*
X138093421Y-79502000D03*
X132334000Y-99314000D03*
X132111790Y-79502000D03*
X137922000Y-59690000D03*
X138296631Y-99314000D03*
X132397500Y-59690000D03*
X137922000Y-58420000D03*
X115062000Y-98044000D03*
X138093421Y-78232000D03*
X138296631Y-98044000D03*
X131349790Y-78613000D03*
X131226104Y-98352760D03*
X115316000Y-78232000D03*
X131572000Y-58864502D03*
X130810000Y-76962000D03*
X137922000Y-57150000D03*
X116332000Y-96774000D03*
X138093421Y-76962000D03*
X138296631Y-96774000D03*
X130810000Y-57163737D03*
X130820339Y-97435270D03*
X116205000Y-76961998D03*
X137922000Y-55880000D03*
X115570000Y-95675421D03*
X138093421Y-75692000D03*
X138296631Y-95504000D03*
X130302000Y-75946000D03*
X130048000Y-55880000D03*
X130572578Y-96463134D03*
X115570000Y-75692000D03*
X135128000Y-93218000D03*
X112776000Y-92201988D03*
X112680790Y-73152000D03*
X107941663Y-69286837D03*
X135382000Y-73342500D03*
X135128000Y-52960002D03*
X133858000Y-91948000D03*
X112593058Y-70953732D03*
X107696000Y-66738500D03*
X133911311Y-72654831D03*
X112268004Y-94424500D03*
X133858000Y-53022500D03*
X133667500Y-65278000D03*
X107696000Y-76199998D03*
X132657843Y-93218000D03*
X132873790Y-74427501D03*
X112395000Y-95694502D03*
X110934500Y-56451500D03*
X132524500Y-52959000D03*
X107442000Y-74930000D03*
X130491340Y-95463217D03*
X129571790Y-74709795D03*
X108140500Y-95059500D03*
X104394000Y-63563500D03*
X112109925Y-58694701D03*
X131318000Y-52960000D03*
X110134400Y-70459600D03*
X123698000Y-45466000D03*
X127000000Y-44577000D03*
D15*
X118872000Y-72644000D03*
X118872000Y-91694000D03*
D14*
X129565500Y-50800000D03*
X106045000Y-51625500D03*
X119634000Y-60960000D03*
X116497000Y-57810500D03*
X110134400Y-67919600D03*
X126238000Y-91948000D03*
X126238000Y-52960000D03*
X102616000Y-90678000D03*
X126238000Y-73406000D03*
X103886000Y-72675790D03*
X113654123Y-52567121D03*
X102616000Y-72772000D03*
X110185210Y-75311000D03*
X99568000Y-78232000D03*
X121412000Y-98044000D03*
X99568000Y-98044000D03*
X121432411Y-78233356D03*
X105410000Y-78232000D03*
X105410000Y-98025196D03*
X122682000Y-58420000D03*
X122682000Y-79502000D03*
X99568000Y-79502000D03*
X99568000Y-99314000D03*
X105291337Y-99313994D03*
X104140000Y-79502000D03*
X122510579Y-99314000D03*
X122618500Y-59626500D03*
X99568000Y-80772000D03*
X121412000Y-100584000D03*
X99568000Y-100584000D03*
X121432411Y-80773356D03*
X105156010Y-100330000D03*
X103632000Y-80772000D03*
X122491500Y-60960000D03*
X122682000Y-82042000D03*
X99568000Y-82042000D03*
X99568000Y-101854000D03*
X122510579Y-101854000D03*
X101354337Y-101845663D03*
X101917488Y-81978500D03*
X122491500Y-62230000D03*
X121412000Y-83312000D03*
X99568000Y-83312000D03*
X99568000Y-103124000D03*
X121412000Y-103124000D03*
X101600000Y-103124000D03*
X118990662Y-66158664D03*
X101092000Y-83311998D03*
X122428000Y-63500000D03*
X122682000Y-104394000D03*
X99568000Y-104394000D03*
X122682000Y-84582000D03*
X99568000Y-84582000D03*
X118146781Y-67590700D03*
X122421632Y-64770000D03*
X121412000Y-85852000D03*
X99568000Y-85852000D03*
X99822000Y-105664000D03*
X121919996Y-105655664D03*
X117281737Y-68098768D03*
X122421632Y-66040000D03*
X99568000Y-87122000D03*
X99568000Y-106934000D03*
X121920000Y-106762589D03*
X122002579Y-87122000D03*
X116490710Y-68715785D03*
X122421632Y-67310000D03*
X124968000Y-108712000D03*
X102616000Y-108712000D03*
X124968000Y-68960000D03*
X102566833Y-88065935D03*
X124780873Y-88529920D03*
X112268006Y-59690000D03*
X126238000Y-108712000D03*
X103886000Y-108712000D03*
X126229663Y-88129663D03*
X103652275Y-89093866D03*
X125126626Y-106159093D03*
X126015790Y-68960000D03*
X106089421Y-66738500D03*
X128778000Y-108712000D03*
X106540199Y-88772000D03*
X106426000Y-108712000D03*
X129927368Y-70517555D03*
X115760500Y-66675000D03*
X130048000Y-90360500D03*
X110942837Y-57539337D03*
X109759790Y-80340200D03*
X110103068Y-104973199D03*
X110075263Y-102979937D03*
X110159800Y-100304600D03*
X110187468Y-90900210D03*
X106680000Y-90655591D03*
X102616000Y-92964000D03*
X110222908Y-95472210D03*
X110159800Y-97764600D03*
X128058957Y-82327790D03*
X127965200Y-79787790D03*
X127965200Y-77851000D03*
X127965200Y-70866000D03*
X127508000Y-72898000D03*
X110134400Y-65455800D03*
X127965200Y-75215790D03*
X129741640Y-88772000D03*
X127793790Y-102920800D03*
X127793790Y-100406200D03*
X127793790Y-97815400D03*
X129802334Y-94479660D03*
X127982608Y-90474065D03*
X124714000Y-92710000D03*
X127932879Y-95572322D03*
X127793790Y-105410000D03*
X135128000Y-68326000D03*
X136493200Y-66294000D03*
X136398000Y-69596000D03*
X135636000Y-57975500D03*
X110617000Y-49784000D03*
X136398000Y-108712000D03*
X110649514Y-58576334D03*
X137922000Y-88900000D03*
X117856000Y-88392000D03*
X110045500Y-59435996D03*
X114046000Y-108712000D03*
X108458000Y-64262000D03*
X114046000Y-88392000D03*
X109283498Y-63563500D03*
X133737800Y-48926800D03*
X129087170Y-48966830D03*
X118364000Y-47625000D03*
X131038500Y-50800000D03*
X103409790Y-52432456D03*
X117564000Y-56235500D03*
X121185388Y-43300200D03*
X113601500Y-61214000D03*
X123063000Y-43300200D03*
X115252500Y-60198000D03*
X108585000Y-49339500D03*
X112077438Y-57691490D03*
X104838500Y-49276000D03*
X103505000Y-49276000D03*
X112903000Y-45720000D03*
X112903000Y-44450000D03*
X117983000Y-62801500D03*
X127508000Y-54546500D03*
X121602500Y-53530500D03*
X128625049Y-55236353D03*
X117951290Y-61150500D03*
X119584290Y-55468537D03*
X127508000Y-108712000D03*
X105156000Y-108712000D03*
X125984000Y-86614000D03*
X125476000Y-70866000D03*
X125984000Y-106680000D03*
X123634499Y-54546500D03*
X125539500Y-90741500D03*
X105665631Y-90582790D03*
X114554000Y-53149500D03*
X132588000Y-50800000D03*
X129825735Y-68326000D03*
X128000542Y-65257566D03*
X119634000Y-59944000D03*
X119671976Y-58909712D03*
X119602279Y-57906490D03*
X114744500Y-50736500D03*
X120332500Y-53276502D03*
D16*
X125545317Y-49022000D02*
X126111002Y-49022000D01*
X118110000Y-49022000D02*
X125545317Y-49022000D01*
X116713000Y-47625000D02*
X118110000Y-49022000D01*
X117095118Y-69773789D02*
X116701408Y-70167500D01*
X121742211Y-69773789D02*
X117095118Y-69773789D01*
X116701408Y-70167500D02*
X115252500Y-70167500D01*
X115252500Y-70167500D02*
X114953999Y-69868999D01*
X124714000Y-66802000D02*
X121742211Y-69773789D01*
X114953999Y-69868999D02*
X114554000Y-69469000D01*
X133858000Y-108712000D02*
X132842000Y-109728000D01*
X132842000Y-109728000D02*
X112522000Y-109728000D01*
X111905999Y-109111999D02*
X111506000Y-108712000D01*
X112522000Y-109728000D02*
X111905999Y-109111999D01*
X112286993Y-54755999D02*
X111886994Y-54356000D01*
X114553994Y-57023000D02*
X112286993Y-54755999D01*
X118802722Y-57023000D02*
X114553994Y-57023000D01*
X119501222Y-56324500D02*
X118802722Y-57023000D01*
X128524000Y-56324500D02*
X119501222Y-56324500D01*
X137921998Y-84582000D02*
X137922005Y-84581993D01*
X123952000Y-104394000D02*
X136652000Y-104394000D01*
X122141651Y-103886000D02*
X122363852Y-103663799D01*
X136403790Y-104399790D02*
X136398000Y-104394000D01*
X138243429Y-104399790D02*
X136403790Y-104399790D01*
X136652000Y-104394000D02*
X136398000Y-104394000D01*
X116332000Y-104394000D02*
X120101565Y-104394000D01*
X120609565Y-103886000D02*
X122141651Y-103886000D01*
X122363852Y-103663799D02*
X123221799Y-103663799D01*
X120101565Y-104394000D02*
X120609565Y-103886000D01*
X123221799Y-103663799D02*
X123952000Y-104394000D01*
X137191811Y-83851799D02*
X122331503Y-83851799D01*
X120904000Y-84074000D02*
X120355084Y-84622916D01*
X122109302Y-84074000D02*
X120904000Y-84074000D01*
X116674878Y-84622916D02*
X116109193Y-84622916D01*
X122331503Y-83851799D02*
X122109302Y-84074000D01*
X120355084Y-84622916D02*
X116674878Y-84622916D01*
X137922005Y-84581993D02*
X137191811Y-83851799D01*
X135890000Y-103124000D02*
X138296631Y-103124000D01*
X128524000Y-102108000D02*
X123906951Y-102108000D01*
X120078378Y-103124000D02*
X115627679Y-103124000D01*
X115627679Y-103124000D02*
X115061994Y-103124000D01*
X122142201Y-102616000D02*
X121920000Y-102393799D01*
X135890000Y-103124000D02*
X129540000Y-103124000D01*
X129540000Y-103124000D02*
X128524000Y-102108000D01*
X120808579Y-102393799D02*
X120078378Y-103124000D01*
X123906951Y-102108000D02*
X123398951Y-102616000D01*
X123398951Y-102616000D02*
X122142201Y-102616000D01*
X121920000Y-102393799D02*
X120808579Y-102393799D01*
X127673176Y-83058000D02*
X127336588Y-83394588D01*
X138080622Y-83343216D02*
X137445216Y-83343216D01*
X120331302Y-83312000D02*
X115881685Y-83312000D01*
X122953890Y-83394588D02*
X122109302Y-82550000D01*
X127336588Y-83394588D02*
X122953890Y-83394588D01*
X137160000Y-83058000D02*
X127673176Y-83058000D01*
X121088830Y-82600844D02*
X121042458Y-82600844D01*
X121139674Y-82550000D02*
X121088830Y-82600844D01*
X137445216Y-83343216D02*
X137160000Y-83058000D01*
X121042458Y-82600844D02*
X120331302Y-83312000D01*
X122109302Y-82550000D02*
X121139674Y-82550000D01*
X115881685Y-83312000D02*
X115316000Y-83312000D01*
X128778000Y-101600000D02*
X129032000Y-101854000D01*
X123952000Y-101600000D02*
X128778000Y-101600000D01*
X123444000Y-101092000D02*
X123952000Y-101600000D01*
X121869210Y-101396790D02*
X122174000Y-101092000D01*
X120400195Y-101396790D02*
X121869210Y-101396790D01*
X116332000Y-101854000D02*
X119942985Y-101854000D01*
X122174000Y-101092000D02*
X123444000Y-101092000D01*
X119942985Y-101854000D02*
X120400195Y-101396790D01*
X129032000Y-101854000D02*
X135128000Y-101854000D01*
X135128000Y-101854000D02*
X138296631Y-101854000D01*
X137629766Y-81664691D02*
X138029765Y-82064690D01*
X137245075Y-81280000D02*
X137629766Y-81664691D01*
X122139745Y-81503557D02*
X122363302Y-81280000D01*
X122363302Y-81280000D02*
X137245075Y-81280000D01*
X120710066Y-81686422D02*
X120892931Y-81503557D01*
X116332000Y-82042000D02*
X116897685Y-82042000D01*
X117253263Y-81686422D02*
X120710066Y-81686422D01*
X120892931Y-81503557D02*
X122139745Y-81503557D01*
X116897685Y-82042000D02*
X117253263Y-81686422D01*
X115062000Y-100584000D02*
X119919799Y-100584000D01*
X119919799Y-100584000D02*
X120650000Y-99853799D01*
X121762497Y-99853799D02*
X122543489Y-100634791D01*
X120650000Y-99853799D02*
X121762497Y-99853799D01*
X134474001Y-100983999D02*
X134874000Y-100584000D01*
X122543489Y-100634791D02*
X123633383Y-100634791D01*
X123633383Y-100634791D02*
X124134993Y-101136401D01*
X124134993Y-101136401D02*
X134321599Y-101136401D01*
X134321599Y-101136401D02*
X134474001Y-100983999D01*
X134874000Y-100584000D02*
X138296631Y-100584000D01*
X137527736Y-80772000D02*
X137273736Y-80518000D01*
X120331302Y-80772000D02*
X115881685Y-80772000D01*
X138093421Y-80772000D02*
X137527736Y-80772000D01*
X121061503Y-80041799D02*
X120331302Y-80772000D01*
X122617302Y-80518000D02*
X122141101Y-80041799D01*
X137273736Y-80518000D02*
X122617302Y-80518000D01*
X115881685Y-80772000D02*
X115316000Y-80772000D01*
X122141101Y-80041799D02*
X121061503Y-80041799D01*
X116789210Y-98856790D02*
X121887089Y-98856790D01*
X116332000Y-99314000D02*
X116789210Y-98856790D01*
X123221799Y-98583799D02*
X123952000Y-99314000D01*
X123952000Y-99314000D02*
X131768315Y-99314000D01*
X121887089Y-98856790D02*
X122160081Y-98583798D01*
X131768315Y-99314000D02*
X132334000Y-99314000D01*
X122160081Y-98583798D02*
X123221799Y-98583799D01*
X132334000Y-99314000D02*
X138296631Y-99314000D01*
X128315697Y-79057589D02*
X128760108Y-79502000D01*
X116332000Y-79502000D02*
X116789210Y-79044790D01*
X116789210Y-79044790D02*
X122058512Y-79044790D01*
X137527736Y-79502000D02*
X138093421Y-79502000D01*
X122058512Y-79044790D02*
X122331503Y-78771799D01*
X122331503Y-78771799D02*
X126327503Y-78771799D01*
X128760108Y-79502000D02*
X137527736Y-79502000D01*
X126327503Y-78771799D02*
X126613293Y-79057589D01*
X126613293Y-79057589D02*
X128315697Y-79057589D01*
X120788512Y-97586790D02*
X121061503Y-97313799D01*
X138296631Y-98044000D02*
X131534864Y-98044000D01*
X124406759Y-98752759D02*
X130826105Y-98752759D01*
X122967799Y-97313799D02*
X124406759Y-98752759D01*
X121061503Y-97313799D02*
X122967799Y-97313799D01*
X130826105Y-98752759D02*
X131226104Y-98352760D01*
X115519210Y-97586790D02*
X120788512Y-97586790D01*
X115062000Y-98044000D02*
X115519210Y-97586790D01*
X131534864Y-98044000D02*
X131226104Y-98352760D01*
X115715999Y-77832001D02*
X115316000Y-78232000D01*
X117252701Y-77501799D02*
X117030500Y-77724000D01*
X117030500Y-77724000D02*
X115824000Y-77724000D01*
X138093421Y-78232000D02*
X137527736Y-78232000D01*
X126326742Y-77501799D02*
X117252701Y-77501799D01*
X115824000Y-77724000D02*
X115715999Y-77832001D01*
X127425321Y-78600378D02*
X126326742Y-77501799D01*
X137159358Y-78600378D02*
X127425321Y-78600378D01*
X137527736Y-78232000D02*
X137159358Y-78600378D01*
X138296631Y-96774000D02*
X137635361Y-97435270D01*
X131386024Y-97435270D02*
X130820339Y-97435270D01*
X137635361Y-97435270D02*
X131386024Y-97435270D01*
X129842031Y-96774000D02*
X130503301Y-97435270D01*
X130503301Y-97435270D02*
X130820339Y-97435270D01*
X116332000Y-96774000D02*
X129842031Y-96774000D01*
X116205002Y-76962000D02*
X116205000Y-76961998D01*
X138093421Y-76962000D02*
X116205002Y-76962000D01*
X138296631Y-95504000D02*
X137337497Y-96463134D01*
X131138263Y-96463134D02*
X130572578Y-96463134D01*
X137337497Y-96463134D02*
X131138263Y-96463134D01*
X130412382Y-96302938D02*
X130572578Y-96463134D01*
X123734938Y-96302938D02*
X130412382Y-96302938D01*
X123107421Y-95675421D02*
X123734938Y-96302938D01*
X115570000Y-95675421D02*
X123107421Y-95675421D01*
X116135685Y-75692000D02*
X115570000Y-75692000D01*
X127234999Y-75692000D02*
X116135685Y-75692000D01*
X137273736Y-75946000D02*
X127488999Y-75946000D01*
X137527736Y-75692000D02*
X137273736Y-75946000D01*
X127488999Y-75946000D02*
X127234999Y-75692000D01*
X138093421Y-75692000D02*
X137527736Y-75692000D01*
X128711423Y-91217799D02*
X126405021Y-93524201D01*
X135128000Y-92137302D02*
X134208497Y-91217799D01*
X113175999Y-92601987D02*
X112776000Y-92201988D01*
X114098213Y-93524201D02*
X113175999Y-92601987D01*
X126405021Y-93524201D02*
X114098213Y-93524201D01*
X134208497Y-91217799D02*
X128711423Y-91217799D01*
X135128000Y-93218000D02*
X135128000Y-92137302D01*
X112680790Y-73152000D02*
X111241141Y-73152000D01*
X107941663Y-69852522D02*
X107941663Y-69286837D01*
X111241141Y-73152000D02*
X107941663Y-69852522D01*
X110807500Y-68707000D02*
X109664500Y-68707000D01*
X112593058Y-70492558D02*
X110807500Y-68707000D01*
X109664500Y-68707000D02*
X107696000Y-66738500D01*
X112593058Y-70953732D02*
X112593058Y-70492558D01*
X112668003Y-94024501D02*
X112268004Y-94424500D01*
X128627816Y-91948000D02*
X126551315Y-94024501D01*
X133858000Y-91948000D02*
X128627816Y-91948000D01*
X126551315Y-94024501D02*
X112668003Y-94024501D01*
X128004408Y-93218000D02*
X126734408Y-94488000D01*
X126734408Y-94488000D02*
X113601502Y-94488000D01*
X112794999Y-95294503D02*
X112395000Y-95694502D01*
X113601502Y-94488000D02*
X112794999Y-95294503D01*
X132657843Y-93218000D02*
X128004408Y-93218000D01*
X107886411Y-74485589D02*
X128781899Y-74485589D01*
X128781899Y-74485589D02*
X129006105Y-74709795D01*
X107442000Y-74930000D02*
X107886411Y-74485589D01*
X129006105Y-74709795D02*
X129571790Y-74709795D01*
X112745497Y-96488201D02*
X109569201Y-96488201D01*
X114288478Y-94945220D02*
X112745497Y-96488201D01*
X127114280Y-94945220D02*
X114288478Y-94945220D01*
X127857250Y-94202250D02*
X127114280Y-94945220D01*
X109569201Y-96488201D02*
X108140500Y-95059500D01*
X128905000Y-95250000D02*
X127857250Y-94202250D01*
X130278123Y-95250000D02*
X128905000Y-95250000D01*
X130491340Y-95463217D02*
X130278123Y-95250000D01*
X104394000Y-63563500D02*
X107241126Y-63563500D01*
X107241126Y-63563500D02*
X111709926Y-59094700D01*
X111709926Y-59094700D02*
X112109925Y-58694701D01*
X103692088Y-91754088D02*
X103015999Y-91077999D01*
X112143200Y-91754088D02*
X103692088Y-91754088D01*
X112425502Y-91471786D02*
X112143200Y-91754088D01*
X115919214Y-91471786D02*
X112425502Y-91471786D01*
X126238000Y-91948000D02*
X122301000Y-91948000D01*
X117729000Y-89662000D02*
X115919214Y-91471786D01*
X103015999Y-91077999D02*
X102616000Y-90678000D01*
X120015000Y-89662000D02*
X117729000Y-89662000D01*
X122301000Y-91948000D02*
X120015000Y-89662000D01*
X113865447Y-52355797D02*
X113654123Y-52567121D01*
X125633797Y-52355797D02*
X113865447Y-52355797D01*
X126238000Y-52960000D02*
X125633797Y-52355797D01*
X99568000Y-78232000D02*
X105410000Y-78232000D01*
X99568000Y-98044000D02*
X105391196Y-98044000D01*
X105391196Y-98044000D02*
X105410000Y-98025196D01*
X116299651Y-98044000D02*
X115287081Y-99056570D01*
X105809999Y-98425195D02*
X105410000Y-98025196D01*
X115287081Y-99056570D02*
X106441374Y-99056570D01*
X106441374Y-99056570D02*
X105809999Y-98425195D01*
X121412000Y-98044000D02*
X116299651Y-98044000D01*
X105809999Y-78631999D02*
X105410000Y-78232000D01*
X106172000Y-78994000D02*
X105809999Y-78631999D01*
X115760500Y-78994000D02*
X106172000Y-78994000D01*
X116522500Y-78232000D02*
X115760500Y-78994000D01*
X116649500Y-78232000D02*
X116522500Y-78232000D01*
X116650856Y-78233356D02*
X116649500Y-78232000D01*
X121432411Y-78233356D02*
X116650856Y-78233356D01*
X99568000Y-99314000D02*
X105291331Y-99314000D01*
X105291331Y-99314000D02*
X105291337Y-99313994D01*
X99568000Y-79502000D02*
X104140000Y-79502000D01*
X115451083Y-99513781D02*
X115981503Y-100044201D01*
X121944894Y-99314000D02*
X122510579Y-99314000D01*
X105291337Y-99313994D02*
X105857022Y-99313994D01*
X105857022Y-99313994D02*
X106056809Y-99513781D01*
X120543207Y-99314000D02*
X121944894Y-99314000D01*
X119813006Y-100044201D02*
X120543207Y-99314000D01*
X106056809Y-99513781D02*
X115451083Y-99513781D01*
X115981503Y-100044201D02*
X119813006Y-100044201D01*
X120224509Y-80232201D02*
X115856901Y-80232201D01*
X120954710Y-79502000D02*
X120224509Y-80232201D01*
X115856901Y-80232201D02*
X115126700Y-79502000D01*
X115126700Y-79502000D02*
X104705685Y-79502000D01*
X104705685Y-79502000D02*
X104140000Y-79502000D01*
X122682000Y-79502000D02*
X120954710Y-79502000D01*
X104902010Y-100584000D02*
X105156010Y-100330000D01*
X99568000Y-100584000D02*
X104902010Y-100584000D01*
X115791101Y-101314201D02*
X106140211Y-101314201D01*
X121412000Y-100584000D02*
X120566392Y-100584000D01*
X120566392Y-100584000D02*
X120109181Y-101041211D01*
X116064091Y-101041211D02*
X115791101Y-101314201D01*
X120109181Y-101041211D02*
X116064091Y-101041211D01*
X106140211Y-101314201D02*
X105556009Y-100729999D01*
X105556009Y-100729999D02*
X105156010Y-100330000D01*
X99568000Y-80772000D02*
X103632000Y-80772000D01*
X115696450Y-81502201D02*
X104362201Y-81502201D01*
X121432411Y-80773356D02*
X120976539Y-80773356D01*
X104362201Y-81502201D02*
X104031999Y-81171999D01*
X120976539Y-80773356D02*
X120520684Y-81229211D01*
X104031999Y-81171999D02*
X103632000Y-80772000D01*
X120520684Y-81229211D02*
X115969440Y-81229211D01*
X115969440Y-81229211D02*
X115696450Y-81502201D01*
X99568000Y-101854000D02*
X101346000Y-101854000D01*
X101346000Y-101854000D02*
X101354337Y-101845663D01*
X119971584Y-102584201D02*
X115856901Y-102584201D01*
X122510579Y-101854000D02*
X120701785Y-101854000D01*
X120701785Y-101854000D02*
X119971584Y-102584201D01*
X115118363Y-101845663D02*
X101920022Y-101845663D01*
X115856901Y-102584201D02*
X115118363Y-101845663D01*
X101920022Y-101845663D02*
X101354337Y-101845663D01*
X99568000Y-82042000D02*
X101346000Y-82042000D01*
X115856901Y-82772201D02*
X115063200Y-81978500D01*
X121001081Y-82042000D02*
X120899448Y-82143633D01*
X101346000Y-82042000D02*
X101911685Y-82042000D01*
X101917488Y-82036197D02*
X101917488Y-81978500D01*
X122682000Y-82042000D02*
X121001081Y-82042000D01*
X120899448Y-82143633D02*
X119416959Y-82143633D01*
X101911685Y-82042000D02*
X101917488Y-82036197D01*
X115063200Y-81978500D02*
X102483173Y-81978500D01*
X119416959Y-82143633D02*
X118788391Y-82772201D01*
X102483173Y-81978500D02*
X101917488Y-81978500D01*
X118788391Y-82772201D02*
X115856901Y-82772201D01*
X115918651Y-103632000D02*
X115664651Y-103886000D01*
X99568000Y-103124000D02*
X101600000Y-103124000D01*
X120216971Y-103632000D02*
X115918651Y-103632000D01*
X120724971Y-103124000D02*
X120216971Y-103632000D01*
X115664651Y-103886000D02*
X110743160Y-103886000D01*
X102261787Y-103785787D02*
X101999999Y-103523999D01*
X121412000Y-103124000D02*
X120724971Y-103124000D01*
X110642947Y-103785787D02*
X102261787Y-103785787D01*
X110743160Y-103886000D02*
X110642947Y-103785787D01*
X101999999Y-103523999D02*
X101600000Y-103124000D01*
X121412000Y-83312000D02*
X120977894Y-83312000D01*
X115888700Y-83820000D02*
X115666498Y-84042202D01*
X99568000Y-83312000D02*
X101091998Y-83312000D01*
X101091998Y-83312000D02*
X101092000Y-83311998D01*
X120469894Y-83820000D02*
X115888700Y-83820000D01*
X101491999Y-83711997D02*
X101092000Y-83311998D01*
X101822204Y-84042202D02*
X101491999Y-83711997D01*
X120977894Y-83312000D02*
X120469894Y-83820000D01*
X115666498Y-84042202D02*
X101822204Y-84042202D01*
X121649326Y-63500000D02*
X122428000Y-63500000D01*
X118990662Y-66158664D02*
X121649326Y-63500000D01*
X99568000Y-104394000D02*
X109601569Y-104394000D01*
X110453565Y-104242998D02*
X111334768Y-105124201D01*
X109752571Y-104242998D02*
X110453565Y-104242998D01*
X109601569Y-104394000D02*
X109752571Y-104242998D01*
X111334768Y-105124201D02*
X121386114Y-105124201D01*
X122116315Y-104394000D02*
X122682000Y-104394000D01*
X121386114Y-105124201D02*
X122116315Y-104394000D01*
X120650000Y-85344000D02*
X121412000Y-84582000D01*
X116459691Y-85353118D02*
X116468809Y-85344000D01*
X116468809Y-85344000D02*
X120650000Y-85344000D01*
X115758695Y-85353118D02*
X116459691Y-85353118D01*
X99568000Y-84582000D02*
X114987577Y-84582000D01*
X121412000Y-84582000D02*
X122116315Y-84582000D01*
X114987577Y-84582000D02*
X115758695Y-85353118D01*
X122116315Y-84582000D02*
X122682000Y-84582000D01*
X122021633Y-65169999D02*
X122421632Y-64770000D01*
X119600932Y-67590700D02*
X122021633Y-65169999D01*
X118146781Y-67590700D02*
X119600932Y-67590700D01*
X121012001Y-86251999D02*
X121412000Y-85852000D01*
X99967999Y-86251999D02*
X121012001Y-86251999D01*
X99568000Y-85852000D02*
X99967999Y-86251999D01*
X121354311Y-105655664D02*
X121919996Y-105655664D01*
X109986392Y-105917945D02*
X110208593Y-105695744D01*
X100387685Y-105664000D02*
X100641630Y-105917945D01*
X121314231Y-105695744D02*
X121354311Y-105655664D01*
X99822000Y-105664000D02*
X100387685Y-105664000D01*
X100641630Y-105917945D02*
X109986392Y-105917945D01*
X110208593Y-105695744D02*
X121314231Y-105695744D01*
X117540377Y-68357408D02*
X120104224Y-68357408D01*
X122021633Y-66439999D02*
X122421632Y-66040000D01*
X120104224Y-68357408D02*
X122021633Y-66439999D01*
X117281737Y-68098768D02*
X117540377Y-68357408D01*
X99568000Y-87122000D02*
X122002579Y-87122000D01*
X121520001Y-106362590D02*
X121920000Y-106762589D01*
X99568000Y-106934000D02*
X100126844Y-106375156D01*
X100126844Y-106375156D02*
X110175774Y-106375156D01*
X110175774Y-106375156D02*
X110397975Y-106152955D01*
X121310366Y-106152955D02*
X121520001Y-106362590D01*
X110397975Y-106152955D02*
X121310366Y-106152955D01*
X120872265Y-68859367D02*
X122021633Y-67709999D01*
X116634292Y-68859367D02*
X120872265Y-68859367D01*
X116490710Y-68715785D02*
X116634292Y-68859367D01*
X122021633Y-67709999D02*
X122421632Y-67310000D01*
X121131371Y-109111999D02*
X124568001Y-109111999D01*
X120001171Y-107981799D02*
X121131371Y-109111999D01*
X102616000Y-108712000D02*
X103378000Y-109474000D01*
X124568001Y-109111999D02*
X124968000Y-108712000D01*
X111155503Y-107981799D02*
X120001171Y-107981799D01*
X109663302Y-109474000D02*
X111155503Y-107981799D01*
X103378000Y-109474000D02*
X109663302Y-109474000D01*
X117284500Y-70231000D02*
X116840000Y-70675500D01*
X124968000Y-68960000D02*
X123697000Y-70231000D01*
X112268006Y-69520914D02*
X112268006Y-60255685D01*
X123697000Y-70231000D02*
X117284500Y-70231000D01*
X116840000Y-70675500D02*
X113422592Y-70675500D01*
X113422592Y-70675500D02*
X112268006Y-69520914D01*
X112268006Y-60255685D02*
X112268006Y-59690000D01*
X103886000Y-108712000D02*
X105765633Y-106832367D01*
X110587356Y-106610167D02*
X120569318Y-106610167D01*
X105765633Y-106832367D02*
X110365156Y-106832367D01*
X120569318Y-106610167D02*
X121451939Y-107492789D01*
X124560941Y-106159093D02*
X125126626Y-106159093D01*
X110365156Y-106832367D02*
X110587356Y-106610167D01*
X121451939Y-107492789D02*
X123227245Y-107492789D01*
X123227245Y-107492789D02*
X124560941Y-106159093D01*
X126015790Y-68960000D02*
X124287580Y-70688210D01*
X117473882Y-70688210D02*
X116478159Y-71683933D01*
X110617000Y-69215000D02*
X109131606Y-69215000D01*
X112242561Y-71683933D02*
X111633000Y-71074372D01*
X116478159Y-71683933D02*
X112242561Y-71683933D01*
X111633000Y-70231000D02*
X110617000Y-69215000D01*
X111633000Y-71074372D02*
X111633000Y-70231000D01*
X106655106Y-66738500D02*
X106089421Y-66738500D01*
X124287580Y-70688210D02*
X117473882Y-70688210D01*
X109131606Y-69215000D02*
X106655106Y-66738500D01*
X106991685Y-108712000D02*
X106426000Y-108712000D01*
X124002789Y-108407211D02*
X121073176Y-108407211D01*
X124428202Y-107981799D02*
X124002789Y-108407211D01*
X128047799Y-107981799D02*
X124428202Y-107981799D01*
X110966121Y-107524588D02*
X109778709Y-108712000D01*
X109778709Y-108712000D02*
X106991685Y-108712000D01*
X121073176Y-108407211D02*
X120190553Y-107524588D01*
X128778000Y-108712000D02*
X128047799Y-107981799D01*
X120190553Y-107524588D02*
X110966121Y-107524588D01*
X123151834Y-67279498D02*
X123151834Y-67660498D01*
X116512025Y-69710289D02*
X116128789Y-69710289D01*
X129927368Y-70517555D02*
X125481612Y-66071799D01*
X115760500Y-67240685D02*
X115760500Y-66675000D01*
X115760500Y-69342000D02*
X115760500Y-67240685D01*
X124359533Y-66071799D02*
X123151834Y-67279498D01*
X123151834Y-67660498D02*
X121495754Y-69316578D01*
X116905736Y-69316578D02*
X116512025Y-69710289D01*
X125481612Y-66071799D02*
X124359533Y-66071799D01*
X116128789Y-69710289D02*
X115760500Y-69342000D01*
X121495754Y-69316578D02*
X116905736Y-69316578D01*
X111201686Y-49764999D02*
X111182685Y-49784000D01*
X135636000Y-57975500D02*
X135070315Y-57975500D01*
X111182685Y-49784000D02*
X110617000Y-49784000D01*
X135070315Y-57975500D02*
X126859814Y-49764999D01*
X126859814Y-49764999D02*
X111201686Y-49764999D01*
X119569302Y-88392000D02*
X117856000Y-88392000D01*
X120679503Y-89502201D02*
X119569302Y-88392000D01*
X130092137Y-89502201D02*
X120679503Y-89502201D01*
X131094337Y-88500001D02*
X130092137Y-89502201D01*
X137522001Y-88500001D02*
X131094337Y-88500001D01*
X137922000Y-88900000D02*
X137522001Y-88500001D01*
X129142340Y-49022000D02*
X133642600Y-49022000D01*
X133642600Y-49022000D02*
X133737800Y-48926800D01*
X129087170Y-48966830D02*
X129142340Y-49022000D01*
X128397000Y-50038000D02*
X130276500Y-50038000D01*
X126111000Y-47752000D02*
X128397000Y-50038000D01*
X130276500Y-50038000D02*
X131038500Y-50800000D01*
X118491000Y-47752000D02*
X126111000Y-47752000D01*
X118364000Y-47625000D02*
X118491000Y-47752000D01*
X100330000Y-50419000D02*
X102343456Y-52432456D01*
X102343456Y-52432456D02*
X103409790Y-52432456D01*
X127508000Y-54546500D02*
X124968000Y-54546500D01*
X122168185Y-53530500D02*
X121602500Y-53530500D01*
X124968000Y-54546500D02*
X123952000Y-53530500D01*
X123952000Y-53530500D02*
X122168185Y-53530500D01*
X128625049Y-55236353D02*
X128225050Y-55636352D01*
X128225050Y-55636352D02*
X119752105Y-55636352D01*
X119752105Y-55636352D02*
X119584290Y-55468537D01*
X105156000Y-108712000D02*
X106578422Y-107289578D01*
X110554538Y-107289578D02*
X110776739Y-107067377D01*
X106578422Y-107289578D02*
X110554538Y-107289578D01*
X123813407Y-107950000D02*
X124683408Y-107079999D01*
X110776739Y-107067377D02*
X120379935Y-107067377D01*
X125584001Y-107079999D02*
X125984000Y-106680000D01*
X124683408Y-107079999D02*
X125584001Y-107079999D01*
X121262557Y-107950000D02*
X123813407Y-107950000D01*
X120379935Y-107067377D02*
X121262557Y-107950000D01*
X117793698Y-53149500D02*
X115119685Y-53149500D01*
X123634499Y-54546500D02*
X119190698Y-54546500D01*
X119190698Y-54546500D02*
X117793698Y-53149500D01*
X115119685Y-53149500D02*
X114554000Y-53149500D01*
M02*
