G04 #@! TF.GenerationSoftware,KiCad,Pcbnew,(5.1.5-rc2)*
G04 #@! TF.CreationDate,2020-01-23T16:56:20-08:00*
G04 #@! TF.ProjectId,fpgb,66706762-2e6b-4696-9361-645f70636258,0.1*
G04 #@! TF.SameCoordinates,Original*
G04 #@! TF.FileFunction,Copper,L2,Inr*
G04 #@! TF.FilePolarity,Positive*
%FSLAX46Y46*%
G04 Gerber Fmt 4.6, Leading zero omitted, Abs format (unit mm)*
G04 Created by KiCad (PCBNEW (5.1.5-rc2)) date 2020-01-23 16:56:20*
%MOMM*%
%LPD*%
G04 APERTURE LIST*
%ADD10O,1.700000X1.700000*%
%ADD11R,1.700000X1.700000*%
%ADD12O,1.350000X1.700000*%
%ADD13O,1.100000X1.500000*%
%ADD14C,0.800000*%
%ADD15C,3.000000*%
%ADD16C,0.254000*%
G04 APERTURE END LIST*
D10*
X100330000Y-45339000D03*
X100330000Y-47879000D03*
X100330000Y-50419000D03*
D11*
X100330000Y-52959000D03*
D12*
X137198000Y-44478000D03*
X131738000Y-44478000D03*
D13*
X136888000Y-47478000D03*
X132048000Y-47478000D03*
D14*
X116713000Y-47625000D03*
X120650000Y-88392000D03*
X119912232Y-108973558D03*
X126238000Y-84836000D03*
X115062000Y-90170000D03*
X128712000Y-44620000D03*
X126111002Y-49022000D03*
X124714000Y-66802000D03*
X114554000Y-69469000D03*
X109759790Y-85471000D03*
X133858000Y-108712000D03*
X133604000Y-89408000D03*
X133858000Y-69342000D03*
X111506000Y-108712000D03*
X111429279Y-88829389D03*
X128524000Y-56324500D03*
X111886994Y-54356000D03*
X109759790Y-82880200D03*
X109759790Y-77800200D03*
X116332000Y-104394000D03*
X137922005Y-84581993D03*
X138243429Y-104399790D03*
X136398000Y-104394000D03*
X116109193Y-84622916D03*
X137858500Y-64706500D03*
X137922000Y-63500000D03*
X135890000Y-103124000D03*
X138080622Y-83343216D03*
X136350903Y-83058000D03*
X138296631Y-103124000D03*
X115061994Y-103124000D03*
X115316000Y-83312000D03*
X136144000Y-81280000D03*
X116332000Y-82042000D03*
X137922000Y-62230000D03*
X116332000Y-101854000D03*
X135128000Y-101854000D03*
X138029765Y-82064690D03*
X138296631Y-101854000D03*
X136334500Y-62166500D03*
X137922000Y-60960000D03*
X115062000Y-100584000D03*
X134874000Y-100584000D03*
X134620000Y-80518000D03*
X138093421Y-80772000D03*
X138296631Y-100584000D03*
X115316000Y-80772000D03*
X134397710Y-60959996D03*
X116332000Y-79502000D03*
X116332000Y-99314000D03*
X138093421Y-79502000D03*
X132334000Y-99314000D03*
X132111790Y-79502000D03*
X137922000Y-59690000D03*
X138296631Y-99314000D03*
X132397500Y-59690000D03*
X137922000Y-58420000D03*
X115062000Y-98044000D03*
X138093421Y-78232000D03*
X138296631Y-98044000D03*
X131349790Y-78613000D03*
X131226104Y-98352760D03*
X115316000Y-78232000D03*
X131572000Y-58864502D03*
X130810000Y-76962000D03*
X137922000Y-57150000D03*
X116332000Y-96774000D03*
X138093421Y-76962000D03*
X138296631Y-96774000D03*
X130810000Y-57163737D03*
X130820339Y-97435270D03*
X116205000Y-76961998D03*
X137922000Y-55880000D03*
X115570000Y-95675421D03*
X138093421Y-75692000D03*
X138296631Y-95504000D03*
X130302000Y-75946000D03*
X130048000Y-55880000D03*
X130572578Y-96463134D03*
X115570000Y-75692000D03*
X135128000Y-93218000D03*
X112776000Y-92201988D03*
X112680790Y-73152000D03*
X107941663Y-69286837D03*
X135382000Y-73342500D03*
X135128000Y-52960002D03*
X133858000Y-91948000D03*
X112593058Y-70953732D03*
X107696000Y-66738500D03*
X133911311Y-72654831D03*
X112268004Y-94424500D03*
X133858000Y-53022500D03*
X133667500Y-65278000D03*
X107696000Y-76199998D03*
X132657843Y-93218000D03*
X132873790Y-74427501D03*
X112395000Y-95694502D03*
X110934500Y-56451500D03*
X132524500Y-52959000D03*
X107442000Y-74930000D03*
X130491340Y-95463217D03*
X129571790Y-74709795D03*
X108140500Y-95059500D03*
X104394000Y-63563500D03*
X112109925Y-58694701D03*
X131318000Y-52960000D03*
X110134400Y-70459600D03*
X123698000Y-45466000D03*
X127000000Y-44577000D03*
D15*
X118872000Y-72644000D03*
X118872000Y-91694000D03*
D14*
X129565500Y-50800000D03*
X106045000Y-51625500D03*
X119634000Y-60960000D03*
X116497000Y-57810500D03*
X110134400Y-67919600D03*
X126238000Y-91948000D03*
X126238000Y-52960000D03*
X102616000Y-90678000D03*
X126238000Y-73406000D03*
X103886000Y-72675790D03*
X113654123Y-52567121D03*
X102616000Y-72772000D03*
X110185210Y-75311000D03*
X99568000Y-78232000D03*
X121412000Y-98044000D03*
X99568000Y-98044000D03*
X121432411Y-78233356D03*
X105410000Y-78232000D03*
X105410000Y-98025196D03*
X122682000Y-58420000D03*
X122682000Y-79502000D03*
X99568000Y-79502000D03*
X99568000Y-99314000D03*
X105291337Y-99313994D03*
X104140000Y-79502000D03*
X122510579Y-99314000D03*
X122618500Y-59626500D03*
X99568000Y-80772000D03*
X121412000Y-100584000D03*
X99568000Y-100584000D03*
X121432411Y-80773356D03*
X105156010Y-100330000D03*
X103632000Y-80772000D03*
X122491500Y-60960000D03*
X122682000Y-82042000D03*
X99568000Y-82042000D03*
X99568000Y-101854000D03*
X122510579Y-101854000D03*
X101354337Y-101845663D03*
X101917488Y-81978500D03*
X122491500Y-62230000D03*
X121412000Y-83312000D03*
X99568000Y-83312000D03*
X99568000Y-103124000D03*
X121412000Y-103124000D03*
X101600000Y-103124000D03*
X118990662Y-66158664D03*
X101092000Y-83311998D03*
X122428000Y-63500000D03*
X122682000Y-104394000D03*
X99568000Y-104394000D03*
X122682000Y-84582000D03*
X99568000Y-84582000D03*
X118146781Y-67590700D03*
X122421632Y-64770000D03*
X121412000Y-85852000D03*
X99568000Y-85852000D03*
X99822000Y-105664000D03*
X121919996Y-105655664D03*
X117281737Y-68098768D03*
X122421632Y-66040000D03*
X99568000Y-87122000D03*
X99568000Y-106934000D03*
X121920000Y-106762589D03*
X122002579Y-87122000D03*
X116490710Y-68715785D03*
X122421632Y-67310000D03*
X124968000Y-108712000D03*
X102616000Y-108712000D03*
X124968000Y-68960000D03*
X102566833Y-88065935D03*
X124780873Y-88529920D03*
X112268006Y-59690000D03*
X126238000Y-108712000D03*
X103886000Y-108712000D03*
X126229663Y-88129663D03*
X103652275Y-89093866D03*
X125126626Y-106159093D03*
X126015790Y-68960000D03*
X106089421Y-66738500D03*
X128778000Y-108712000D03*
X106540199Y-88772000D03*
X106426000Y-108712000D03*
X129927368Y-70517555D03*
X115760500Y-66675000D03*
X130048000Y-90360500D03*
X110942837Y-57539337D03*
X109759790Y-80340200D03*
X110103068Y-104973199D03*
X110075263Y-102979937D03*
X110159800Y-100304600D03*
X110187468Y-90900210D03*
X106680000Y-90655591D03*
X102616000Y-92964000D03*
X110222908Y-95472210D03*
X110159800Y-97764600D03*
X128058957Y-82327790D03*
X127965200Y-79787790D03*
X127965200Y-77851000D03*
X127965200Y-70866000D03*
X127508000Y-72898000D03*
X110134400Y-65455800D03*
X127965200Y-75215790D03*
X129741640Y-88772000D03*
X127793790Y-102920800D03*
X127793790Y-100406200D03*
X127793790Y-97815400D03*
X129802334Y-94479660D03*
X127982608Y-90474065D03*
X124714000Y-92710000D03*
X127932879Y-95572322D03*
X127793790Y-105410000D03*
X135128000Y-68326000D03*
X136493200Y-66294000D03*
X136398000Y-69596000D03*
X135636000Y-57975500D03*
X110617000Y-49784000D03*
X136398000Y-108712000D03*
X110649514Y-58576334D03*
X137922000Y-88900000D03*
X117856000Y-88392000D03*
X110045500Y-59435996D03*
X114046000Y-108712000D03*
X108458000Y-64262000D03*
X114046000Y-88392000D03*
X109283498Y-63563500D03*
X133737800Y-48926800D03*
X129087170Y-48966830D03*
X118364000Y-47625000D03*
X131038500Y-50800000D03*
X103409790Y-52432456D03*
X117564000Y-56235500D03*
X121185388Y-43300200D03*
X113601500Y-61214000D03*
X123063000Y-43300200D03*
X115252500Y-60198000D03*
X108585000Y-49339500D03*
X112077438Y-57691490D03*
X104838500Y-49276000D03*
X103505000Y-49276000D03*
X112903000Y-45720000D03*
X112903000Y-44450000D03*
X117983000Y-62801500D03*
X127508000Y-54546500D03*
X121602500Y-53530500D03*
X128625049Y-55236353D03*
X117951290Y-61150500D03*
X119584290Y-55468537D03*
X127508000Y-108712000D03*
X105156000Y-108712000D03*
X125984000Y-86614000D03*
X125476000Y-70866000D03*
X125984000Y-106680000D03*
X123634499Y-54546500D03*
X125539500Y-90741500D03*
X105665631Y-90582790D03*
X114554000Y-53149500D03*
X132588000Y-50800000D03*
X129825735Y-68326000D03*
X128000542Y-65257566D03*
X119634000Y-59944000D03*
X119671976Y-58909712D03*
X119602279Y-57906490D03*
X114744500Y-50736500D03*
X120332500Y-53276502D03*
D16*
X128712000Y-46421002D02*
X126511001Y-48622001D01*
X126511001Y-48622001D02*
X126111002Y-49022000D01*
X128712000Y-44620000D02*
X128712000Y-46421002D01*
X125711003Y-49421999D02*
X126111002Y-49022000D01*
X124714000Y-66802000D02*
X124714000Y-50419002D01*
X124714000Y-50419002D02*
X125711003Y-49421999D01*
X115062000Y-87884000D02*
X114554000Y-87376000D01*
X114554000Y-70034685D02*
X114554000Y-69469000D01*
X114554000Y-87376000D02*
X114554000Y-70034685D01*
X115062000Y-90170000D02*
X115062000Y-87884000D01*
X133858000Y-108712000D02*
X133858000Y-93028698D01*
X133858000Y-93028698D02*
X133085871Y-92256569D01*
X133085871Y-89926129D02*
X133204001Y-89807999D01*
X133085871Y-92256569D02*
X133085871Y-89926129D01*
X133204001Y-89807999D02*
X133604000Y-89408000D01*
X111506000Y-108712000D02*
X113538000Y-106680000D01*
X113538000Y-106680000D02*
X113538000Y-90938110D01*
X113538000Y-90938110D02*
X111829278Y-89229388D01*
X111829278Y-89229388D02*
X111429279Y-88829389D01*
X133858000Y-69907685D02*
X133858000Y-69342000D01*
X133181109Y-72304333D02*
X133858000Y-71627442D01*
X133858000Y-71627442D02*
X133858000Y-69907685D01*
X133204001Y-80206708D02*
X133604000Y-79806709D01*
X133604000Y-89408000D02*
X133204001Y-89008001D01*
X133604000Y-79806709D02*
X133604000Y-73428220D01*
X133181109Y-73005329D02*
X133181109Y-72304333D01*
X133204001Y-89008001D02*
X133204001Y-80206708D01*
X133604000Y-73428220D02*
X133181109Y-73005329D01*
X137922005Y-84581993D02*
X136906000Y-85597998D01*
X136797999Y-103994001D02*
X136398000Y-104394000D01*
X136906000Y-103886000D02*
X136797999Y-103994001D01*
X136906000Y-85597998D02*
X136906000Y-103886000D01*
X138258499Y-65106499D02*
X137858500Y-64706500D01*
X137922005Y-84581993D02*
X138829999Y-83673999D01*
X138829999Y-83673999D02*
X138829999Y-65677999D01*
X138829999Y-65677999D02*
X138258499Y-65106499D01*
X136350903Y-83623685D02*
X136350903Y-83058000D01*
X135890000Y-103124000D02*
X136350903Y-102663097D01*
X136350903Y-102663097D02*
X136350903Y-83623685D01*
X138303000Y-71501000D02*
X137020211Y-72783789D01*
X137922000Y-63500000D02*
X137128298Y-64293702D01*
X137128298Y-65056998D02*
X138303000Y-66231700D01*
X137128298Y-64293702D02*
X137128298Y-65056998D01*
X137020211Y-72783789D02*
X137020211Y-82388692D01*
X136750902Y-82658001D02*
X136350903Y-83058000D01*
X138303000Y-66231700D02*
X138303000Y-71501000D01*
X137020211Y-82388692D02*
X136750902Y-82658001D01*
X135620701Y-81803299D02*
X136398000Y-81026000D01*
X137414000Y-66075981D02*
X136334500Y-64996481D01*
X136398000Y-81026000D02*
X136398000Y-71753704D01*
X135858210Y-101123790D02*
X135858210Y-83646007D01*
X135128000Y-101854000D02*
X135858210Y-101123790D01*
X135858210Y-83646007D02*
X135620701Y-83408498D01*
X136334500Y-64996481D02*
X136334500Y-62732185D01*
X135620701Y-83408498D02*
X135620701Y-81803299D01*
X136398000Y-71753704D02*
X137414000Y-70737704D01*
X137414000Y-70737704D02*
X137414000Y-66075981D01*
X136334500Y-62732185D02*
X136334500Y-62166500D01*
X134397710Y-61525681D02*
X134397710Y-60959996D01*
X134706279Y-73747479D02*
X134588298Y-73629498D01*
X134391367Y-68745078D02*
X134391367Y-67602133D01*
X134874000Y-100584000D02*
X134397799Y-100107799D01*
X134397710Y-67595790D02*
X134397710Y-61525681D01*
X134397799Y-92867503D02*
X134874000Y-92391302D01*
X134706279Y-83787262D02*
X134706279Y-73747479D01*
X134588298Y-73629498D02*
X134588298Y-72928502D01*
X134397799Y-100107799D02*
X134397799Y-92867503D01*
X134842211Y-69195922D02*
X134391367Y-68745078D01*
X134874000Y-92391302D02*
X134874000Y-83954983D01*
X134588298Y-72928502D02*
X134842211Y-72674589D01*
X134874000Y-83954983D02*
X134706279Y-83787262D01*
X134842211Y-72674589D02*
X134842211Y-69195922D01*
X134391367Y-67602133D02*
X134397710Y-67595790D01*
X132733999Y-94661522D02*
X131927633Y-93855156D01*
X131927633Y-93855156D02*
X131927633Y-91501344D01*
X131927633Y-91501344D02*
X132149834Y-91279143D01*
X132111790Y-80067685D02*
X132111790Y-79502000D01*
X132733999Y-98914001D02*
X132733999Y-94661522D01*
X132149834Y-80105729D02*
X132111790Y-80067685D01*
X132334000Y-99314000D02*
X132733999Y-98914001D01*
X132149834Y-91279143D02*
X132149834Y-80105729D01*
X132384789Y-69172837D02*
X132384789Y-59702711D01*
X132143588Y-72048028D02*
X132621481Y-71570135D01*
X132384789Y-59702711D02*
X132397500Y-59690000D01*
X132621481Y-69409529D02*
X132384789Y-69172837D01*
X132111790Y-79502000D02*
X132111790Y-78936315D01*
X132621481Y-71570135D02*
X132621481Y-69409529D01*
X132143588Y-78904517D02*
X132143588Y-72048028D01*
X132111790Y-78936315D02*
X132143588Y-78904517D01*
X131572000Y-59430187D02*
X131572000Y-58864502D01*
X131927578Y-60645799D02*
X131572000Y-60290221D01*
X132029211Y-69463852D02*
X131927578Y-69362219D01*
X131686377Y-71858646D02*
X132029211Y-71515812D01*
X131927578Y-69362219D02*
X131927578Y-60645799D01*
X131226104Y-98352760D02*
X132135963Y-97442901D01*
X131686377Y-77386630D02*
X131686377Y-71858646D01*
X131572000Y-60290221D02*
X131572000Y-59430187D01*
X131349790Y-77723217D02*
X131686377Y-77386630D01*
X131349790Y-88006266D02*
X131349790Y-77723217D01*
X132135963Y-97442901D02*
X132135963Y-94710080D01*
X131692623Y-88349099D02*
X131349790Y-88006266D01*
X131692623Y-91089761D02*
X131692623Y-88349099D01*
X132029211Y-71515812D02*
X132029211Y-69463852D01*
X131470422Y-94044539D02*
X131470422Y-91311962D01*
X131470422Y-91311962D02*
X131692623Y-91089761D01*
X132135963Y-94710080D02*
X131470422Y-94044539D01*
X131235412Y-90900379D02*
X131235412Y-88538481D01*
X131013211Y-91122580D02*
X131235412Y-90900379D01*
X131678752Y-94923338D02*
X131013211Y-94257797D01*
X130820339Y-97435270D02*
X131678752Y-96576857D01*
X130619500Y-87922569D02*
X130619500Y-77152500D01*
X130810000Y-60174814D02*
X130810000Y-57729422D01*
X131678752Y-96576857D02*
X131678752Y-94923338D01*
X131235412Y-88538481D02*
X130619500Y-87922569D01*
X131572000Y-69653234D02*
X131470367Y-69551601D01*
X131165578Y-71732852D02*
X131572000Y-71326430D01*
X130619500Y-77152500D02*
X131165578Y-76606422D01*
X131165578Y-76606422D02*
X131165578Y-71732852D01*
X131572000Y-71326430D02*
X131572000Y-69653234D01*
X130810000Y-57729422D02*
X130810000Y-57163737D01*
X131470367Y-69551601D02*
X131470367Y-60835181D01*
X131013211Y-94257797D02*
X131013211Y-91122580D01*
X131470367Y-60835181D02*
X130810000Y-60174814D01*
X131221541Y-95112720D02*
X131221541Y-95814171D01*
X130556000Y-94447179D02*
X131221541Y-95112720D01*
X130972577Y-96063135D02*
X130572578Y-96463134D01*
X130302000Y-75946000D02*
X129902001Y-76345999D01*
X129902001Y-87851663D02*
X130778201Y-88727863D01*
X130778201Y-88727863D02*
X130778201Y-90710997D01*
X131221541Y-95814171D02*
X130972577Y-96063135D01*
X130778201Y-90710997D02*
X130556000Y-90933198D01*
X130556000Y-90933198D02*
X130556000Y-94447179D01*
X129902001Y-76345999D02*
X129902001Y-87851663D01*
X131114789Y-71137048D02*
X130302000Y-71949837D01*
X130048000Y-60059408D02*
X131013156Y-61024563D01*
X130302000Y-75380315D02*
X130302000Y-75946000D01*
X131114789Y-69842616D02*
X131114789Y-71137048D01*
X130302000Y-71949837D02*
X130302000Y-75380315D01*
X130048000Y-55880000D02*
X130048000Y-60059408D01*
X131013156Y-69740983D02*
X131114789Y-69842616D01*
X131013156Y-61024563D02*
X131013156Y-69740983D01*
X135163490Y-81055208D02*
X135382000Y-80836698D01*
X135331211Y-93014789D02*
X135331211Y-83765601D01*
X135382000Y-73908185D02*
X135382000Y-73342500D01*
X135331211Y-83765601D02*
X135163490Y-83597880D01*
X135382000Y-80836698D02*
X135382000Y-73908185D01*
X135128000Y-93218000D02*
X135331211Y-93014789D01*
X135163490Y-83597880D02*
X135163490Y-81055208D01*
X112680790Y-86137710D02*
X112680790Y-73717685D01*
X110553500Y-88265000D02*
X112680790Y-86137710D01*
X110553500Y-89090500D02*
X110553500Y-88265000D01*
X112776000Y-91313000D02*
X110553500Y-89090500D01*
X112680790Y-73717685D02*
X112680790Y-73152000D01*
X112776000Y-92201988D02*
X112776000Y-91313000D01*
X134728001Y-53360001D02*
X135128000Y-52960002D01*
X135128000Y-58548200D02*
X134728001Y-58148201D01*
X135858201Y-67999887D02*
X135128000Y-67269686D01*
X135858201Y-68676497D02*
X135858201Y-67999887D01*
X134728001Y-58148201D02*
X134728001Y-53360001D01*
X135382000Y-73342500D02*
X135382000Y-69152698D01*
X135382000Y-69152698D02*
X135858201Y-68676497D01*
X135128000Y-67269686D02*
X135128000Y-58548200D01*
X134334201Y-85820201D02*
X134315210Y-85801210D01*
X134334201Y-91471799D02*
X134334201Y-85820201D01*
X133858000Y-91948000D02*
X134334201Y-91471799D01*
X133889799Y-80868497D02*
X133889799Y-80167503D01*
X134061211Y-85547211D02*
X134061211Y-81039909D01*
X134112001Y-72855521D02*
X133911311Y-72654831D01*
X133889799Y-80167503D02*
X134112001Y-79945301D01*
X134061211Y-81039909D02*
X133889799Y-80868497D01*
X134334201Y-85820201D02*
X134061211Y-85547211D01*
X134112001Y-79945301D02*
X134112001Y-72855521D01*
X111868005Y-94024501D02*
X112268004Y-94424500D01*
X111868005Y-91289280D02*
X111868005Y-94024501D01*
X111868001Y-85743999D02*
X109918500Y-87693500D01*
X109918500Y-89339775D02*
X111868005Y-91289280D01*
X111868001Y-71678789D02*
X111868001Y-85743999D01*
X109918500Y-87693500D02*
X109918500Y-89339775D01*
X112593058Y-70953732D02*
X111868001Y-71678789D01*
X133667500Y-64712315D02*
X133667500Y-65278000D01*
X133858000Y-60325000D02*
X133667500Y-60515500D01*
X133858000Y-53022500D02*
X133858000Y-60325000D01*
X133667500Y-60515500D02*
X133667500Y-64712315D01*
X132607045Y-80087443D02*
X133108385Y-79586103D01*
X133108385Y-74662096D02*
X132873790Y-74427501D01*
X132607045Y-92601517D02*
X132607045Y-80087443D01*
X132657843Y-92652315D02*
X132607045Y-92601517D01*
X132657843Y-93218000D02*
X132657843Y-92652315D01*
X133108385Y-79586103D02*
X133108385Y-74662096D01*
X108857999Y-77361997D02*
X108857999Y-92723186D01*
X111829315Y-95694502D02*
X112395000Y-95694502D01*
X108857999Y-92723186D02*
X111829315Y-95694502D01*
X107696000Y-76199998D02*
X108857999Y-77361997D01*
X110534501Y-56851499D02*
X110934500Y-56451500D01*
X105359211Y-62090289D02*
X110534501Y-56914999D01*
X105359211Y-71767711D02*
X105359211Y-62090289D01*
X108172201Y-75723797D02*
X108172201Y-74580701D01*
X110534501Y-56914999D02*
X110534501Y-56851499D01*
X107696000Y-76199998D02*
X108172201Y-75723797D01*
X108172201Y-74580701D02*
X105359211Y-71767711D01*
X132924499Y-53358999D02*
X132524500Y-52959000D01*
X133286500Y-53721000D02*
X132924499Y-53358999D01*
X133286500Y-59881698D02*
X133286500Y-53721000D01*
X133078692Y-69220147D02*
X132905500Y-69046955D01*
X133078692Y-71760157D02*
X133078692Y-69220147D01*
X132873790Y-73861816D02*
X132723898Y-73711924D01*
X132905500Y-60262698D02*
X133286500Y-59881698D01*
X132873790Y-74427501D02*
X132873790Y-73861816D01*
X132723898Y-72114951D02*
X133078692Y-71760157D01*
X132905500Y-69046955D02*
X132905500Y-60262698D01*
X132723898Y-73711924D02*
X132723898Y-72114951D01*
X108140500Y-94493815D02*
X108140500Y-95059500D01*
X106965798Y-76804498D02*
X108140500Y-77979200D01*
X107442000Y-74930000D02*
X106965798Y-75406202D01*
X108140500Y-77979200D02*
X108140500Y-94493815D01*
X106965798Y-75406202D02*
X106965798Y-76804498D01*
X104394000Y-71882000D02*
X104394000Y-64129185D01*
X107442000Y-74930000D02*
X104394000Y-71882000D01*
X104394000Y-64129185D02*
X104394000Y-63563500D01*
X129571790Y-74144110D02*
X129571790Y-74709795D01*
X130657578Y-70947666D02*
X129571790Y-72033454D01*
X130657578Y-70031998D02*
X130657578Y-70947666D01*
X130555945Y-69930365D02*
X130657578Y-70031998D01*
X130555945Y-61213945D02*
X130555945Y-69930365D01*
X129571790Y-72033454D02*
X129571790Y-74144110D01*
X129317798Y-59975798D02*
X130555945Y-61213945D01*
X129317798Y-55530702D02*
X129317798Y-59975798D01*
X131018000Y-53830500D02*
X129317798Y-55530702D01*
X131318000Y-52960000D02*
X131018000Y-53260000D01*
X131018000Y-53260000D02*
X131018000Y-53830500D01*
X126238000Y-91948000D02*
X125665302Y-91948000D01*
X125665302Y-91948000D02*
X124809299Y-91091997D01*
X124809299Y-90276793D02*
X125455793Y-89630299D01*
X125824003Y-89630299D02*
X126968201Y-88486101D01*
X126968201Y-74136201D02*
X126637999Y-73805999D01*
X124809299Y-91091997D02*
X124809299Y-90276793D01*
X125455793Y-89630299D02*
X125824003Y-89630299D01*
X126968201Y-88486101D02*
X126968201Y-74136201D01*
X126637999Y-73805999D02*
X126238000Y-73406000D01*
X103486001Y-73075789D02*
X103886000Y-72675790D01*
X102678599Y-73883191D02*
X103486001Y-73075789D01*
X102678599Y-87119891D02*
X102678599Y-73883191D01*
X103346211Y-87787503D02*
X102678599Y-87119891D01*
X102616000Y-89093875D02*
X103346211Y-88363664D01*
X103346211Y-88363664D02*
X103346211Y-87787503D01*
X102616000Y-90678000D02*
X102616000Y-89093875D01*
X126637999Y-73006001D02*
X126238000Y-73406000D01*
X126746000Y-72898000D02*
X126637999Y-73006001D01*
X126746000Y-68144306D02*
X126746000Y-72898000D01*
X125730000Y-67128306D02*
X126746000Y-68144306D01*
X125730000Y-54991000D02*
X125730000Y-67128306D01*
X126238000Y-54483000D02*
X125730000Y-54991000D01*
X126238000Y-52960000D02*
X126238000Y-54483000D01*
X105010001Y-97625197D02*
X105410000Y-98025196D01*
X105410000Y-78232000D02*
X105809999Y-78631999D01*
X105809999Y-78631999D02*
X105809999Y-89262001D01*
X105809999Y-89262001D02*
X104902000Y-90170000D01*
X104902000Y-97517196D02*
X105010001Y-97625197D01*
X104902000Y-90170000D02*
X104902000Y-97517196D01*
X122116315Y-58420000D02*
X122682000Y-58420000D01*
X121432411Y-71849120D02*
X120777000Y-71193709D01*
X121432411Y-78233356D02*
X121432411Y-71849120D01*
X121856500Y-58420000D02*
X122116315Y-58420000D01*
X120777000Y-59499500D02*
X121856500Y-58420000D01*
X120777000Y-71193709D02*
X120777000Y-59499500D01*
X105156000Y-80518000D02*
X104539999Y-79901999D01*
X104394000Y-98416657D02*
X104394000Y-90031408D01*
X104394000Y-90031408D02*
X105156000Y-89269408D01*
X105291337Y-99313994D02*
X104394000Y-98416657D01*
X104539999Y-79901999D02*
X104140000Y-79502000D01*
X105156000Y-89269408D02*
X105156000Y-80518000D01*
X122682000Y-72452116D02*
X121234211Y-71004327D01*
X121234211Y-61010789D02*
X122218501Y-60026499D01*
X121234211Y-71004327D02*
X121234211Y-61010789D01*
X122682000Y-79502000D02*
X122682000Y-72452116D01*
X122218501Y-60026499D02*
X122618500Y-59626500D01*
X104648000Y-81788000D02*
X104031999Y-81171999D01*
X105156010Y-100330000D02*
X103886000Y-99059990D01*
X103886000Y-99059990D02*
X103886000Y-89892815D01*
X103886000Y-89892815D02*
X104648000Y-89130815D01*
X104031999Y-81171999D02*
X103632000Y-80772000D01*
X104648000Y-89130815D02*
X104648000Y-81788000D01*
X123412201Y-79852497D02*
X123412201Y-72535724D01*
X121691422Y-70814945D02*
X121691422Y-61760078D01*
X121691422Y-61760078D02*
X122091501Y-61359999D01*
X123412201Y-72535724D02*
X121691422Y-70814945D01*
X122491342Y-80773356D02*
X123412201Y-79852497D01*
X121432411Y-80773356D02*
X122491342Y-80773356D01*
X122091501Y-61359999D02*
X122491500Y-60960000D01*
X101917500Y-81978512D02*
X101917488Y-81978500D01*
X101917500Y-87566500D02*
X101917500Y-81978512D01*
X101354337Y-88129663D02*
X101917500Y-87566500D01*
X101354337Y-101845663D02*
X101354337Y-88129663D01*
X123158201Y-62896701D02*
X122891499Y-62629999D01*
X122682000Y-82042000D02*
X123869410Y-80854590D01*
X122891499Y-62629999D02*
X122491500Y-62230000D01*
X123869410Y-71633294D02*
X123158201Y-70922085D01*
X123158201Y-70922085D02*
X123158201Y-62896701D01*
X123869410Y-80854590D02*
X123869410Y-71633294D01*
X121412000Y-83312000D02*
X120702201Y-82602201D01*
X120702201Y-82602201D02*
X120702201Y-71765503D01*
X118990662Y-66724349D02*
X118990662Y-66158664D01*
X118990662Y-70053964D02*
X118990662Y-66724349D01*
X120702201Y-71765503D02*
X118990662Y-70053964D01*
X100374500Y-101898500D02*
X100374500Y-84029498D01*
X100374500Y-84029498D02*
X100692001Y-83711997D01*
X101600000Y-103124000D02*
X100374500Y-101898500D01*
X100692001Y-83711997D02*
X101092000Y-83311998D01*
X123190000Y-93102593D02*
X123698000Y-93610593D01*
X123698000Y-103378000D02*
X123081999Y-103994001D01*
X123698000Y-93610593D02*
X123698000Y-103378000D01*
X122682000Y-84582000D02*
X123190000Y-85090000D01*
X123190000Y-85090000D02*
X123190000Y-93102593D01*
X123081999Y-103994001D02*
X122682000Y-104394000D01*
X122682000Y-84582000D02*
X121601302Y-84582000D01*
X118146781Y-68156385D02*
X118146781Y-67590700D01*
X120142003Y-76546224D02*
X117041800Y-73446021D01*
X121601302Y-84582000D02*
X120142003Y-83122701D01*
X120142003Y-83122701D02*
X120142003Y-76546224D01*
X117041800Y-71765502D02*
X118146781Y-70660521D01*
X118146781Y-70660521D02*
X118146781Y-68156385D01*
X117041800Y-73446021D02*
X117041800Y-71765502D01*
X119684792Y-76735606D02*
X116584589Y-73635403D01*
X117281737Y-69980961D02*
X117281737Y-68664453D01*
X116584589Y-73635403D02*
X116584589Y-70678109D01*
X121412000Y-85852000D02*
X119684792Y-84124792D01*
X117281737Y-68664453D02*
X117281737Y-68098768D01*
X116584589Y-70678109D02*
X117281737Y-69980961D01*
X119684792Y-84124792D02*
X119684792Y-76735606D01*
X123240789Y-102754513D02*
X121919996Y-104075306D01*
X123240789Y-93799975D02*
X123240789Y-102754513D01*
X121919996Y-105089979D02*
X121919996Y-105655664D01*
X121919996Y-104075306D02*
X121919996Y-105089979D01*
X122732789Y-86537789D02*
X122732789Y-93291975D01*
X122732789Y-93291975D02*
X123240789Y-93799975D01*
X122047000Y-85852000D02*
X122732789Y-86537789D01*
X121412000Y-85852000D02*
X122047000Y-85852000D01*
X99568000Y-106744698D02*
X99568000Y-106934000D01*
X122002579Y-87687685D02*
X122002579Y-87122000D01*
X120504001Y-94379999D02*
X122002579Y-92881421D01*
X120504001Y-105346590D02*
X120504001Y-94379999D01*
X122002579Y-92881421D02*
X122002579Y-87687685D01*
X121920000Y-106762589D02*
X120504001Y-105346590D01*
X116490710Y-69281470D02*
X116490710Y-68715785D01*
X116059001Y-73756409D02*
X116059001Y-70390263D01*
X119227581Y-76924988D02*
X116059001Y-73756409D01*
X119227581Y-84912687D02*
X119227581Y-76924988D01*
X116490710Y-69958554D02*
X116490710Y-69281470D01*
X120713500Y-86398606D02*
X119227581Y-84912687D01*
X120713500Y-86423500D02*
X120713500Y-86398606D01*
X121412000Y-87122000D02*
X120713500Y-86423500D01*
X116059001Y-70390263D02*
X116490710Y-69958554D01*
X122002579Y-87122000D02*
X121412000Y-87122000D01*
X101885799Y-101313107D02*
X101885799Y-88746969D01*
X102616000Y-102043308D02*
X101885799Y-101313107D01*
X102166834Y-88465934D02*
X102566833Y-88065935D01*
X102616000Y-108712000D02*
X102616000Y-102043308D01*
X101885799Y-88746969D02*
X102166834Y-88465934D01*
X124968000Y-105237019D02*
X124968000Y-94044698D01*
X124288588Y-71405879D02*
X124380874Y-71498165D01*
X124288588Y-69639412D02*
X124288588Y-71405879D01*
X124380874Y-71498165D02*
X124380874Y-88129921D01*
X124380874Y-88129921D02*
X124780873Y-88529920D01*
X123894877Y-89415916D02*
X124380874Y-88929919D01*
X124968000Y-68960000D02*
X124288588Y-69639412D01*
X124968000Y-108712000D02*
X124396424Y-108140424D01*
X123894877Y-92971575D02*
X123894877Y-89415916D01*
X124396424Y-105808595D02*
X124968000Y-105237019D01*
X124968000Y-94044698D02*
X123894877Y-92971575D01*
X124396424Y-108140424D02*
X124396424Y-105808595D01*
X124380874Y-88929919D02*
X124780873Y-88529920D01*
X103378000Y-89368141D02*
X103652275Y-89093866D01*
X103378000Y-108204000D02*
X103378000Y-89368141D01*
X103886000Y-108712000D02*
X103378000Y-108204000D01*
X125126626Y-107600626D02*
X125126626Y-106159093D01*
X126238000Y-108712000D02*
X125126626Y-107600626D01*
X126229663Y-88129663D02*
X124968000Y-86868000D01*
X124968000Y-86868000D02*
X124968000Y-71438700D01*
X124968000Y-71438700D02*
X124745797Y-71216497D01*
X124745797Y-71216497D02*
X124745797Y-70229993D01*
X124745797Y-70229993D02*
X125615791Y-69359999D01*
X125615791Y-69359999D02*
X126015790Y-68960000D01*
X125526625Y-92455916D02*
X125526625Y-105759094D01*
X124352088Y-91281379D02*
X125526625Y-92455916D01*
X125526625Y-105759094D02*
X125126626Y-106159093D01*
X124352088Y-90087412D02*
X124352088Y-91281379D01*
X126229663Y-88209837D02*
X124352088Y-90087412D01*
X126229663Y-88129663D02*
X126229663Y-88209837D01*
X128778000Y-108712000D02*
X128778000Y-91630500D01*
X129927368Y-70517555D02*
X128789158Y-71655765D01*
X129648001Y-89960501D02*
X130048000Y-90360500D01*
X128789158Y-71655765D02*
X128789158Y-89101658D01*
X128789158Y-89101658D02*
X129648001Y-89960501D01*
X129648001Y-90760499D02*
X130048000Y-90360500D01*
X128778000Y-91630500D02*
X129648001Y-90760499D01*
X107410299Y-95409997D02*
X107758727Y-95758425D01*
X107758727Y-95758425D02*
X107758727Y-107379273D01*
X107758727Y-107379273D02*
X106825999Y-108312001D01*
X106540199Y-88772000D02*
X107410299Y-89642100D01*
X107410299Y-89642100D02*
X107410299Y-95409997D01*
X106825999Y-108312001D02*
X106426000Y-108712000D01*
X111379715Y-57976215D02*
X111342836Y-57939336D01*
X115760500Y-66675000D02*
X111379715Y-62294215D01*
X111379715Y-62294215D02*
X111379715Y-57976215D01*
X111342836Y-57939336D02*
X110942837Y-57539337D01*
X136398000Y-67893092D02*
X135604299Y-67099391D01*
X135604299Y-58572886D02*
X135636000Y-58541185D01*
X135636000Y-58541185D02*
X135636000Y-57975500D01*
X136398000Y-69596000D02*
X136398000Y-67893092D01*
X135604299Y-67099391D02*
X135604299Y-58572886D01*
X135382000Y-109728000D02*
X119634000Y-109728000D01*
X117041799Y-90815503D02*
X118770370Y-89086932D01*
X115741413Y-70008880D02*
X115741413Y-68751413D01*
X115570000Y-70180293D02*
X115741413Y-70008880D01*
X119634000Y-109728000D02*
X118872000Y-108966000D01*
X118872000Y-98233302D02*
X117041799Y-96403101D01*
X136398000Y-108712000D02*
X135382000Y-109728000D01*
X110826499Y-63836499D02*
X110826499Y-58753319D01*
X118770370Y-89086932D02*
X118770370Y-77114370D01*
X118770370Y-77114370D02*
X115570000Y-73913999D01*
X115570000Y-73913999D02*
X115570000Y-70180293D01*
X117041799Y-96403101D02*
X117041799Y-90815503D01*
X115741413Y-68751413D02*
X110826499Y-63836499D01*
X118872000Y-108966000D02*
X118872000Y-98233302D01*
X110826499Y-58753319D02*
X110649514Y-58576334D01*
X115284202Y-68940795D02*
X110045500Y-63702093D01*
X110045500Y-63702093D02*
X110045500Y-60001681D01*
X115112789Y-74103381D02*
X115112789Y-69990911D01*
X117856000Y-88392000D02*
X117856000Y-76846592D01*
X115112789Y-69990911D02*
X115284202Y-69819498D01*
X110045500Y-60001681D02*
X110045500Y-59435996D01*
X117856000Y-76846592D02*
X115112789Y-74103381D01*
X115284202Y-69819498D02*
X115284202Y-68940795D01*
X108458000Y-64827685D02*
X108458000Y-64262000D01*
X108458000Y-67323898D02*
X108458000Y-64827685D01*
X112395000Y-69723000D02*
X110857102Y-69723000D01*
X110857102Y-69723000D02*
X108458000Y-67323898D01*
X113411000Y-70739000D02*
X112395000Y-69723000D01*
X113411000Y-87757000D02*
X113411000Y-70739000D01*
X114046000Y-108712000D02*
X114046000Y-89979500D01*
X113030000Y-88963500D02*
X113030000Y-88138000D01*
X113030000Y-88138000D02*
X113411000Y-87757000D01*
X114046000Y-89979500D02*
X113030000Y-88963500D01*
X109283498Y-64129185D02*
X109283498Y-63563500D01*
X114046000Y-70612000D02*
X109283498Y-65849498D01*
X109283498Y-65849498D02*
X109283498Y-64129185D01*
X114046000Y-88392000D02*
X114046000Y-70612000D01*
X113601500Y-60648315D02*
X113601500Y-61214000D01*
X113601500Y-57024198D02*
X113601500Y-60648315D01*
X121185388Y-49440310D02*
X113601500Y-57024198D01*
X121185388Y-43300200D02*
X121185388Y-49440310D01*
X115252500Y-59632315D02*
X115252500Y-60198000D01*
X115252500Y-56261000D02*
X115252500Y-59632315D01*
X122663001Y-48850499D02*
X115252500Y-56261000D01*
X122663001Y-43700199D02*
X122663001Y-48850499D01*
X123063000Y-43300200D02*
X122663001Y-43700199D01*
X108585000Y-49905185D02*
X108585000Y-49339500D01*
X108585000Y-52134704D02*
X108585000Y-49905185D01*
X112077438Y-55627142D02*
X108585000Y-52134704D01*
X112077438Y-57691490D02*
X112077438Y-55627142D01*
X119538701Y-56546799D02*
X121602500Y-54483000D01*
X121602500Y-54096185D02*
X121602500Y-53530500D01*
X117983000Y-62801500D02*
X118681500Y-62103000D01*
X121602500Y-54483000D02*
X121602500Y-54096185D01*
X118681500Y-62103000D02*
X118681500Y-57144222D01*
X118681500Y-57144222D02*
X119278923Y-56546799D01*
X119278923Y-56546799D02*
X119538701Y-56546799D01*
X117951290Y-61150500D02*
X117951290Y-57101537D01*
X117951290Y-57101537D02*
X119584290Y-55468537D01*
X106172000Y-91185990D02*
X106064009Y-91077999D01*
X106064009Y-91077999D02*
X105664010Y-90678000D01*
X106172000Y-107696000D02*
X106172000Y-91185990D01*
X105156000Y-108712000D02*
X106172000Y-107696000D01*
X125984000Y-86614000D02*
X125476000Y-86106000D01*
X125476000Y-71431685D02*
X125476000Y-70866000D01*
X125476000Y-86106000D02*
X125476000Y-71431685D01*
X127000000Y-105664000D02*
X127000000Y-91636315D01*
X125984000Y-106680000D02*
X127000000Y-105664000D01*
X126105185Y-90741500D02*
X125539500Y-90741500D01*
X127000000Y-91636315D02*
X126105185Y-90741500D01*
M02*
