M48
; DRILL file {KiCad (5.1.5-rc2)} date Thursday, January 23, 2020 at 04:56:07 PM
; FORMAT={-:-/ absolute / inch / decimal}
; #@! TF.CreationDate,2020-01-23T16:56:07-08:00
; #@! TF.GenerationSoftware,Kicad,Pcbnew,(5.1.5-rc2)
; #@! TF.FileFunction,Plated,1,4,PTH
FMAT,2
INCH
T1C0.0157
T2C0.0256
T3C0.0276
T4C0.0394
T5C0.0787
%
G90
G05
T1
X3.92Y-3.08
X3.92Y-3.13
X3.92Y-3.18
X3.92Y-3.23
X3.92Y-3.28
X3.92Y-3.33
X3.92Y-3.38
X3.92Y-3.43
X3.92Y-3.86
X3.92Y-3.91
X3.92Y-3.96
X3.92Y-4.01
X3.92Y-4.06
X3.92Y-4.11
X3.92Y-4.21
X3.93Y-4.16
X3.98Y-3.28
X3.9903Y-4.0097
X4.0Y-4.06
X4.0125Y-3.2275
X4.0381Y-3.4672
X4.04Y-2.865
X4.04Y-3.57
X4.04Y-3.66
X4.04Y-4.28
X4.0713Y-2.0643
X4.075Y-1.94
X4.08Y-3.18
X4.0808Y-3.5076
X4.09Y-2.8613
X4.09Y-4.28
X4.1Y-3.13
X4.11Y-2.5025
X4.1275Y-1.94
X4.14Y-4.28
X4.14Y-3.95
X4.1453Y-3.91
X4.15Y-3.08
X4.15Y-3.8593
X4.1601Y-3.5663
X4.175Y-2.0325
X4.1767Y-2.6275
X4.19Y-4.28
X4.1945Y-3.495
X4.2Y-3.5691
X4.23Y-2.95
X4.24Y-2.6275
X4.24Y-3.0
X4.2497Y-2.7278
X4.2575Y-3.7425
X4.27Y-2.53
X4.275Y-1.9425
X4.3025Y-2.5025
X4.3213Y-3.063
X4.3213Y-3.163
X4.3213Y-3.263
X4.3213Y-3.365
X4.3325Y-2.34
X4.3337Y-4.0543
X4.3348Y-4.1328
X4.336Y-2.577
X4.336Y-2.674
X4.336Y-2.774
X4.337Y-3.849
X4.337Y-3.949
X4.338Y-2.965
X4.3381Y-3.5787
X4.3395Y-3.7587
X4.355Y-1.96
X4.3563Y-2.3062
X4.3675Y-2.2225
X4.3678Y-2.2653
X4.387Y-3.4972
X4.39Y-4.28
X4.405Y-2.14
X4.4125Y-2.2713
X4.4138Y-2.3108
X4.42Y-3.7175
X4.42Y-2.35
X4.425Y-3.7675
X4.4328Y-2.7935
X4.4363Y-2.88
X4.44Y-3.63
X4.445Y-1.75
X4.445Y-1.8
X4.4725Y-2.41
X4.4746Y-2.0696
X4.49Y-3.48
X4.49Y-4.28
X4.51Y-2.0925
X4.51Y-2.735
X4.5175Y-1.9975
X4.53Y-4.06
X4.53Y-3.55
X4.53Y-3.86
X4.53Y-3.96
X4.5375Y-2.37
X4.54Y-3.08
X4.54Y-3.18
X4.54Y-3.28
X4.55Y-2.98
X4.55Y-3.7667
X4.5575Y-2.625
X4.5712Y-3.3316
X4.575Y-3.03
X4.58Y-3.13
X4.58Y-3.23
X4.58Y-3.81
X4.58Y-3.91
X4.58Y-4.01
X4.58Y-4.11
X4.5862Y-2.7053
X4.5865Y-2.276
X4.595Y-1.875
X4.6174Y-2.6811
X4.6285Y-2.214
X4.64Y-3.48
X4.6438Y-2.4075
X4.645Y-2.4725
X4.6514Y-2.6611
X4.66Y-1.875
X4.6847Y-2.6047
X4.708Y-2.1838
X4.7088Y-2.2798
X4.71Y-2.36
X4.71Y-2.4
X4.7115Y-2.3193
X4.721Y-4.2903
X4.7375Y-2.0975
X4.75Y-3.48
X4.7711Y-1.7047
X4.78Y-3.28
X4.78Y-3.38
X4.78Y-3.86
X4.78Y-3.96
X4.78Y-4.06
X4.7808Y-3.0801
X4.7808Y-3.1801
X4.7875Y-2.1075
X4.8Y-4.1597
X4.8Y-4.2033
X4.8033Y-3.43
X4.8197Y-2.55
X4.8197Y-2.6
X4.8197Y-2.65
X4.82Y-2.5
X4.8225Y-2.4
X4.8225Y-2.45
X4.8233Y-3.91
X4.8233Y-4.01
X4.8275Y-2.3475
X4.83Y-2.3
X4.83Y-3.13
X4.83Y-3.23
X4.83Y-3.33
X4.83Y-4.11
X4.845Y-1.7047
X4.8675Y-2.1475
X4.87Y-1.79
X4.91Y-2.63
X4.91Y-3.65
X4.9126Y-3.4854
X4.92Y-2.715
X4.92Y-4.28
X4.9262Y-4.1795
X4.94Y-2.79
X4.9425Y-3.5725
X4.96Y-3.41
X4.96Y-4.2
X4.9613Y-2.715
X4.965Y-1.93
X4.9697Y-3.4697
X4.97Y-2.085
X4.97Y-2.89
X4.97Y-3.34
X4.97Y-3.62
X4.97Y-4.28
X5.0Y-1.755
X5.02Y-2.1475
X5.02Y-2.87
X5.02Y-4.28
X5.0313Y-3.851
X5.0313Y-3.953
X5.0313Y-4.052
X5.0313Y-4.15
X5.0367Y-3.7627
X5.038Y-2.79
X5.038Y-2.9613
X5.038Y-3.065
X5.038Y-3.1413
X5.0387Y-3.562
X5.0394Y-2.5692
X5.0417Y-3.2413
X5.06Y-2.2175
X5.064Y-2.1747
X5.0674Y-1.7567
X5.07Y-4.28
X5.0822Y-1.9278
X5.101Y-2.0
X5.1013Y-2.9413
X5.1079Y-3.495
X5.1103Y-3.7197
X5.1112Y-2.69
X5.1153Y-2.7763
X5.12Y-2.2
X5.12Y-3.5575
X5.13Y-2.99
X5.1375Y-3.7584
X5.1407Y-3.7978
X5.15Y-2.2505
X5.15Y-3.03
X5.1504Y-3.836
X5.159Y-2.0
X5.1664Y-3.8722
X5.17Y-2.085
X5.1713Y-3.095
X5.18Y-2.3175
X5.2013Y-3.13
X5.21Y-3.91
X5.2125Y-2.35
X5.2175Y-2.085
X5.22Y-2.0
X5.2227Y-3.67
X5.2313Y-2.9302
X5.26Y-3.52
X5.2625Y-2.57
X5.2653Y-1.9263
X5.27Y-2.0875
X5.27Y-2.73
X5.27Y-3.62
X5.27Y-4.28
X5.2721Y-2.8604
X5.2912Y-2.4
X5.3Y-3.17
X5.31Y-3.96
X5.32Y-2.085
X5.32Y-2.69
X5.32Y-3.67
X5.32Y-4.01
X5.33Y-2.8875
X5.34Y-2.2825
X5.35Y-4.06
X5.36Y-3.2
X5.3675Y-2.4475
X5.3681Y-3.27
X5.37Y-2.74
X5.37Y-4.11
X5.37Y-4.28
X5.3737Y-2.61
X5.4275Y-2.5475
X5.43Y-2.2
X5.43Y-2.25
X5.43Y-2.3
X5.43Y-2.35
X5.43Y-2.4
X5.43Y-2.45
X5.43Y-2.5
X5.43Y-3.5
X5.43Y-3.33
X5.4342Y-3.2309
X5.4362Y-3.2812
X5.4367Y-2.98
X5.4367Y-3.03
X5.4367Y-3.08
X5.4367Y-3.13
X5.4367Y-3.18
X5.4427Y-4.1102
X5.4447Y-3.76
X5.4447Y-3.81
X5.4447Y-3.86
X5.4447Y-3.91
X5.4447Y-3.96
X5.4447Y-4.01
X5.4447Y-4.06
T4
X3.95Y-1.785
X3.95Y-1.885
X3.95Y-1.985
X3.95Y-2.085
T5
X4.68Y-2.86
X4.68Y-3.61
T2
G00X5.1987Y-1.8613
M15
G01X5.1987Y-1.8771
M16
G05
G00X5.3893Y-1.8613
M15
G01X5.3893Y-1.8771
M16
G05
T3
G00X5.1865Y-1.7413
M15
G01X5.1865Y-1.7609
M16
G05
G00X5.4015Y-1.7413
M15
G01X5.4015Y-1.7609
M16
G05
T0
M30
