G04 #@! TF.GenerationSoftware,KiCad,Pcbnew,(5.1.5-rc2)*
G04 #@! TF.CreationDate,2020-01-23T16:56:21-08:00*
G04 #@! TF.ProjectId,fpgb,66706762-2e6b-4696-9361-645f70636258,0.1*
G04 #@! TF.SameCoordinates,Original*
G04 #@! TF.FileFunction,Paste,Top*
G04 #@! TF.FilePolarity,Positive*
%FSLAX46Y46*%
G04 Gerber Fmt 4.6, Leading zero omitted, Abs format (unit mm)*
G04 Created by KiCad (PCBNEW (5.1.5-rc2)) date 2020-01-23 16:56:21*
%MOMM*%
%LPD*%
G04 APERTURE LIST*
%ADD10R,0.800000X0.500000*%
%ADD11C,0.100000*%
%ADD12R,0.740000X2.400000*%
G04 APERTURE END LIST*
D10*
X118059200Y-58806500D03*
X118072000Y-57906500D03*
X119672000Y-58806500D03*
X119672000Y-57906500D03*
D11*
G36*
X128358145Y-104649835D02*
G01*
X128395129Y-104655321D01*
X128431398Y-104664406D01*
X128466602Y-104677002D01*
X128500402Y-104692988D01*
X128532472Y-104712210D01*
X128562504Y-104734483D01*
X128590208Y-104759592D01*
X128615317Y-104787296D01*
X128637590Y-104817328D01*
X128656812Y-104849398D01*
X128672798Y-104883198D01*
X128685394Y-104918402D01*
X128694479Y-104954671D01*
X128699965Y-104991655D01*
X128701800Y-105029000D01*
X128701800Y-105791000D01*
X128699965Y-105828345D01*
X128694479Y-105865329D01*
X128685394Y-105901598D01*
X128672798Y-105936802D01*
X128656812Y-105970602D01*
X128637590Y-106002672D01*
X128615317Y-106032704D01*
X128590208Y-106060408D01*
X128562504Y-106085517D01*
X128532472Y-106107790D01*
X128500402Y-106127012D01*
X128466602Y-106142998D01*
X128431398Y-106155594D01*
X128395129Y-106164679D01*
X128358145Y-106170165D01*
X128320800Y-106172000D01*
X127558800Y-106172000D01*
X127521455Y-106170165D01*
X127484471Y-106164679D01*
X127448202Y-106155594D01*
X127412998Y-106142998D01*
X127379198Y-106127012D01*
X127347128Y-106107790D01*
X127317096Y-106085517D01*
X127289392Y-106060408D01*
X127264283Y-106032704D01*
X127242010Y-106002672D01*
X127222788Y-105970602D01*
X127206802Y-105936802D01*
X127194206Y-105901598D01*
X127185121Y-105865329D01*
X127179635Y-105828345D01*
X127177800Y-105791000D01*
X127177800Y-105029000D01*
X127179635Y-104991655D01*
X127185121Y-104954671D01*
X127194206Y-104918402D01*
X127206802Y-104883198D01*
X127222788Y-104849398D01*
X127242010Y-104817328D01*
X127264283Y-104787296D01*
X127289392Y-104759592D01*
X127317096Y-104734483D01*
X127347128Y-104712210D01*
X127379198Y-104692988D01*
X127412998Y-104677002D01*
X127448202Y-104664406D01*
X127484471Y-104655321D01*
X127521455Y-104649835D01*
X127558800Y-104648000D01*
X128320800Y-104648000D01*
X128358145Y-104649835D01*
G37*
G36*
X128358145Y-102160635D02*
G01*
X128395129Y-102166121D01*
X128431398Y-102175206D01*
X128466602Y-102187802D01*
X128500402Y-102203788D01*
X128532472Y-102223010D01*
X128562504Y-102245283D01*
X128590208Y-102270392D01*
X128615317Y-102298096D01*
X128637590Y-102328128D01*
X128656812Y-102360198D01*
X128672798Y-102393998D01*
X128685394Y-102429202D01*
X128694479Y-102465471D01*
X128699965Y-102502455D01*
X128701800Y-102539800D01*
X128701800Y-103301800D01*
X128699965Y-103339145D01*
X128694479Y-103376129D01*
X128685394Y-103412398D01*
X128672798Y-103447602D01*
X128656812Y-103481402D01*
X128637590Y-103513472D01*
X128615317Y-103543504D01*
X128590208Y-103571208D01*
X128562504Y-103596317D01*
X128532472Y-103618590D01*
X128500402Y-103637812D01*
X128466602Y-103653798D01*
X128431398Y-103666394D01*
X128395129Y-103675479D01*
X128358145Y-103680965D01*
X128320800Y-103682800D01*
X127558800Y-103682800D01*
X127521455Y-103680965D01*
X127484471Y-103675479D01*
X127448202Y-103666394D01*
X127412998Y-103653798D01*
X127379198Y-103637812D01*
X127347128Y-103618590D01*
X127317096Y-103596317D01*
X127289392Y-103571208D01*
X127264283Y-103543504D01*
X127242010Y-103513472D01*
X127222788Y-103481402D01*
X127206802Y-103447602D01*
X127194206Y-103412398D01*
X127185121Y-103376129D01*
X127179635Y-103339145D01*
X127177800Y-103301800D01*
X127177800Y-102539800D01*
X127179635Y-102502455D01*
X127185121Y-102465471D01*
X127194206Y-102429202D01*
X127206802Y-102393998D01*
X127222788Y-102360198D01*
X127242010Y-102328128D01*
X127264283Y-102298096D01*
X127289392Y-102270392D01*
X127317096Y-102245283D01*
X127347128Y-102223010D01*
X127379198Y-102203788D01*
X127412998Y-102187802D01*
X127448202Y-102175206D01*
X127484471Y-102166121D01*
X127521455Y-102160635D01*
X127558800Y-102158800D01*
X128320800Y-102158800D01*
X128358145Y-102160635D01*
G37*
G36*
X128358145Y-99646035D02*
G01*
X128395129Y-99651521D01*
X128431398Y-99660606D01*
X128466602Y-99673202D01*
X128500402Y-99689188D01*
X128532472Y-99708410D01*
X128562504Y-99730683D01*
X128590208Y-99755792D01*
X128615317Y-99783496D01*
X128637590Y-99813528D01*
X128656812Y-99845598D01*
X128672798Y-99879398D01*
X128685394Y-99914602D01*
X128694479Y-99950871D01*
X128699965Y-99987855D01*
X128701800Y-100025200D01*
X128701800Y-100787200D01*
X128699965Y-100824545D01*
X128694479Y-100861529D01*
X128685394Y-100897798D01*
X128672798Y-100933002D01*
X128656812Y-100966802D01*
X128637590Y-100998872D01*
X128615317Y-101028904D01*
X128590208Y-101056608D01*
X128562504Y-101081717D01*
X128532472Y-101103990D01*
X128500402Y-101123212D01*
X128466602Y-101139198D01*
X128431398Y-101151794D01*
X128395129Y-101160879D01*
X128358145Y-101166365D01*
X128320800Y-101168200D01*
X127558800Y-101168200D01*
X127521455Y-101166365D01*
X127484471Y-101160879D01*
X127448202Y-101151794D01*
X127412998Y-101139198D01*
X127379198Y-101123212D01*
X127347128Y-101103990D01*
X127317096Y-101081717D01*
X127289392Y-101056608D01*
X127264283Y-101028904D01*
X127242010Y-100998872D01*
X127222788Y-100966802D01*
X127206802Y-100933002D01*
X127194206Y-100897798D01*
X127185121Y-100861529D01*
X127179635Y-100824545D01*
X127177800Y-100787200D01*
X127177800Y-100025200D01*
X127179635Y-99987855D01*
X127185121Y-99950871D01*
X127194206Y-99914602D01*
X127206802Y-99879398D01*
X127222788Y-99845598D01*
X127242010Y-99813528D01*
X127264283Y-99783496D01*
X127289392Y-99755792D01*
X127317096Y-99730683D01*
X127347128Y-99708410D01*
X127379198Y-99689188D01*
X127412998Y-99673202D01*
X127448202Y-99660606D01*
X127484471Y-99651521D01*
X127521455Y-99646035D01*
X127558800Y-99644200D01*
X128320800Y-99644200D01*
X128358145Y-99646035D01*
G37*
G36*
X128358145Y-97055235D02*
G01*
X128395129Y-97060721D01*
X128431398Y-97069806D01*
X128466602Y-97082402D01*
X128500402Y-97098388D01*
X128532472Y-97117610D01*
X128562504Y-97139883D01*
X128590208Y-97164992D01*
X128615317Y-97192696D01*
X128637590Y-97222728D01*
X128656812Y-97254798D01*
X128672798Y-97288598D01*
X128685394Y-97323802D01*
X128694479Y-97360071D01*
X128699965Y-97397055D01*
X128701800Y-97434400D01*
X128701800Y-98196400D01*
X128699965Y-98233745D01*
X128694479Y-98270729D01*
X128685394Y-98306998D01*
X128672798Y-98342202D01*
X128656812Y-98376002D01*
X128637590Y-98408072D01*
X128615317Y-98438104D01*
X128590208Y-98465808D01*
X128562504Y-98490917D01*
X128532472Y-98513190D01*
X128500402Y-98532412D01*
X128466602Y-98548398D01*
X128431398Y-98560994D01*
X128395129Y-98570079D01*
X128358145Y-98575565D01*
X128320800Y-98577400D01*
X127558800Y-98577400D01*
X127521455Y-98575565D01*
X127484471Y-98570079D01*
X127448202Y-98560994D01*
X127412998Y-98548398D01*
X127379198Y-98532412D01*
X127347128Y-98513190D01*
X127317096Y-98490917D01*
X127289392Y-98465808D01*
X127264283Y-98438104D01*
X127242010Y-98408072D01*
X127222788Y-98376002D01*
X127206802Y-98342202D01*
X127194206Y-98306998D01*
X127185121Y-98270729D01*
X127179635Y-98233745D01*
X127177800Y-98196400D01*
X127177800Y-97434400D01*
X127179635Y-97397055D01*
X127185121Y-97360071D01*
X127194206Y-97323802D01*
X127206802Y-97288598D01*
X127222788Y-97254798D01*
X127242010Y-97222728D01*
X127264283Y-97192696D01*
X127289392Y-97164992D01*
X127317096Y-97139883D01*
X127347128Y-97117610D01*
X127379198Y-97098388D01*
X127412998Y-97082402D01*
X127448202Y-97069806D01*
X127484471Y-97060721D01*
X127521455Y-97055235D01*
X127558800Y-97053400D01*
X128320800Y-97053400D01*
X128358145Y-97055235D01*
G37*
G36*
X128383545Y-94616835D02*
G01*
X128420529Y-94622321D01*
X128456798Y-94631406D01*
X128492002Y-94644002D01*
X128525802Y-94659988D01*
X128557872Y-94679210D01*
X128587904Y-94701483D01*
X128615608Y-94726592D01*
X128640717Y-94754296D01*
X128662990Y-94784328D01*
X128682212Y-94816398D01*
X128698198Y-94850198D01*
X128710794Y-94885402D01*
X128719879Y-94921671D01*
X128725365Y-94958655D01*
X128727200Y-94996000D01*
X128727200Y-95758000D01*
X128725365Y-95795345D01*
X128719879Y-95832329D01*
X128710794Y-95868598D01*
X128698198Y-95903802D01*
X128682212Y-95937602D01*
X128662990Y-95969672D01*
X128640717Y-95999704D01*
X128615608Y-96027408D01*
X128587904Y-96052517D01*
X128557872Y-96074790D01*
X128525802Y-96094012D01*
X128492002Y-96109998D01*
X128456798Y-96122594D01*
X128420529Y-96131679D01*
X128383545Y-96137165D01*
X128346200Y-96139000D01*
X127584200Y-96139000D01*
X127546855Y-96137165D01*
X127509871Y-96131679D01*
X127473602Y-96122594D01*
X127438398Y-96109998D01*
X127404598Y-96094012D01*
X127372528Y-96074790D01*
X127342496Y-96052517D01*
X127314792Y-96027408D01*
X127289683Y-95999704D01*
X127267410Y-95969672D01*
X127248188Y-95937602D01*
X127232202Y-95903802D01*
X127219606Y-95868598D01*
X127210521Y-95832329D01*
X127205035Y-95795345D01*
X127203200Y-95758000D01*
X127203200Y-94996000D01*
X127205035Y-94958655D01*
X127210521Y-94921671D01*
X127219606Y-94885402D01*
X127232202Y-94850198D01*
X127248188Y-94816398D01*
X127267410Y-94784328D01*
X127289683Y-94754296D01*
X127314792Y-94726592D01*
X127342496Y-94701483D01*
X127372528Y-94679210D01*
X127404598Y-94659988D01*
X127438398Y-94644002D01*
X127473602Y-94631406D01*
X127509871Y-94622321D01*
X127546855Y-94616835D01*
X127584200Y-94615000D01*
X128346200Y-94615000D01*
X128383545Y-94616835D01*
G37*
G36*
X128383545Y-92153035D02*
G01*
X128420529Y-92158521D01*
X128456798Y-92167606D01*
X128492002Y-92180202D01*
X128525802Y-92196188D01*
X128557872Y-92215410D01*
X128587904Y-92237683D01*
X128615608Y-92262792D01*
X128640717Y-92290496D01*
X128662990Y-92320528D01*
X128682212Y-92352598D01*
X128698198Y-92386398D01*
X128710794Y-92421602D01*
X128719879Y-92457871D01*
X128725365Y-92494855D01*
X128727200Y-92532200D01*
X128727200Y-93294200D01*
X128725365Y-93331545D01*
X128719879Y-93368529D01*
X128710794Y-93404798D01*
X128698198Y-93440002D01*
X128682212Y-93473802D01*
X128662990Y-93505872D01*
X128640717Y-93535904D01*
X128615608Y-93563608D01*
X128587904Y-93588717D01*
X128557872Y-93610990D01*
X128525802Y-93630212D01*
X128492002Y-93646198D01*
X128456798Y-93658794D01*
X128420529Y-93667879D01*
X128383545Y-93673365D01*
X128346200Y-93675200D01*
X127584200Y-93675200D01*
X127546855Y-93673365D01*
X127509871Y-93667879D01*
X127473602Y-93658794D01*
X127438398Y-93646198D01*
X127404598Y-93630212D01*
X127372528Y-93610990D01*
X127342496Y-93588717D01*
X127314792Y-93563608D01*
X127289683Y-93535904D01*
X127267410Y-93505872D01*
X127248188Y-93473802D01*
X127232202Y-93440002D01*
X127219606Y-93404798D01*
X127210521Y-93368529D01*
X127205035Y-93331545D01*
X127203200Y-93294200D01*
X127203200Y-92532200D01*
X127205035Y-92494855D01*
X127210521Y-92457871D01*
X127219606Y-92421602D01*
X127232202Y-92386398D01*
X127248188Y-92352598D01*
X127267410Y-92320528D01*
X127289683Y-92290496D01*
X127314792Y-92262792D01*
X127342496Y-92237683D01*
X127372528Y-92215410D01*
X127404598Y-92196188D01*
X127438398Y-92180202D01*
X127473602Y-92167606D01*
X127509871Y-92158521D01*
X127546855Y-92153035D01*
X127584200Y-92151200D01*
X128346200Y-92151200D01*
X128383545Y-92153035D01*
G37*
G36*
X128358145Y-89663835D02*
G01*
X128395129Y-89669321D01*
X128431398Y-89678406D01*
X128466602Y-89691002D01*
X128500402Y-89706988D01*
X128532472Y-89726210D01*
X128562504Y-89748483D01*
X128590208Y-89773592D01*
X128615317Y-89801296D01*
X128637590Y-89831328D01*
X128656812Y-89863398D01*
X128672798Y-89897198D01*
X128685394Y-89932402D01*
X128694479Y-89968671D01*
X128699965Y-90005655D01*
X128701800Y-90043000D01*
X128701800Y-90805000D01*
X128699965Y-90842345D01*
X128694479Y-90879329D01*
X128685394Y-90915598D01*
X128672798Y-90950802D01*
X128656812Y-90984602D01*
X128637590Y-91016672D01*
X128615317Y-91046704D01*
X128590208Y-91074408D01*
X128562504Y-91099517D01*
X128532472Y-91121790D01*
X128500402Y-91141012D01*
X128466602Y-91156998D01*
X128431398Y-91169594D01*
X128395129Y-91178679D01*
X128358145Y-91184165D01*
X128320800Y-91186000D01*
X127558800Y-91186000D01*
X127521455Y-91184165D01*
X127484471Y-91178679D01*
X127448202Y-91169594D01*
X127412998Y-91156998D01*
X127379198Y-91141012D01*
X127347128Y-91121790D01*
X127317096Y-91099517D01*
X127289392Y-91074408D01*
X127264283Y-91046704D01*
X127242010Y-91016672D01*
X127222788Y-90984602D01*
X127206802Y-90950802D01*
X127194206Y-90915598D01*
X127185121Y-90879329D01*
X127179635Y-90842345D01*
X127177800Y-90805000D01*
X127177800Y-90043000D01*
X127179635Y-90005655D01*
X127185121Y-89968671D01*
X127194206Y-89932402D01*
X127206802Y-89897198D01*
X127222788Y-89863398D01*
X127242010Y-89831328D01*
X127264283Y-89801296D01*
X127289392Y-89773592D01*
X127317096Y-89748483D01*
X127347128Y-89726210D01*
X127379198Y-89706988D01*
X127412998Y-89691002D01*
X127448202Y-89678406D01*
X127484471Y-89669321D01*
X127521455Y-89663835D01*
X127558800Y-89662000D01*
X128320800Y-89662000D01*
X128358145Y-89663835D01*
G37*
G36*
X128358145Y-87098435D02*
G01*
X128395129Y-87103921D01*
X128431398Y-87113006D01*
X128466602Y-87125602D01*
X128500402Y-87141588D01*
X128532472Y-87160810D01*
X128562504Y-87183083D01*
X128590208Y-87208192D01*
X128615317Y-87235896D01*
X128637590Y-87265928D01*
X128656812Y-87297998D01*
X128672798Y-87331798D01*
X128685394Y-87367002D01*
X128694479Y-87403271D01*
X128699965Y-87440255D01*
X128701800Y-87477600D01*
X128701800Y-88239600D01*
X128699965Y-88276945D01*
X128694479Y-88313929D01*
X128685394Y-88350198D01*
X128672798Y-88385402D01*
X128656812Y-88419202D01*
X128637590Y-88451272D01*
X128615317Y-88481304D01*
X128590208Y-88509008D01*
X128562504Y-88534117D01*
X128532472Y-88556390D01*
X128500402Y-88575612D01*
X128466602Y-88591598D01*
X128431398Y-88604194D01*
X128395129Y-88613279D01*
X128358145Y-88618765D01*
X128320800Y-88620600D01*
X127558800Y-88620600D01*
X127521455Y-88618765D01*
X127484471Y-88613279D01*
X127448202Y-88604194D01*
X127412998Y-88591598D01*
X127379198Y-88575612D01*
X127347128Y-88556390D01*
X127317096Y-88534117D01*
X127289392Y-88509008D01*
X127264283Y-88481304D01*
X127242010Y-88451272D01*
X127222788Y-88419202D01*
X127206802Y-88385402D01*
X127194206Y-88350198D01*
X127185121Y-88313929D01*
X127179635Y-88276945D01*
X127177800Y-88239600D01*
X127177800Y-87477600D01*
X127179635Y-87440255D01*
X127185121Y-87403271D01*
X127194206Y-87367002D01*
X127206802Y-87331798D01*
X127222788Y-87297998D01*
X127242010Y-87265928D01*
X127264283Y-87235896D01*
X127289392Y-87208192D01*
X127317096Y-87183083D01*
X127347128Y-87160810D01*
X127379198Y-87141588D01*
X127412998Y-87125602D01*
X127448202Y-87113006D01*
X127484471Y-87103921D01*
X127521455Y-87098435D01*
X127558800Y-87096600D01*
X128320800Y-87096600D01*
X128358145Y-87098435D01*
G37*
G36*
X128358145Y-84660035D02*
G01*
X128395129Y-84665521D01*
X128431398Y-84674606D01*
X128466602Y-84687202D01*
X128500402Y-84703188D01*
X128532472Y-84722410D01*
X128562504Y-84744683D01*
X128590208Y-84769792D01*
X128615317Y-84797496D01*
X128637590Y-84827528D01*
X128656812Y-84859598D01*
X128672798Y-84893398D01*
X128685394Y-84928602D01*
X128694479Y-84964871D01*
X128699965Y-85001855D01*
X128701800Y-85039200D01*
X128701800Y-85801200D01*
X128699965Y-85838545D01*
X128694479Y-85875529D01*
X128685394Y-85911798D01*
X128672798Y-85947002D01*
X128656812Y-85980802D01*
X128637590Y-86012872D01*
X128615317Y-86042904D01*
X128590208Y-86070608D01*
X128562504Y-86095717D01*
X128532472Y-86117990D01*
X128500402Y-86137212D01*
X128466602Y-86153198D01*
X128431398Y-86165794D01*
X128395129Y-86174879D01*
X128358145Y-86180365D01*
X128320800Y-86182200D01*
X127558800Y-86182200D01*
X127521455Y-86180365D01*
X127484471Y-86174879D01*
X127448202Y-86165794D01*
X127412998Y-86153198D01*
X127379198Y-86137212D01*
X127347128Y-86117990D01*
X127317096Y-86095717D01*
X127289392Y-86070608D01*
X127264283Y-86042904D01*
X127242010Y-86012872D01*
X127222788Y-85980802D01*
X127206802Y-85947002D01*
X127194206Y-85911798D01*
X127185121Y-85875529D01*
X127179635Y-85838545D01*
X127177800Y-85801200D01*
X127177800Y-85039200D01*
X127179635Y-85001855D01*
X127185121Y-84964871D01*
X127194206Y-84928602D01*
X127206802Y-84893398D01*
X127222788Y-84859598D01*
X127242010Y-84827528D01*
X127264283Y-84797496D01*
X127289392Y-84769792D01*
X127317096Y-84744683D01*
X127347128Y-84722410D01*
X127379198Y-84703188D01*
X127412998Y-84687202D01*
X127448202Y-84674606D01*
X127484471Y-84665521D01*
X127521455Y-84660035D01*
X127558800Y-84658200D01*
X128320800Y-84658200D01*
X128358145Y-84660035D01*
G37*
G36*
X128383545Y-82170835D02*
G01*
X128420529Y-82176321D01*
X128456798Y-82185406D01*
X128492002Y-82198002D01*
X128525802Y-82213988D01*
X128557872Y-82233210D01*
X128587904Y-82255483D01*
X128615608Y-82280592D01*
X128640717Y-82308296D01*
X128662990Y-82338328D01*
X128682212Y-82370398D01*
X128698198Y-82404198D01*
X128710794Y-82439402D01*
X128719879Y-82475671D01*
X128725365Y-82512655D01*
X128727200Y-82550000D01*
X128727200Y-83312000D01*
X128725365Y-83349345D01*
X128719879Y-83386329D01*
X128710794Y-83422598D01*
X128698198Y-83457802D01*
X128682212Y-83491602D01*
X128662990Y-83523672D01*
X128640717Y-83553704D01*
X128615608Y-83581408D01*
X128587904Y-83606517D01*
X128557872Y-83628790D01*
X128525802Y-83648012D01*
X128492002Y-83663998D01*
X128456798Y-83676594D01*
X128420529Y-83685679D01*
X128383545Y-83691165D01*
X128346200Y-83693000D01*
X127584200Y-83693000D01*
X127546855Y-83691165D01*
X127509871Y-83685679D01*
X127473602Y-83676594D01*
X127438398Y-83663998D01*
X127404598Y-83648012D01*
X127372528Y-83628790D01*
X127342496Y-83606517D01*
X127314792Y-83581408D01*
X127289683Y-83553704D01*
X127267410Y-83523672D01*
X127248188Y-83491602D01*
X127232202Y-83457802D01*
X127219606Y-83422598D01*
X127210521Y-83386329D01*
X127205035Y-83349345D01*
X127203200Y-83312000D01*
X127203200Y-82550000D01*
X127205035Y-82512655D01*
X127210521Y-82475671D01*
X127219606Y-82439402D01*
X127232202Y-82404198D01*
X127248188Y-82370398D01*
X127267410Y-82338328D01*
X127289683Y-82308296D01*
X127314792Y-82280592D01*
X127342496Y-82255483D01*
X127372528Y-82233210D01*
X127404598Y-82213988D01*
X127438398Y-82198002D01*
X127473602Y-82185406D01*
X127509871Y-82176321D01*
X127546855Y-82170835D01*
X127584200Y-82169000D01*
X128346200Y-82169000D01*
X128383545Y-82170835D01*
G37*
G36*
X128383545Y-79630835D02*
G01*
X128420529Y-79636321D01*
X128456798Y-79645406D01*
X128492002Y-79658002D01*
X128525802Y-79673988D01*
X128557872Y-79693210D01*
X128587904Y-79715483D01*
X128615608Y-79740592D01*
X128640717Y-79768296D01*
X128662990Y-79798328D01*
X128682212Y-79830398D01*
X128698198Y-79864198D01*
X128710794Y-79899402D01*
X128719879Y-79935671D01*
X128725365Y-79972655D01*
X128727200Y-80010000D01*
X128727200Y-80772000D01*
X128725365Y-80809345D01*
X128719879Y-80846329D01*
X128710794Y-80882598D01*
X128698198Y-80917802D01*
X128682212Y-80951602D01*
X128662990Y-80983672D01*
X128640717Y-81013704D01*
X128615608Y-81041408D01*
X128587904Y-81066517D01*
X128557872Y-81088790D01*
X128525802Y-81108012D01*
X128492002Y-81123998D01*
X128456798Y-81136594D01*
X128420529Y-81145679D01*
X128383545Y-81151165D01*
X128346200Y-81153000D01*
X127584200Y-81153000D01*
X127546855Y-81151165D01*
X127509871Y-81145679D01*
X127473602Y-81136594D01*
X127438398Y-81123998D01*
X127404598Y-81108012D01*
X127372528Y-81088790D01*
X127342496Y-81066517D01*
X127314792Y-81041408D01*
X127289683Y-81013704D01*
X127267410Y-80983672D01*
X127248188Y-80951602D01*
X127232202Y-80917802D01*
X127219606Y-80882598D01*
X127210521Y-80846329D01*
X127205035Y-80809345D01*
X127203200Y-80772000D01*
X127203200Y-80010000D01*
X127205035Y-79972655D01*
X127210521Y-79935671D01*
X127219606Y-79899402D01*
X127232202Y-79864198D01*
X127248188Y-79830398D01*
X127267410Y-79798328D01*
X127289683Y-79768296D01*
X127314792Y-79740592D01*
X127342496Y-79715483D01*
X127372528Y-79693210D01*
X127404598Y-79673988D01*
X127438398Y-79658002D01*
X127473602Y-79645406D01*
X127509871Y-79636321D01*
X127546855Y-79630835D01*
X127584200Y-79629000D01*
X128346200Y-79629000D01*
X128383545Y-79630835D01*
G37*
G36*
X128383545Y-77090835D02*
G01*
X128420529Y-77096321D01*
X128456798Y-77105406D01*
X128492002Y-77118002D01*
X128525802Y-77133988D01*
X128557872Y-77153210D01*
X128587904Y-77175483D01*
X128615608Y-77200592D01*
X128640717Y-77228296D01*
X128662990Y-77258328D01*
X128682212Y-77290398D01*
X128698198Y-77324198D01*
X128710794Y-77359402D01*
X128719879Y-77395671D01*
X128725365Y-77432655D01*
X128727200Y-77470000D01*
X128727200Y-78232000D01*
X128725365Y-78269345D01*
X128719879Y-78306329D01*
X128710794Y-78342598D01*
X128698198Y-78377802D01*
X128682212Y-78411602D01*
X128662990Y-78443672D01*
X128640717Y-78473704D01*
X128615608Y-78501408D01*
X128587904Y-78526517D01*
X128557872Y-78548790D01*
X128525802Y-78568012D01*
X128492002Y-78583998D01*
X128456798Y-78596594D01*
X128420529Y-78605679D01*
X128383545Y-78611165D01*
X128346200Y-78613000D01*
X127584200Y-78613000D01*
X127546855Y-78611165D01*
X127509871Y-78605679D01*
X127473602Y-78596594D01*
X127438398Y-78583998D01*
X127404598Y-78568012D01*
X127372528Y-78548790D01*
X127342496Y-78526517D01*
X127314792Y-78501408D01*
X127289683Y-78473704D01*
X127267410Y-78443672D01*
X127248188Y-78411602D01*
X127232202Y-78377802D01*
X127219606Y-78342598D01*
X127210521Y-78306329D01*
X127205035Y-78269345D01*
X127203200Y-78232000D01*
X127203200Y-77470000D01*
X127205035Y-77432655D01*
X127210521Y-77395671D01*
X127219606Y-77359402D01*
X127232202Y-77324198D01*
X127248188Y-77290398D01*
X127267410Y-77258328D01*
X127289683Y-77228296D01*
X127314792Y-77200592D01*
X127342496Y-77175483D01*
X127372528Y-77153210D01*
X127404598Y-77133988D01*
X127438398Y-77118002D01*
X127473602Y-77105406D01*
X127509871Y-77096321D01*
X127546855Y-77090835D01*
X127584200Y-77089000D01*
X128346200Y-77089000D01*
X128383545Y-77090835D01*
G37*
G36*
X128383545Y-74627035D02*
G01*
X128420529Y-74632521D01*
X128456798Y-74641606D01*
X128492002Y-74654202D01*
X128525802Y-74670188D01*
X128557872Y-74689410D01*
X128587904Y-74711683D01*
X128615608Y-74736792D01*
X128640717Y-74764496D01*
X128662990Y-74794528D01*
X128682212Y-74826598D01*
X128698198Y-74860398D01*
X128710794Y-74895602D01*
X128719879Y-74931871D01*
X128725365Y-74968855D01*
X128727200Y-75006200D01*
X128727200Y-75768200D01*
X128725365Y-75805545D01*
X128719879Y-75842529D01*
X128710794Y-75878798D01*
X128698198Y-75914002D01*
X128682212Y-75947802D01*
X128662990Y-75979872D01*
X128640717Y-76009904D01*
X128615608Y-76037608D01*
X128587904Y-76062717D01*
X128557872Y-76084990D01*
X128525802Y-76104212D01*
X128492002Y-76120198D01*
X128456798Y-76132794D01*
X128420529Y-76141879D01*
X128383545Y-76147365D01*
X128346200Y-76149200D01*
X127584200Y-76149200D01*
X127546855Y-76147365D01*
X127509871Y-76141879D01*
X127473602Y-76132794D01*
X127438398Y-76120198D01*
X127404598Y-76104212D01*
X127372528Y-76084990D01*
X127342496Y-76062717D01*
X127314792Y-76037608D01*
X127289683Y-76009904D01*
X127267410Y-75979872D01*
X127248188Y-75947802D01*
X127232202Y-75914002D01*
X127219606Y-75878798D01*
X127210521Y-75842529D01*
X127205035Y-75805545D01*
X127203200Y-75768200D01*
X127203200Y-75006200D01*
X127205035Y-74968855D01*
X127210521Y-74931871D01*
X127219606Y-74895602D01*
X127232202Y-74860398D01*
X127248188Y-74826598D01*
X127267410Y-74794528D01*
X127289683Y-74764496D01*
X127314792Y-74736792D01*
X127342496Y-74711683D01*
X127372528Y-74689410D01*
X127404598Y-74670188D01*
X127438398Y-74654202D01*
X127473602Y-74641606D01*
X127509871Y-74632521D01*
X127546855Y-74627035D01*
X127584200Y-74625200D01*
X128346200Y-74625200D01*
X128383545Y-74627035D01*
G37*
G36*
X128383545Y-72214035D02*
G01*
X128420529Y-72219521D01*
X128456798Y-72228606D01*
X128492002Y-72241202D01*
X128525802Y-72257188D01*
X128557872Y-72276410D01*
X128587904Y-72298683D01*
X128615608Y-72323792D01*
X128640717Y-72351496D01*
X128662990Y-72381528D01*
X128682212Y-72413598D01*
X128698198Y-72447398D01*
X128710794Y-72482602D01*
X128719879Y-72518871D01*
X128725365Y-72555855D01*
X128727200Y-72593200D01*
X128727200Y-73355200D01*
X128725365Y-73392545D01*
X128719879Y-73429529D01*
X128710794Y-73465798D01*
X128698198Y-73501002D01*
X128682212Y-73534802D01*
X128662990Y-73566872D01*
X128640717Y-73596904D01*
X128615608Y-73624608D01*
X128587904Y-73649717D01*
X128557872Y-73671990D01*
X128525802Y-73691212D01*
X128492002Y-73707198D01*
X128456798Y-73719794D01*
X128420529Y-73728879D01*
X128383545Y-73734365D01*
X128346200Y-73736200D01*
X127584200Y-73736200D01*
X127546855Y-73734365D01*
X127509871Y-73728879D01*
X127473602Y-73719794D01*
X127438398Y-73707198D01*
X127404598Y-73691212D01*
X127372528Y-73671990D01*
X127342496Y-73649717D01*
X127314792Y-73624608D01*
X127289683Y-73596904D01*
X127267410Y-73566872D01*
X127248188Y-73534802D01*
X127232202Y-73501002D01*
X127219606Y-73465798D01*
X127210521Y-73429529D01*
X127205035Y-73392545D01*
X127203200Y-73355200D01*
X127203200Y-72593200D01*
X127205035Y-72555855D01*
X127210521Y-72518871D01*
X127219606Y-72482602D01*
X127232202Y-72447398D01*
X127248188Y-72413598D01*
X127267410Y-72381528D01*
X127289683Y-72351496D01*
X127314792Y-72323792D01*
X127342496Y-72298683D01*
X127372528Y-72276410D01*
X127404598Y-72257188D01*
X127438398Y-72241202D01*
X127473602Y-72228606D01*
X127509871Y-72219521D01*
X127546855Y-72214035D01*
X127584200Y-72212200D01*
X128346200Y-72212200D01*
X128383545Y-72214035D01*
G37*
G36*
X128383545Y-69648635D02*
G01*
X128420529Y-69654121D01*
X128456798Y-69663206D01*
X128492002Y-69675802D01*
X128525802Y-69691788D01*
X128557872Y-69711010D01*
X128587904Y-69733283D01*
X128615608Y-69758392D01*
X128640717Y-69786096D01*
X128662990Y-69816128D01*
X128682212Y-69848198D01*
X128698198Y-69881998D01*
X128710794Y-69917202D01*
X128719879Y-69953471D01*
X128725365Y-69990455D01*
X128727200Y-70027800D01*
X128727200Y-70789800D01*
X128725365Y-70827145D01*
X128719879Y-70864129D01*
X128710794Y-70900398D01*
X128698198Y-70935602D01*
X128682212Y-70969402D01*
X128662990Y-71001472D01*
X128640717Y-71031504D01*
X128615608Y-71059208D01*
X128587904Y-71084317D01*
X128557872Y-71106590D01*
X128525802Y-71125812D01*
X128492002Y-71141798D01*
X128456798Y-71154394D01*
X128420529Y-71163479D01*
X128383545Y-71168965D01*
X128346200Y-71170800D01*
X127584200Y-71170800D01*
X127546855Y-71168965D01*
X127509871Y-71163479D01*
X127473602Y-71154394D01*
X127438398Y-71141798D01*
X127404598Y-71125812D01*
X127372528Y-71106590D01*
X127342496Y-71084317D01*
X127314792Y-71059208D01*
X127289683Y-71031504D01*
X127267410Y-71001472D01*
X127248188Y-70969402D01*
X127232202Y-70935602D01*
X127219606Y-70900398D01*
X127210521Y-70864129D01*
X127205035Y-70827145D01*
X127203200Y-70789800D01*
X127203200Y-70027800D01*
X127205035Y-69990455D01*
X127210521Y-69953471D01*
X127219606Y-69917202D01*
X127232202Y-69881998D01*
X127248188Y-69848198D01*
X127267410Y-69816128D01*
X127289683Y-69786096D01*
X127314792Y-69758392D01*
X127342496Y-69733283D01*
X127372528Y-69711010D01*
X127404598Y-69691788D01*
X127438398Y-69675802D01*
X127473602Y-69663206D01*
X127509871Y-69654121D01*
X127546855Y-69648635D01*
X127584200Y-69646800D01*
X128346200Y-69646800D01*
X128383545Y-69648635D01*
G37*
G36*
X128383545Y-67108635D02*
G01*
X128420529Y-67114121D01*
X128456798Y-67123206D01*
X128492002Y-67135802D01*
X128525802Y-67151788D01*
X128557872Y-67171010D01*
X128587904Y-67193283D01*
X128615608Y-67218392D01*
X128640717Y-67246096D01*
X128662990Y-67276128D01*
X128682212Y-67308198D01*
X128698198Y-67341998D01*
X128710794Y-67377202D01*
X128719879Y-67413471D01*
X128725365Y-67450455D01*
X128727200Y-67487800D01*
X128727200Y-68249800D01*
X128725365Y-68287145D01*
X128719879Y-68324129D01*
X128710794Y-68360398D01*
X128698198Y-68395602D01*
X128682212Y-68429402D01*
X128662990Y-68461472D01*
X128640717Y-68491504D01*
X128615608Y-68519208D01*
X128587904Y-68544317D01*
X128557872Y-68566590D01*
X128525802Y-68585812D01*
X128492002Y-68601798D01*
X128456798Y-68614394D01*
X128420529Y-68623479D01*
X128383545Y-68628965D01*
X128346200Y-68630800D01*
X127584200Y-68630800D01*
X127546855Y-68628965D01*
X127509871Y-68623479D01*
X127473602Y-68614394D01*
X127438398Y-68601798D01*
X127404598Y-68585812D01*
X127372528Y-68566590D01*
X127342496Y-68544317D01*
X127314792Y-68519208D01*
X127289683Y-68491504D01*
X127267410Y-68461472D01*
X127248188Y-68429402D01*
X127232202Y-68395602D01*
X127219606Y-68360398D01*
X127210521Y-68324129D01*
X127205035Y-68287145D01*
X127203200Y-68249800D01*
X127203200Y-67487800D01*
X127205035Y-67450455D01*
X127210521Y-67413471D01*
X127219606Y-67377202D01*
X127232202Y-67341998D01*
X127248188Y-67308198D01*
X127267410Y-67276128D01*
X127289683Y-67246096D01*
X127314792Y-67218392D01*
X127342496Y-67193283D01*
X127372528Y-67171010D01*
X127404598Y-67151788D01*
X127438398Y-67135802D01*
X127473602Y-67123206D01*
X127509871Y-67114121D01*
X127546855Y-67108635D01*
X127584200Y-67106800D01*
X128346200Y-67106800D01*
X128383545Y-67108635D01*
G37*
G36*
X128383545Y-64644835D02*
G01*
X128420529Y-64650321D01*
X128456798Y-64659406D01*
X128492002Y-64672002D01*
X128525802Y-64687988D01*
X128557872Y-64707210D01*
X128587904Y-64729483D01*
X128615608Y-64754592D01*
X128640717Y-64782296D01*
X128662990Y-64812328D01*
X128682212Y-64844398D01*
X128698198Y-64878198D01*
X128710794Y-64913402D01*
X128719879Y-64949671D01*
X128725365Y-64986655D01*
X128727200Y-65024000D01*
X128727200Y-65786000D01*
X128725365Y-65823345D01*
X128719879Y-65860329D01*
X128710794Y-65896598D01*
X128698198Y-65931802D01*
X128682212Y-65965602D01*
X128662990Y-65997672D01*
X128640717Y-66027704D01*
X128615608Y-66055408D01*
X128587904Y-66080517D01*
X128557872Y-66102790D01*
X128525802Y-66122012D01*
X128492002Y-66137998D01*
X128456798Y-66150594D01*
X128420529Y-66159679D01*
X128383545Y-66165165D01*
X128346200Y-66167000D01*
X127584200Y-66167000D01*
X127546855Y-66165165D01*
X127509871Y-66159679D01*
X127473602Y-66150594D01*
X127438398Y-66137998D01*
X127404598Y-66122012D01*
X127372528Y-66102790D01*
X127342496Y-66080517D01*
X127314792Y-66055408D01*
X127289683Y-66027704D01*
X127267410Y-65997672D01*
X127248188Y-65965602D01*
X127232202Y-65931802D01*
X127219606Y-65896598D01*
X127210521Y-65860329D01*
X127205035Y-65823345D01*
X127203200Y-65786000D01*
X127203200Y-65024000D01*
X127205035Y-64986655D01*
X127210521Y-64949671D01*
X127219606Y-64913402D01*
X127232202Y-64878198D01*
X127248188Y-64844398D01*
X127267410Y-64812328D01*
X127289683Y-64782296D01*
X127314792Y-64754592D01*
X127342496Y-64729483D01*
X127372528Y-64707210D01*
X127404598Y-64687988D01*
X127438398Y-64672002D01*
X127473602Y-64659406D01*
X127509871Y-64650321D01*
X127546855Y-64644835D01*
X127584200Y-64643000D01*
X128346200Y-64643000D01*
X128383545Y-64644835D01*
G37*
G36*
X110552745Y-104700635D02*
G01*
X110589729Y-104706121D01*
X110625998Y-104715206D01*
X110661202Y-104727802D01*
X110695002Y-104743788D01*
X110727072Y-104763010D01*
X110757104Y-104785283D01*
X110784808Y-104810392D01*
X110809917Y-104838096D01*
X110832190Y-104868128D01*
X110851412Y-104900198D01*
X110867398Y-104933998D01*
X110879994Y-104969202D01*
X110889079Y-105005471D01*
X110894565Y-105042455D01*
X110896400Y-105079800D01*
X110896400Y-105841800D01*
X110894565Y-105879145D01*
X110889079Y-105916129D01*
X110879994Y-105952398D01*
X110867398Y-105987602D01*
X110851412Y-106021402D01*
X110832190Y-106053472D01*
X110809917Y-106083504D01*
X110784808Y-106111208D01*
X110757104Y-106136317D01*
X110727072Y-106158590D01*
X110695002Y-106177812D01*
X110661202Y-106193798D01*
X110625998Y-106206394D01*
X110589729Y-106215479D01*
X110552745Y-106220965D01*
X110515400Y-106222800D01*
X109753400Y-106222800D01*
X109716055Y-106220965D01*
X109679071Y-106215479D01*
X109642802Y-106206394D01*
X109607598Y-106193798D01*
X109573798Y-106177812D01*
X109541728Y-106158590D01*
X109511696Y-106136317D01*
X109483992Y-106111208D01*
X109458883Y-106083504D01*
X109436610Y-106053472D01*
X109417388Y-106021402D01*
X109401402Y-105987602D01*
X109388806Y-105952398D01*
X109379721Y-105916129D01*
X109374235Y-105879145D01*
X109372400Y-105841800D01*
X109372400Y-105079800D01*
X109374235Y-105042455D01*
X109379721Y-105005471D01*
X109388806Y-104969202D01*
X109401402Y-104933998D01*
X109417388Y-104900198D01*
X109436610Y-104868128D01*
X109458883Y-104838096D01*
X109483992Y-104810392D01*
X109511696Y-104785283D01*
X109541728Y-104763010D01*
X109573798Y-104743788D01*
X109607598Y-104727802D01*
X109642802Y-104715206D01*
X109679071Y-104706121D01*
X109716055Y-104700635D01*
X109753400Y-104698800D01*
X110515400Y-104698800D01*
X110552745Y-104700635D01*
G37*
G36*
X110578145Y-102135235D02*
G01*
X110615129Y-102140721D01*
X110651398Y-102149806D01*
X110686602Y-102162402D01*
X110720402Y-102178388D01*
X110752472Y-102197610D01*
X110782504Y-102219883D01*
X110810208Y-102244992D01*
X110835317Y-102272696D01*
X110857590Y-102302728D01*
X110876812Y-102334798D01*
X110892798Y-102368598D01*
X110905394Y-102403802D01*
X110914479Y-102440071D01*
X110919965Y-102477055D01*
X110921800Y-102514400D01*
X110921800Y-103276400D01*
X110919965Y-103313745D01*
X110914479Y-103350729D01*
X110905394Y-103386998D01*
X110892798Y-103422202D01*
X110876812Y-103456002D01*
X110857590Y-103488072D01*
X110835317Y-103518104D01*
X110810208Y-103545808D01*
X110782504Y-103570917D01*
X110752472Y-103593190D01*
X110720402Y-103612412D01*
X110686602Y-103628398D01*
X110651398Y-103640994D01*
X110615129Y-103650079D01*
X110578145Y-103655565D01*
X110540800Y-103657400D01*
X109778800Y-103657400D01*
X109741455Y-103655565D01*
X109704471Y-103650079D01*
X109668202Y-103640994D01*
X109632998Y-103628398D01*
X109599198Y-103612412D01*
X109567128Y-103593190D01*
X109537096Y-103570917D01*
X109509392Y-103545808D01*
X109484283Y-103518104D01*
X109462010Y-103488072D01*
X109442788Y-103456002D01*
X109426802Y-103422202D01*
X109414206Y-103386998D01*
X109405121Y-103350729D01*
X109399635Y-103313745D01*
X109397800Y-103276400D01*
X109397800Y-102514400D01*
X109399635Y-102477055D01*
X109405121Y-102440071D01*
X109414206Y-102403802D01*
X109426802Y-102368598D01*
X109442788Y-102334798D01*
X109462010Y-102302728D01*
X109484283Y-102272696D01*
X109509392Y-102244992D01*
X109537096Y-102219883D01*
X109567128Y-102197610D01*
X109599198Y-102178388D01*
X109632998Y-102162402D01*
X109668202Y-102149806D01*
X109704471Y-102140721D01*
X109741455Y-102135235D01*
X109778800Y-102133400D01*
X110540800Y-102133400D01*
X110578145Y-102135235D01*
G37*
G36*
X110578145Y-99544435D02*
G01*
X110615129Y-99549921D01*
X110651398Y-99559006D01*
X110686602Y-99571602D01*
X110720402Y-99587588D01*
X110752472Y-99606810D01*
X110782504Y-99629083D01*
X110810208Y-99654192D01*
X110835317Y-99681896D01*
X110857590Y-99711928D01*
X110876812Y-99743998D01*
X110892798Y-99777798D01*
X110905394Y-99813002D01*
X110914479Y-99849271D01*
X110919965Y-99886255D01*
X110921800Y-99923600D01*
X110921800Y-100685600D01*
X110919965Y-100722945D01*
X110914479Y-100759929D01*
X110905394Y-100796198D01*
X110892798Y-100831402D01*
X110876812Y-100865202D01*
X110857590Y-100897272D01*
X110835317Y-100927304D01*
X110810208Y-100955008D01*
X110782504Y-100980117D01*
X110752472Y-101002390D01*
X110720402Y-101021612D01*
X110686602Y-101037598D01*
X110651398Y-101050194D01*
X110615129Y-101059279D01*
X110578145Y-101064765D01*
X110540800Y-101066600D01*
X109778800Y-101066600D01*
X109741455Y-101064765D01*
X109704471Y-101059279D01*
X109668202Y-101050194D01*
X109632998Y-101037598D01*
X109599198Y-101021612D01*
X109567128Y-101002390D01*
X109537096Y-100980117D01*
X109509392Y-100955008D01*
X109484283Y-100927304D01*
X109462010Y-100897272D01*
X109442788Y-100865202D01*
X109426802Y-100831402D01*
X109414206Y-100796198D01*
X109405121Y-100759929D01*
X109399635Y-100722945D01*
X109397800Y-100685600D01*
X109397800Y-99923600D01*
X109399635Y-99886255D01*
X109405121Y-99849271D01*
X109414206Y-99813002D01*
X109426802Y-99777798D01*
X109442788Y-99743998D01*
X109462010Y-99711928D01*
X109484283Y-99681896D01*
X109509392Y-99654192D01*
X109537096Y-99629083D01*
X109567128Y-99606810D01*
X109599198Y-99587588D01*
X109632998Y-99571602D01*
X109668202Y-99559006D01*
X109704471Y-99549921D01*
X109741455Y-99544435D01*
X109778800Y-99542600D01*
X110540800Y-99542600D01*
X110578145Y-99544435D01*
G37*
G36*
X110578145Y-97004435D02*
G01*
X110615129Y-97009921D01*
X110651398Y-97019006D01*
X110686602Y-97031602D01*
X110720402Y-97047588D01*
X110752472Y-97066810D01*
X110782504Y-97089083D01*
X110810208Y-97114192D01*
X110835317Y-97141896D01*
X110857590Y-97171928D01*
X110876812Y-97203998D01*
X110892798Y-97237798D01*
X110905394Y-97273002D01*
X110914479Y-97309271D01*
X110919965Y-97346255D01*
X110921800Y-97383600D01*
X110921800Y-98145600D01*
X110919965Y-98182945D01*
X110914479Y-98219929D01*
X110905394Y-98256198D01*
X110892798Y-98291402D01*
X110876812Y-98325202D01*
X110857590Y-98357272D01*
X110835317Y-98387304D01*
X110810208Y-98415008D01*
X110782504Y-98440117D01*
X110752472Y-98462390D01*
X110720402Y-98481612D01*
X110686602Y-98497598D01*
X110651398Y-98510194D01*
X110615129Y-98519279D01*
X110578145Y-98524765D01*
X110540800Y-98526600D01*
X109778800Y-98526600D01*
X109741455Y-98524765D01*
X109704471Y-98519279D01*
X109668202Y-98510194D01*
X109632998Y-98497598D01*
X109599198Y-98481612D01*
X109567128Y-98462390D01*
X109537096Y-98440117D01*
X109509392Y-98415008D01*
X109484283Y-98387304D01*
X109462010Y-98357272D01*
X109442788Y-98325202D01*
X109426802Y-98291402D01*
X109414206Y-98256198D01*
X109405121Y-98219929D01*
X109399635Y-98182945D01*
X109397800Y-98145600D01*
X109397800Y-97383600D01*
X109399635Y-97346255D01*
X109405121Y-97309271D01*
X109414206Y-97273002D01*
X109426802Y-97237798D01*
X109442788Y-97203998D01*
X109462010Y-97171928D01*
X109484283Y-97141896D01*
X109509392Y-97114192D01*
X109537096Y-97089083D01*
X109567128Y-97066810D01*
X109599198Y-97047588D01*
X109632998Y-97031602D01*
X109668202Y-97019006D01*
X109704471Y-97009921D01*
X109741455Y-97004435D01*
X109778800Y-97002600D01*
X110540800Y-97002600D01*
X110578145Y-97004435D01*
G37*
G36*
X110603545Y-94566035D02*
G01*
X110640529Y-94571521D01*
X110676798Y-94580606D01*
X110712002Y-94593202D01*
X110745802Y-94609188D01*
X110777872Y-94628410D01*
X110807904Y-94650683D01*
X110835608Y-94675792D01*
X110860717Y-94703496D01*
X110882990Y-94733528D01*
X110902212Y-94765598D01*
X110918198Y-94799398D01*
X110930794Y-94834602D01*
X110939879Y-94870871D01*
X110945365Y-94907855D01*
X110947200Y-94945200D01*
X110947200Y-95707200D01*
X110945365Y-95744545D01*
X110939879Y-95781529D01*
X110930794Y-95817798D01*
X110918198Y-95853002D01*
X110902212Y-95886802D01*
X110882990Y-95918872D01*
X110860717Y-95948904D01*
X110835608Y-95976608D01*
X110807904Y-96001717D01*
X110777872Y-96023990D01*
X110745802Y-96043212D01*
X110712002Y-96059198D01*
X110676798Y-96071794D01*
X110640529Y-96080879D01*
X110603545Y-96086365D01*
X110566200Y-96088200D01*
X109804200Y-96088200D01*
X109766855Y-96086365D01*
X109729871Y-96080879D01*
X109693602Y-96071794D01*
X109658398Y-96059198D01*
X109624598Y-96043212D01*
X109592528Y-96023990D01*
X109562496Y-96001717D01*
X109534792Y-95976608D01*
X109509683Y-95948904D01*
X109487410Y-95918872D01*
X109468188Y-95886802D01*
X109452202Y-95853002D01*
X109439606Y-95817798D01*
X109430521Y-95781529D01*
X109425035Y-95744545D01*
X109423200Y-95707200D01*
X109423200Y-94945200D01*
X109425035Y-94907855D01*
X109430521Y-94870871D01*
X109439606Y-94834602D01*
X109452202Y-94799398D01*
X109468188Y-94765598D01*
X109487410Y-94733528D01*
X109509683Y-94703496D01*
X109534792Y-94675792D01*
X109562496Y-94650683D01*
X109592528Y-94628410D01*
X109624598Y-94609188D01*
X109658398Y-94593202D01*
X109693602Y-94580606D01*
X109729871Y-94571521D01*
X109766855Y-94566035D01*
X109804200Y-94564200D01*
X110566200Y-94564200D01*
X110603545Y-94566035D01*
G37*
G36*
X110552745Y-92280035D02*
G01*
X110589729Y-92285521D01*
X110625998Y-92294606D01*
X110661202Y-92307202D01*
X110695002Y-92323188D01*
X110727072Y-92342410D01*
X110757104Y-92364683D01*
X110784808Y-92389792D01*
X110809917Y-92417496D01*
X110832190Y-92447528D01*
X110851412Y-92479598D01*
X110867398Y-92513398D01*
X110879994Y-92548602D01*
X110889079Y-92584871D01*
X110894565Y-92621855D01*
X110896400Y-92659200D01*
X110896400Y-93421200D01*
X110894565Y-93458545D01*
X110889079Y-93495529D01*
X110879994Y-93531798D01*
X110867398Y-93567002D01*
X110851412Y-93600802D01*
X110832190Y-93632872D01*
X110809917Y-93662904D01*
X110784808Y-93690608D01*
X110757104Y-93715717D01*
X110727072Y-93737990D01*
X110695002Y-93757212D01*
X110661202Y-93773198D01*
X110625998Y-93785794D01*
X110589729Y-93794879D01*
X110552745Y-93800365D01*
X110515400Y-93802200D01*
X109753400Y-93802200D01*
X109716055Y-93800365D01*
X109679071Y-93794879D01*
X109642802Y-93785794D01*
X109607598Y-93773198D01*
X109573798Y-93757212D01*
X109541728Y-93737990D01*
X109511696Y-93715717D01*
X109483992Y-93690608D01*
X109458883Y-93662904D01*
X109436610Y-93632872D01*
X109417388Y-93600802D01*
X109401402Y-93567002D01*
X109388806Y-93531798D01*
X109379721Y-93495529D01*
X109374235Y-93458545D01*
X109372400Y-93421200D01*
X109372400Y-92659200D01*
X109374235Y-92621855D01*
X109379721Y-92584871D01*
X109388806Y-92548602D01*
X109401402Y-92513398D01*
X109417388Y-92479598D01*
X109436610Y-92447528D01*
X109458883Y-92417496D01*
X109483992Y-92389792D01*
X109511696Y-92364683D01*
X109541728Y-92342410D01*
X109573798Y-92323188D01*
X109607598Y-92307202D01*
X109642802Y-92294606D01*
X109679071Y-92285521D01*
X109716055Y-92280035D01*
X109753400Y-92278200D01*
X110515400Y-92278200D01*
X110552745Y-92280035D01*
G37*
G36*
X110552745Y-89740035D02*
G01*
X110589729Y-89745521D01*
X110625998Y-89754606D01*
X110661202Y-89767202D01*
X110695002Y-89783188D01*
X110727072Y-89802410D01*
X110757104Y-89824683D01*
X110784808Y-89849792D01*
X110809917Y-89877496D01*
X110832190Y-89907528D01*
X110851412Y-89939598D01*
X110867398Y-89973398D01*
X110879994Y-90008602D01*
X110889079Y-90044871D01*
X110894565Y-90081855D01*
X110896400Y-90119200D01*
X110896400Y-90881200D01*
X110894565Y-90918545D01*
X110889079Y-90955529D01*
X110879994Y-90991798D01*
X110867398Y-91027002D01*
X110851412Y-91060802D01*
X110832190Y-91092872D01*
X110809917Y-91122904D01*
X110784808Y-91150608D01*
X110757104Y-91175717D01*
X110727072Y-91197990D01*
X110695002Y-91217212D01*
X110661202Y-91233198D01*
X110625998Y-91245794D01*
X110589729Y-91254879D01*
X110552745Y-91260365D01*
X110515400Y-91262200D01*
X109753400Y-91262200D01*
X109716055Y-91260365D01*
X109679071Y-91254879D01*
X109642802Y-91245794D01*
X109607598Y-91233198D01*
X109573798Y-91217212D01*
X109541728Y-91197990D01*
X109511696Y-91175717D01*
X109483992Y-91150608D01*
X109458883Y-91122904D01*
X109436610Y-91092872D01*
X109417388Y-91060802D01*
X109401402Y-91027002D01*
X109388806Y-90991798D01*
X109379721Y-90955529D01*
X109374235Y-90918545D01*
X109372400Y-90881200D01*
X109372400Y-90119200D01*
X109374235Y-90081855D01*
X109379721Y-90044871D01*
X109388806Y-90008602D01*
X109401402Y-89973398D01*
X109417388Y-89939598D01*
X109436610Y-89907528D01*
X109458883Y-89877496D01*
X109483992Y-89849792D01*
X109511696Y-89824683D01*
X109541728Y-89802410D01*
X109573798Y-89783188D01*
X109607598Y-89767202D01*
X109642802Y-89754606D01*
X109679071Y-89745521D01*
X109716055Y-89740035D01*
X109753400Y-89738200D01*
X110515400Y-89738200D01*
X110552745Y-89740035D01*
G37*
G36*
X110552745Y-87200035D02*
G01*
X110589729Y-87205521D01*
X110625998Y-87214606D01*
X110661202Y-87227202D01*
X110695002Y-87243188D01*
X110727072Y-87262410D01*
X110757104Y-87284683D01*
X110784808Y-87309792D01*
X110809917Y-87337496D01*
X110832190Y-87367528D01*
X110851412Y-87399598D01*
X110867398Y-87433398D01*
X110879994Y-87468602D01*
X110889079Y-87504871D01*
X110894565Y-87541855D01*
X110896400Y-87579200D01*
X110896400Y-88341200D01*
X110894565Y-88378545D01*
X110889079Y-88415529D01*
X110879994Y-88451798D01*
X110867398Y-88487002D01*
X110851412Y-88520802D01*
X110832190Y-88552872D01*
X110809917Y-88582904D01*
X110784808Y-88610608D01*
X110757104Y-88635717D01*
X110727072Y-88657990D01*
X110695002Y-88677212D01*
X110661202Y-88693198D01*
X110625998Y-88705794D01*
X110589729Y-88714879D01*
X110552745Y-88720365D01*
X110515400Y-88722200D01*
X109753400Y-88722200D01*
X109716055Y-88720365D01*
X109679071Y-88714879D01*
X109642802Y-88705794D01*
X109607598Y-88693198D01*
X109573798Y-88677212D01*
X109541728Y-88657990D01*
X109511696Y-88635717D01*
X109483992Y-88610608D01*
X109458883Y-88582904D01*
X109436610Y-88552872D01*
X109417388Y-88520802D01*
X109401402Y-88487002D01*
X109388806Y-88451798D01*
X109379721Y-88415529D01*
X109374235Y-88378545D01*
X109372400Y-88341200D01*
X109372400Y-87579200D01*
X109374235Y-87541855D01*
X109379721Y-87504871D01*
X109388806Y-87468602D01*
X109401402Y-87433398D01*
X109417388Y-87399598D01*
X109436610Y-87367528D01*
X109458883Y-87337496D01*
X109483992Y-87309792D01*
X109511696Y-87284683D01*
X109541728Y-87262410D01*
X109573798Y-87243188D01*
X109607598Y-87227202D01*
X109642802Y-87214606D01*
X109679071Y-87205521D01*
X109716055Y-87200035D01*
X109753400Y-87198200D01*
X110515400Y-87198200D01*
X110552745Y-87200035D01*
G37*
G36*
X110578145Y-84710835D02*
G01*
X110615129Y-84716321D01*
X110651398Y-84725406D01*
X110686602Y-84738002D01*
X110720402Y-84753988D01*
X110752472Y-84773210D01*
X110782504Y-84795483D01*
X110810208Y-84820592D01*
X110835317Y-84848296D01*
X110857590Y-84878328D01*
X110876812Y-84910398D01*
X110892798Y-84944198D01*
X110905394Y-84979402D01*
X110914479Y-85015671D01*
X110919965Y-85052655D01*
X110921800Y-85090000D01*
X110921800Y-85852000D01*
X110919965Y-85889345D01*
X110914479Y-85926329D01*
X110905394Y-85962598D01*
X110892798Y-85997802D01*
X110876812Y-86031602D01*
X110857590Y-86063672D01*
X110835317Y-86093704D01*
X110810208Y-86121408D01*
X110782504Y-86146517D01*
X110752472Y-86168790D01*
X110720402Y-86188012D01*
X110686602Y-86203998D01*
X110651398Y-86216594D01*
X110615129Y-86225679D01*
X110578145Y-86231165D01*
X110540800Y-86233000D01*
X109778800Y-86233000D01*
X109741455Y-86231165D01*
X109704471Y-86225679D01*
X109668202Y-86216594D01*
X109632998Y-86203998D01*
X109599198Y-86188012D01*
X109567128Y-86168790D01*
X109537096Y-86146517D01*
X109509392Y-86121408D01*
X109484283Y-86093704D01*
X109462010Y-86063672D01*
X109442788Y-86031602D01*
X109426802Y-85997802D01*
X109414206Y-85962598D01*
X109405121Y-85926329D01*
X109399635Y-85889345D01*
X109397800Y-85852000D01*
X109397800Y-85090000D01*
X109399635Y-85052655D01*
X109405121Y-85015671D01*
X109414206Y-84979402D01*
X109426802Y-84944198D01*
X109442788Y-84910398D01*
X109462010Y-84878328D01*
X109484283Y-84848296D01*
X109509392Y-84820592D01*
X109537096Y-84795483D01*
X109567128Y-84773210D01*
X109599198Y-84753988D01*
X109632998Y-84738002D01*
X109668202Y-84725406D01*
X109704471Y-84716321D01*
X109741455Y-84710835D01*
X109778800Y-84709000D01*
X110540800Y-84709000D01*
X110578145Y-84710835D01*
G37*
G36*
X110603545Y-82120035D02*
G01*
X110640529Y-82125521D01*
X110676798Y-82134606D01*
X110712002Y-82147202D01*
X110745802Y-82163188D01*
X110777872Y-82182410D01*
X110807904Y-82204683D01*
X110835608Y-82229792D01*
X110860717Y-82257496D01*
X110882990Y-82287528D01*
X110902212Y-82319598D01*
X110918198Y-82353398D01*
X110930794Y-82388602D01*
X110939879Y-82424871D01*
X110945365Y-82461855D01*
X110947200Y-82499200D01*
X110947200Y-83261200D01*
X110945365Y-83298545D01*
X110939879Y-83335529D01*
X110930794Y-83371798D01*
X110918198Y-83407002D01*
X110902212Y-83440802D01*
X110882990Y-83472872D01*
X110860717Y-83502904D01*
X110835608Y-83530608D01*
X110807904Y-83555717D01*
X110777872Y-83577990D01*
X110745802Y-83597212D01*
X110712002Y-83613198D01*
X110676798Y-83625794D01*
X110640529Y-83634879D01*
X110603545Y-83640365D01*
X110566200Y-83642200D01*
X109804200Y-83642200D01*
X109766855Y-83640365D01*
X109729871Y-83634879D01*
X109693602Y-83625794D01*
X109658398Y-83613198D01*
X109624598Y-83597212D01*
X109592528Y-83577990D01*
X109562496Y-83555717D01*
X109534792Y-83530608D01*
X109509683Y-83502904D01*
X109487410Y-83472872D01*
X109468188Y-83440802D01*
X109452202Y-83407002D01*
X109439606Y-83371798D01*
X109430521Y-83335529D01*
X109425035Y-83298545D01*
X109423200Y-83261200D01*
X109423200Y-82499200D01*
X109425035Y-82461855D01*
X109430521Y-82424871D01*
X109439606Y-82388602D01*
X109452202Y-82353398D01*
X109468188Y-82319598D01*
X109487410Y-82287528D01*
X109509683Y-82257496D01*
X109534792Y-82229792D01*
X109562496Y-82204683D01*
X109592528Y-82182410D01*
X109624598Y-82163188D01*
X109658398Y-82147202D01*
X109693602Y-82134606D01*
X109729871Y-82125521D01*
X109766855Y-82120035D01*
X109804200Y-82118200D01*
X110566200Y-82118200D01*
X110603545Y-82120035D01*
G37*
G36*
X110578145Y-79580035D02*
G01*
X110615129Y-79585521D01*
X110651398Y-79594606D01*
X110686602Y-79607202D01*
X110720402Y-79623188D01*
X110752472Y-79642410D01*
X110782504Y-79664683D01*
X110810208Y-79689792D01*
X110835317Y-79717496D01*
X110857590Y-79747528D01*
X110876812Y-79779598D01*
X110892798Y-79813398D01*
X110905394Y-79848602D01*
X110914479Y-79884871D01*
X110919965Y-79921855D01*
X110921800Y-79959200D01*
X110921800Y-80721200D01*
X110919965Y-80758545D01*
X110914479Y-80795529D01*
X110905394Y-80831798D01*
X110892798Y-80867002D01*
X110876812Y-80900802D01*
X110857590Y-80932872D01*
X110835317Y-80962904D01*
X110810208Y-80990608D01*
X110782504Y-81015717D01*
X110752472Y-81037990D01*
X110720402Y-81057212D01*
X110686602Y-81073198D01*
X110651398Y-81085794D01*
X110615129Y-81094879D01*
X110578145Y-81100365D01*
X110540800Y-81102200D01*
X109778800Y-81102200D01*
X109741455Y-81100365D01*
X109704471Y-81094879D01*
X109668202Y-81085794D01*
X109632998Y-81073198D01*
X109599198Y-81057212D01*
X109567128Y-81037990D01*
X109537096Y-81015717D01*
X109509392Y-80990608D01*
X109484283Y-80962904D01*
X109462010Y-80932872D01*
X109442788Y-80900802D01*
X109426802Y-80867002D01*
X109414206Y-80831798D01*
X109405121Y-80795529D01*
X109399635Y-80758545D01*
X109397800Y-80721200D01*
X109397800Y-79959200D01*
X109399635Y-79921855D01*
X109405121Y-79884871D01*
X109414206Y-79848602D01*
X109426802Y-79813398D01*
X109442788Y-79779598D01*
X109462010Y-79747528D01*
X109484283Y-79717496D01*
X109509392Y-79689792D01*
X109537096Y-79664683D01*
X109567128Y-79642410D01*
X109599198Y-79623188D01*
X109632998Y-79607202D01*
X109668202Y-79594606D01*
X109704471Y-79585521D01*
X109741455Y-79580035D01*
X109778800Y-79578200D01*
X110540800Y-79578200D01*
X110578145Y-79580035D01*
G37*
G36*
X110603545Y-77040035D02*
G01*
X110640529Y-77045521D01*
X110676798Y-77054606D01*
X110712002Y-77067202D01*
X110745802Y-77083188D01*
X110777872Y-77102410D01*
X110807904Y-77124683D01*
X110835608Y-77149792D01*
X110860717Y-77177496D01*
X110882990Y-77207528D01*
X110902212Y-77239598D01*
X110918198Y-77273398D01*
X110930794Y-77308602D01*
X110939879Y-77344871D01*
X110945365Y-77381855D01*
X110947200Y-77419200D01*
X110947200Y-78181200D01*
X110945365Y-78218545D01*
X110939879Y-78255529D01*
X110930794Y-78291798D01*
X110918198Y-78327002D01*
X110902212Y-78360802D01*
X110882990Y-78392872D01*
X110860717Y-78422904D01*
X110835608Y-78450608D01*
X110807904Y-78475717D01*
X110777872Y-78497990D01*
X110745802Y-78517212D01*
X110712002Y-78533198D01*
X110676798Y-78545794D01*
X110640529Y-78554879D01*
X110603545Y-78560365D01*
X110566200Y-78562200D01*
X109804200Y-78562200D01*
X109766855Y-78560365D01*
X109729871Y-78554879D01*
X109693602Y-78545794D01*
X109658398Y-78533198D01*
X109624598Y-78517212D01*
X109592528Y-78497990D01*
X109562496Y-78475717D01*
X109534792Y-78450608D01*
X109509683Y-78422904D01*
X109487410Y-78392872D01*
X109468188Y-78360802D01*
X109452202Y-78327002D01*
X109439606Y-78291798D01*
X109430521Y-78255529D01*
X109425035Y-78218545D01*
X109423200Y-78181200D01*
X109423200Y-77419200D01*
X109425035Y-77381855D01*
X109430521Y-77344871D01*
X109439606Y-77308602D01*
X109452202Y-77273398D01*
X109468188Y-77239598D01*
X109487410Y-77207528D01*
X109509683Y-77177496D01*
X109534792Y-77149792D01*
X109562496Y-77124683D01*
X109592528Y-77102410D01*
X109624598Y-77083188D01*
X109658398Y-77067202D01*
X109693602Y-77054606D01*
X109729871Y-77045521D01*
X109766855Y-77040035D01*
X109804200Y-77038200D01*
X110566200Y-77038200D01*
X110603545Y-77040035D01*
G37*
G36*
X110603545Y-74550835D02*
G01*
X110640529Y-74556321D01*
X110676798Y-74565406D01*
X110712002Y-74578002D01*
X110745802Y-74593988D01*
X110777872Y-74613210D01*
X110807904Y-74635483D01*
X110835608Y-74660592D01*
X110860717Y-74688296D01*
X110882990Y-74718328D01*
X110902212Y-74750398D01*
X110918198Y-74784198D01*
X110930794Y-74819402D01*
X110939879Y-74855671D01*
X110945365Y-74892655D01*
X110947200Y-74930000D01*
X110947200Y-75692000D01*
X110945365Y-75729345D01*
X110939879Y-75766329D01*
X110930794Y-75802598D01*
X110918198Y-75837802D01*
X110902212Y-75871602D01*
X110882990Y-75903672D01*
X110860717Y-75933704D01*
X110835608Y-75961408D01*
X110807904Y-75986517D01*
X110777872Y-76008790D01*
X110745802Y-76028012D01*
X110712002Y-76043998D01*
X110676798Y-76056594D01*
X110640529Y-76065679D01*
X110603545Y-76071165D01*
X110566200Y-76073000D01*
X109804200Y-76073000D01*
X109766855Y-76071165D01*
X109729871Y-76065679D01*
X109693602Y-76056594D01*
X109658398Y-76043998D01*
X109624598Y-76028012D01*
X109592528Y-76008790D01*
X109562496Y-75986517D01*
X109534792Y-75961408D01*
X109509683Y-75933704D01*
X109487410Y-75903672D01*
X109468188Y-75871602D01*
X109452202Y-75837802D01*
X109439606Y-75802598D01*
X109430521Y-75766329D01*
X109425035Y-75729345D01*
X109423200Y-75692000D01*
X109423200Y-74930000D01*
X109425035Y-74892655D01*
X109430521Y-74855671D01*
X109439606Y-74819402D01*
X109452202Y-74784198D01*
X109468188Y-74750398D01*
X109487410Y-74718328D01*
X109509683Y-74688296D01*
X109534792Y-74660592D01*
X109562496Y-74635483D01*
X109592528Y-74613210D01*
X109624598Y-74593988D01*
X109658398Y-74578002D01*
X109693602Y-74565406D01*
X109729871Y-74556321D01*
X109766855Y-74550835D01*
X109804200Y-74549000D01*
X110566200Y-74549000D01*
X110603545Y-74550835D01*
G37*
G36*
X110552745Y-72264835D02*
G01*
X110589729Y-72270321D01*
X110625998Y-72279406D01*
X110661202Y-72292002D01*
X110695002Y-72307988D01*
X110727072Y-72327210D01*
X110757104Y-72349483D01*
X110784808Y-72374592D01*
X110809917Y-72402296D01*
X110832190Y-72432328D01*
X110851412Y-72464398D01*
X110867398Y-72498198D01*
X110879994Y-72533402D01*
X110889079Y-72569671D01*
X110894565Y-72606655D01*
X110896400Y-72644000D01*
X110896400Y-73406000D01*
X110894565Y-73443345D01*
X110889079Y-73480329D01*
X110879994Y-73516598D01*
X110867398Y-73551802D01*
X110851412Y-73585602D01*
X110832190Y-73617672D01*
X110809917Y-73647704D01*
X110784808Y-73675408D01*
X110757104Y-73700517D01*
X110727072Y-73722790D01*
X110695002Y-73742012D01*
X110661202Y-73757998D01*
X110625998Y-73770594D01*
X110589729Y-73779679D01*
X110552745Y-73785165D01*
X110515400Y-73787000D01*
X109753400Y-73787000D01*
X109716055Y-73785165D01*
X109679071Y-73779679D01*
X109642802Y-73770594D01*
X109607598Y-73757998D01*
X109573798Y-73742012D01*
X109541728Y-73722790D01*
X109511696Y-73700517D01*
X109483992Y-73675408D01*
X109458883Y-73647704D01*
X109436610Y-73617672D01*
X109417388Y-73585602D01*
X109401402Y-73551802D01*
X109388806Y-73516598D01*
X109379721Y-73480329D01*
X109374235Y-73443345D01*
X109372400Y-73406000D01*
X109372400Y-72644000D01*
X109374235Y-72606655D01*
X109379721Y-72569671D01*
X109388806Y-72533402D01*
X109401402Y-72498198D01*
X109417388Y-72464398D01*
X109436610Y-72432328D01*
X109458883Y-72402296D01*
X109483992Y-72374592D01*
X109511696Y-72349483D01*
X109541728Y-72327210D01*
X109573798Y-72307988D01*
X109607598Y-72292002D01*
X109642802Y-72279406D01*
X109679071Y-72270321D01*
X109716055Y-72264835D01*
X109753400Y-72263000D01*
X110515400Y-72263000D01*
X110552745Y-72264835D01*
G37*
G36*
X110552745Y-69699435D02*
G01*
X110589729Y-69704921D01*
X110625998Y-69714006D01*
X110661202Y-69726602D01*
X110695002Y-69742588D01*
X110727072Y-69761810D01*
X110757104Y-69784083D01*
X110784808Y-69809192D01*
X110809917Y-69836896D01*
X110832190Y-69866928D01*
X110851412Y-69898998D01*
X110867398Y-69932798D01*
X110879994Y-69968002D01*
X110889079Y-70004271D01*
X110894565Y-70041255D01*
X110896400Y-70078600D01*
X110896400Y-70840600D01*
X110894565Y-70877945D01*
X110889079Y-70914929D01*
X110879994Y-70951198D01*
X110867398Y-70986402D01*
X110851412Y-71020202D01*
X110832190Y-71052272D01*
X110809917Y-71082304D01*
X110784808Y-71110008D01*
X110757104Y-71135117D01*
X110727072Y-71157390D01*
X110695002Y-71176612D01*
X110661202Y-71192598D01*
X110625998Y-71205194D01*
X110589729Y-71214279D01*
X110552745Y-71219765D01*
X110515400Y-71221600D01*
X109753400Y-71221600D01*
X109716055Y-71219765D01*
X109679071Y-71214279D01*
X109642802Y-71205194D01*
X109607598Y-71192598D01*
X109573798Y-71176612D01*
X109541728Y-71157390D01*
X109511696Y-71135117D01*
X109483992Y-71110008D01*
X109458883Y-71082304D01*
X109436610Y-71052272D01*
X109417388Y-71020202D01*
X109401402Y-70986402D01*
X109388806Y-70951198D01*
X109379721Y-70914929D01*
X109374235Y-70877945D01*
X109372400Y-70840600D01*
X109372400Y-70078600D01*
X109374235Y-70041255D01*
X109379721Y-70004271D01*
X109388806Y-69968002D01*
X109401402Y-69932798D01*
X109417388Y-69898998D01*
X109436610Y-69866928D01*
X109458883Y-69836896D01*
X109483992Y-69809192D01*
X109511696Y-69784083D01*
X109541728Y-69761810D01*
X109573798Y-69742588D01*
X109607598Y-69726602D01*
X109642802Y-69714006D01*
X109679071Y-69704921D01*
X109716055Y-69699435D01*
X109753400Y-69697600D01*
X110515400Y-69697600D01*
X110552745Y-69699435D01*
G37*
G36*
X110552745Y-67159435D02*
G01*
X110589729Y-67164921D01*
X110625998Y-67174006D01*
X110661202Y-67186602D01*
X110695002Y-67202588D01*
X110727072Y-67221810D01*
X110757104Y-67244083D01*
X110784808Y-67269192D01*
X110809917Y-67296896D01*
X110832190Y-67326928D01*
X110851412Y-67358998D01*
X110867398Y-67392798D01*
X110879994Y-67428002D01*
X110889079Y-67464271D01*
X110894565Y-67501255D01*
X110896400Y-67538600D01*
X110896400Y-68300600D01*
X110894565Y-68337945D01*
X110889079Y-68374929D01*
X110879994Y-68411198D01*
X110867398Y-68446402D01*
X110851412Y-68480202D01*
X110832190Y-68512272D01*
X110809917Y-68542304D01*
X110784808Y-68570008D01*
X110757104Y-68595117D01*
X110727072Y-68617390D01*
X110695002Y-68636612D01*
X110661202Y-68652598D01*
X110625998Y-68665194D01*
X110589729Y-68674279D01*
X110552745Y-68679765D01*
X110515400Y-68681600D01*
X109753400Y-68681600D01*
X109716055Y-68679765D01*
X109679071Y-68674279D01*
X109642802Y-68665194D01*
X109607598Y-68652598D01*
X109573798Y-68636612D01*
X109541728Y-68617390D01*
X109511696Y-68595117D01*
X109483992Y-68570008D01*
X109458883Y-68542304D01*
X109436610Y-68512272D01*
X109417388Y-68480202D01*
X109401402Y-68446402D01*
X109388806Y-68411198D01*
X109379721Y-68374929D01*
X109374235Y-68337945D01*
X109372400Y-68300600D01*
X109372400Y-67538600D01*
X109374235Y-67501255D01*
X109379721Y-67464271D01*
X109388806Y-67428002D01*
X109401402Y-67392798D01*
X109417388Y-67358998D01*
X109436610Y-67326928D01*
X109458883Y-67296896D01*
X109483992Y-67269192D01*
X109511696Y-67244083D01*
X109541728Y-67221810D01*
X109573798Y-67202588D01*
X109607598Y-67186602D01*
X109642802Y-67174006D01*
X109679071Y-67164921D01*
X109716055Y-67159435D01*
X109753400Y-67157600D01*
X110515400Y-67157600D01*
X110552745Y-67159435D01*
G37*
G36*
X110552745Y-64695635D02*
G01*
X110589729Y-64701121D01*
X110625998Y-64710206D01*
X110661202Y-64722802D01*
X110695002Y-64738788D01*
X110727072Y-64758010D01*
X110757104Y-64780283D01*
X110784808Y-64805392D01*
X110809917Y-64833096D01*
X110832190Y-64863128D01*
X110851412Y-64895198D01*
X110867398Y-64928998D01*
X110879994Y-64964202D01*
X110889079Y-65000471D01*
X110894565Y-65037455D01*
X110896400Y-65074800D01*
X110896400Y-65836800D01*
X110894565Y-65874145D01*
X110889079Y-65911129D01*
X110879994Y-65947398D01*
X110867398Y-65982602D01*
X110851412Y-66016402D01*
X110832190Y-66048472D01*
X110809917Y-66078504D01*
X110784808Y-66106208D01*
X110757104Y-66131317D01*
X110727072Y-66153590D01*
X110695002Y-66172812D01*
X110661202Y-66188798D01*
X110625998Y-66201394D01*
X110589729Y-66210479D01*
X110552745Y-66215965D01*
X110515400Y-66217800D01*
X109753400Y-66217800D01*
X109716055Y-66215965D01*
X109679071Y-66210479D01*
X109642802Y-66201394D01*
X109607598Y-66188798D01*
X109573798Y-66172812D01*
X109541728Y-66153590D01*
X109511696Y-66131317D01*
X109483992Y-66106208D01*
X109458883Y-66078504D01*
X109436610Y-66048472D01*
X109417388Y-66016402D01*
X109401402Y-65982602D01*
X109388806Y-65947398D01*
X109379721Y-65911129D01*
X109374235Y-65874145D01*
X109372400Y-65836800D01*
X109372400Y-65074800D01*
X109374235Y-65037455D01*
X109379721Y-65000471D01*
X109388806Y-64964202D01*
X109401402Y-64928998D01*
X109417388Y-64895198D01*
X109436610Y-64863128D01*
X109458883Y-64833096D01*
X109483992Y-64805392D01*
X109511696Y-64780283D01*
X109541728Y-64758010D01*
X109573798Y-64738788D01*
X109607598Y-64722802D01*
X109642802Y-64710206D01*
X109679071Y-64701121D01*
X109716055Y-64695635D01*
X109753400Y-64693800D01*
X110515400Y-64693800D01*
X110552745Y-64695635D01*
G37*
D12*
X108585000Y-48532500D03*
X108585000Y-52432500D03*
X107315000Y-48532500D03*
X107315000Y-52432500D03*
X106045000Y-48532500D03*
X106045000Y-52432500D03*
X104775000Y-48532500D03*
X104775000Y-52432500D03*
X103505000Y-48532500D03*
X103505000Y-52432500D03*
D11*
G36*
X126894504Y-46687704D02*
G01*
X126918773Y-46691304D01*
X126942571Y-46697265D01*
X126965671Y-46705530D01*
X126987849Y-46716020D01*
X127008893Y-46728633D01*
X127028598Y-46743247D01*
X127046777Y-46759723D01*
X127063253Y-46777902D01*
X127077867Y-46797607D01*
X127090480Y-46818651D01*
X127100970Y-46840829D01*
X127109235Y-46863929D01*
X127115196Y-46887727D01*
X127118796Y-46911996D01*
X127120000Y-46936500D01*
X127120000Y-48186500D01*
X127118796Y-48211004D01*
X127115196Y-48235273D01*
X127109235Y-48259071D01*
X127100970Y-48282171D01*
X127090480Y-48304349D01*
X127077867Y-48325393D01*
X127063253Y-48345098D01*
X127046777Y-48363277D01*
X127028598Y-48379753D01*
X127008893Y-48394367D01*
X126987849Y-48406980D01*
X126965671Y-48417470D01*
X126942571Y-48425735D01*
X126918773Y-48431696D01*
X126894504Y-48435296D01*
X126870000Y-48436500D01*
X126120000Y-48436500D01*
X126095496Y-48435296D01*
X126071227Y-48431696D01*
X126047429Y-48425735D01*
X126024329Y-48417470D01*
X126002151Y-48406980D01*
X125981107Y-48394367D01*
X125961402Y-48379753D01*
X125943223Y-48363277D01*
X125926747Y-48345098D01*
X125912133Y-48325393D01*
X125899520Y-48304349D01*
X125889030Y-48282171D01*
X125880765Y-48259071D01*
X125874804Y-48235273D01*
X125871204Y-48211004D01*
X125870000Y-48186500D01*
X125870000Y-46936500D01*
X125871204Y-46911996D01*
X125874804Y-46887727D01*
X125880765Y-46863929D01*
X125889030Y-46840829D01*
X125899520Y-46818651D01*
X125912133Y-46797607D01*
X125926747Y-46777902D01*
X125943223Y-46759723D01*
X125961402Y-46743247D01*
X125981107Y-46728633D01*
X126002151Y-46716020D01*
X126024329Y-46705530D01*
X126047429Y-46697265D01*
X126071227Y-46691304D01*
X126095496Y-46687704D01*
X126120000Y-46686500D01*
X126870000Y-46686500D01*
X126894504Y-46687704D01*
G37*
G36*
X124094504Y-46687704D02*
G01*
X124118773Y-46691304D01*
X124142571Y-46697265D01*
X124165671Y-46705530D01*
X124187849Y-46716020D01*
X124208893Y-46728633D01*
X124228598Y-46743247D01*
X124246777Y-46759723D01*
X124263253Y-46777902D01*
X124277867Y-46797607D01*
X124290480Y-46818651D01*
X124300970Y-46840829D01*
X124309235Y-46863929D01*
X124315196Y-46887727D01*
X124318796Y-46911996D01*
X124320000Y-46936500D01*
X124320000Y-48186500D01*
X124318796Y-48211004D01*
X124315196Y-48235273D01*
X124309235Y-48259071D01*
X124300970Y-48282171D01*
X124290480Y-48304349D01*
X124277867Y-48325393D01*
X124263253Y-48345098D01*
X124246777Y-48363277D01*
X124228598Y-48379753D01*
X124208893Y-48394367D01*
X124187849Y-48406980D01*
X124165671Y-48417470D01*
X124142571Y-48425735D01*
X124118773Y-48431696D01*
X124094504Y-48435296D01*
X124070000Y-48436500D01*
X123320000Y-48436500D01*
X123295496Y-48435296D01*
X123271227Y-48431696D01*
X123247429Y-48425735D01*
X123224329Y-48417470D01*
X123202151Y-48406980D01*
X123181107Y-48394367D01*
X123161402Y-48379753D01*
X123143223Y-48363277D01*
X123126747Y-48345098D01*
X123112133Y-48325393D01*
X123099520Y-48304349D01*
X123089030Y-48282171D01*
X123080765Y-48259071D01*
X123074804Y-48235273D01*
X123071204Y-48211004D01*
X123070000Y-48186500D01*
X123070000Y-46936500D01*
X123071204Y-46911996D01*
X123074804Y-46887727D01*
X123080765Y-46863929D01*
X123089030Y-46840829D01*
X123099520Y-46818651D01*
X123112133Y-46797607D01*
X123126747Y-46777902D01*
X123143223Y-46759723D01*
X123161402Y-46743247D01*
X123181107Y-46728633D01*
X123202151Y-46716020D01*
X123224329Y-46705530D01*
X123247429Y-46697265D01*
X123271227Y-46691304D01*
X123295496Y-46687704D01*
X123320000Y-46686500D01*
X124070000Y-46686500D01*
X124094504Y-46687704D01*
G37*
G36*
X121687504Y-46751204D02*
G01*
X121711773Y-46754804D01*
X121735571Y-46760765D01*
X121758671Y-46769030D01*
X121780849Y-46779520D01*
X121801893Y-46792133D01*
X121821598Y-46806747D01*
X121839777Y-46823223D01*
X121856253Y-46841402D01*
X121870867Y-46861107D01*
X121883480Y-46882151D01*
X121893970Y-46904329D01*
X121902235Y-46927429D01*
X121908196Y-46951227D01*
X121911796Y-46975496D01*
X121913000Y-47000000D01*
X121913000Y-48250000D01*
X121911796Y-48274504D01*
X121908196Y-48298773D01*
X121902235Y-48322571D01*
X121893970Y-48345671D01*
X121883480Y-48367849D01*
X121870867Y-48388893D01*
X121856253Y-48408598D01*
X121839777Y-48426777D01*
X121821598Y-48443253D01*
X121801893Y-48457867D01*
X121780849Y-48470480D01*
X121758671Y-48480970D01*
X121735571Y-48489235D01*
X121711773Y-48495196D01*
X121687504Y-48498796D01*
X121663000Y-48500000D01*
X120913000Y-48500000D01*
X120888496Y-48498796D01*
X120864227Y-48495196D01*
X120840429Y-48489235D01*
X120817329Y-48480970D01*
X120795151Y-48470480D01*
X120774107Y-48457867D01*
X120754402Y-48443253D01*
X120736223Y-48426777D01*
X120719747Y-48408598D01*
X120705133Y-48388893D01*
X120692520Y-48367849D01*
X120682030Y-48345671D01*
X120673765Y-48322571D01*
X120667804Y-48298773D01*
X120664204Y-48274504D01*
X120663000Y-48250000D01*
X120663000Y-47000000D01*
X120664204Y-46975496D01*
X120667804Y-46951227D01*
X120673765Y-46927429D01*
X120682030Y-46904329D01*
X120692520Y-46882151D01*
X120705133Y-46861107D01*
X120719747Y-46841402D01*
X120736223Y-46823223D01*
X120754402Y-46806747D01*
X120774107Y-46792133D01*
X120795151Y-46779520D01*
X120817329Y-46769030D01*
X120840429Y-46760765D01*
X120864227Y-46754804D01*
X120888496Y-46751204D01*
X120913000Y-46750000D01*
X121663000Y-46750000D01*
X121687504Y-46751204D01*
G37*
G36*
X118887504Y-46751204D02*
G01*
X118911773Y-46754804D01*
X118935571Y-46760765D01*
X118958671Y-46769030D01*
X118980849Y-46779520D01*
X119001893Y-46792133D01*
X119021598Y-46806747D01*
X119039777Y-46823223D01*
X119056253Y-46841402D01*
X119070867Y-46861107D01*
X119083480Y-46882151D01*
X119093970Y-46904329D01*
X119102235Y-46927429D01*
X119108196Y-46951227D01*
X119111796Y-46975496D01*
X119113000Y-47000000D01*
X119113000Y-48250000D01*
X119111796Y-48274504D01*
X119108196Y-48298773D01*
X119102235Y-48322571D01*
X119093970Y-48345671D01*
X119083480Y-48367849D01*
X119070867Y-48388893D01*
X119056253Y-48408598D01*
X119039777Y-48426777D01*
X119021598Y-48443253D01*
X119001893Y-48457867D01*
X118980849Y-48470480D01*
X118958671Y-48480970D01*
X118935571Y-48489235D01*
X118911773Y-48495196D01*
X118887504Y-48498796D01*
X118863000Y-48500000D01*
X118113000Y-48500000D01*
X118088496Y-48498796D01*
X118064227Y-48495196D01*
X118040429Y-48489235D01*
X118017329Y-48480970D01*
X117995151Y-48470480D01*
X117974107Y-48457867D01*
X117954402Y-48443253D01*
X117936223Y-48426777D01*
X117919747Y-48408598D01*
X117905133Y-48388893D01*
X117892520Y-48367849D01*
X117882030Y-48345671D01*
X117873765Y-48322571D01*
X117867804Y-48298773D01*
X117864204Y-48274504D01*
X117863000Y-48250000D01*
X117863000Y-47000000D01*
X117864204Y-46975496D01*
X117867804Y-46951227D01*
X117873765Y-46927429D01*
X117882030Y-46904329D01*
X117892520Y-46882151D01*
X117905133Y-46861107D01*
X117919747Y-46841402D01*
X117936223Y-46823223D01*
X117954402Y-46806747D01*
X117974107Y-46792133D01*
X117995151Y-46779520D01*
X118017329Y-46769030D01*
X118040429Y-46760765D01*
X118064227Y-46754804D01*
X118088496Y-46751204D01*
X118113000Y-46750000D01*
X118863000Y-46750000D01*
X118887504Y-46751204D01*
G37*
G36*
X138072691Y-52230553D02*
G01*
X138093926Y-52233703D01*
X138114750Y-52238919D01*
X138134962Y-52246151D01*
X138154368Y-52255330D01*
X138172781Y-52266366D01*
X138190024Y-52279154D01*
X138205930Y-52293570D01*
X138220346Y-52309476D01*
X138233134Y-52326719D01*
X138244170Y-52345132D01*
X138253349Y-52364538D01*
X138260581Y-52384750D01*
X138265797Y-52405574D01*
X138268947Y-52426809D01*
X138270000Y-52448250D01*
X138270000Y-52885750D01*
X138268947Y-52907191D01*
X138265797Y-52928426D01*
X138260581Y-52949250D01*
X138253349Y-52969462D01*
X138244170Y-52988868D01*
X138233134Y-53007281D01*
X138220346Y-53024524D01*
X138205930Y-53040430D01*
X138190024Y-53054846D01*
X138172781Y-53067634D01*
X138154368Y-53078670D01*
X138134962Y-53087849D01*
X138114750Y-53095081D01*
X138093926Y-53100297D01*
X138072691Y-53103447D01*
X138051250Y-53104500D01*
X137538750Y-53104500D01*
X137517309Y-53103447D01*
X137496074Y-53100297D01*
X137475250Y-53095081D01*
X137455038Y-53087849D01*
X137435632Y-53078670D01*
X137417219Y-53067634D01*
X137399976Y-53054846D01*
X137384070Y-53040430D01*
X137369654Y-53024524D01*
X137356866Y-53007281D01*
X137345830Y-52988868D01*
X137336651Y-52969462D01*
X137329419Y-52949250D01*
X137324203Y-52928426D01*
X137321053Y-52907191D01*
X137320000Y-52885750D01*
X137320000Y-52448250D01*
X137321053Y-52426809D01*
X137324203Y-52405574D01*
X137329419Y-52384750D01*
X137336651Y-52364538D01*
X137345830Y-52345132D01*
X137356866Y-52326719D01*
X137369654Y-52309476D01*
X137384070Y-52293570D01*
X137399976Y-52279154D01*
X137417219Y-52266366D01*
X137435632Y-52255330D01*
X137455038Y-52246151D01*
X137475250Y-52238919D01*
X137496074Y-52233703D01*
X137517309Y-52230553D01*
X137538750Y-52229500D01*
X138051250Y-52229500D01*
X138072691Y-52230553D01*
G37*
G36*
X138072691Y-50655553D02*
G01*
X138093926Y-50658703D01*
X138114750Y-50663919D01*
X138134962Y-50671151D01*
X138154368Y-50680330D01*
X138172781Y-50691366D01*
X138190024Y-50704154D01*
X138205930Y-50718570D01*
X138220346Y-50734476D01*
X138233134Y-50751719D01*
X138244170Y-50770132D01*
X138253349Y-50789538D01*
X138260581Y-50809750D01*
X138265797Y-50830574D01*
X138268947Y-50851809D01*
X138270000Y-50873250D01*
X138270000Y-51310750D01*
X138268947Y-51332191D01*
X138265797Y-51353426D01*
X138260581Y-51374250D01*
X138253349Y-51394462D01*
X138244170Y-51413868D01*
X138233134Y-51432281D01*
X138220346Y-51449524D01*
X138205930Y-51465430D01*
X138190024Y-51479846D01*
X138172781Y-51492634D01*
X138154368Y-51503670D01*
X138134962Y-51512849D01*
X138114750Y-51520081D01*
X138093926Y-51525297D01*
X138072691Y-51528447D01*
X138051250Y-51529500D01*
X137538750Y-51529500D01*
X137517309Y-51528447D01*
X137496074Y-51525297D01*
X137475250Y-51520081D01*
X137455038Y-51512849D01*
X137435632Y-51503670D01*
X137417219Y-51492634D01*
X137399976Y-51479846D01*
X137384070Y-51465430D01*
X137369654Y-51449524D01*
X137356866Y-51432281D01*
X137345830Y-51413868D01*
X137336651Y-51394462D01*
X137329419Y-51374250D01*
X137324203Y-51353426D01*
X137321053Y-51332191D01*
X137320000Y-51310750D01*
X137320000Y-50873250D01*
X137321053Y-50851809D01*
X137324203Y-50830574D01*
X137329419Y-50809750D01*
X137336651Y-50789538D01*
X137345830Y-50770132D01*
X137356866Y-50751719D01*
X137369654Y-50734476D01*
X137384070Y-50718570D01*
X137399976Y-50704154D01*
X137417219Y-50691366D01*
X137435632Y-50680330D01*
X137455038Y-50671151D01*
X137475250Y-50663919D01*
X137496074Y-50658703D01*
X137517309Y-50655553D01*
X137538750Y-50654500D01*
X138051250Y-50654500D01*
X138072691Y-50655553D01*
G37*
M02*
