G04 #@! TF.GenerationSoftware,KiCad,Pcbnew,(5.1.5-rc2)*
G04 #@! TF.CreationDate,2020-01-23T16:56:21-08:00*
G04 #@! TF.ProjectId,fpgb,66706762-2e6b-4696-9361-645f70636258,0.1*
G04 #@! TF.SameCoordinates,Original*
G04 #@! TF.FileFunction,Legend,Top*
G04 #@! TF.FilePolarity,Positive*
%FSLAX46Y46*%
G04 Gerber Fmt 4.6, Leading zero omitted, Abs format (unit mm)*
G04 Created by KiCad (PCBNEW (5.1.5-rc2)) date 2020-01-23 16:56:21*
%MOMM*%
%LPD*%
G04 APERTURE LIST*
%ADD10C,0.300000*%
%ADD11C,0.700000*%
%ADD12C,0.120000*%
%ADD13C,0.150000*%
G04 APERTURE END LIST*
D10*
X128498761Y-49678547D02*
X128660666Y-49678547D01*
X128822571Y-49759500D01*
X128903523Y-49840452D01*
X128984476Y-50002357D01*
X129065428Y-50326166D01*
X129065428Y-50730928D01*
X128984476Y-51054738D01*
X128903523Y-51216642D01*
X128822571Y-51297595D01*
X128660666Y-51378547D01*
X128498761Y-51378547D01*
X128336857Y-51297595D01*
X128255904Y-51216642D01*
X128174952Y-51054738D01*
X128094000Y-50730928D01*
X128094000Y-50326166D01*
X128174952Y-50002357D01*
X128255904Y-49840452D01*
X128336857Y-49759500D01*
X128498761Y-49678547D01*
X129794000Y-51216642D02*
X129874952Y-51297595D01*
X129794000Y-51378547D01*
X129713047Y-51297595D01*
X129794000Y-51216642D01*
X129794000Y-51378547D01*
X131494000Y-51378547D02*
X130522571Y-51378547D01*
X131008285Y-51378547D02*
X131008285Y-49678547D01*
X130846380Y-49921404D01*
X130684476Y-50083309D01*
X130522571Y-50164261D01*
D11*
X114967428Y-51784285D02*
X113634095Y-51784285D01*
X113634095Y-53879523D02*
X113634095Y-49879523D01*
X115538857Y-49879523D01*
X117062666Y-53879523D02*
X117062666Y-49879523D01*
X118586476Y-49879523D01*
X118967428Y-50070000D01*
X119157904Y-50260476D01*
X119348380Y-50641428D01*
X119348380Y-51212857D01*
X119157904Y-51593809D01*
X118967428Y-51784285D01*
X118586476Y-51974761D01*
X117062666Y-51974761D01*
X123157904Y-50070000D02*
X122776952Y-49879523D01*
X122205523Y-49879523D01*
X121634095Y-50070000D01*
X121253142Y-50450952D01*
X121062666Y-50831904D01*
X120872190Y-51593809D01*
X120872190Y-52165238D01*
X121062666Y-52927142D01*
X121253142Y-53308095D01*
X121634095Y-53689047D01*
X122205523Y-53879523D01*
X122586476Y-53879523D01*
X123157904Y-53689047D01*
X123348380Y-53498571D01*
X123348380Y-52165238D01*
X122586476Y-52165238D01*
X126396000Y-51784285D02*
X126967428Y-51974761D01*
X127157904Y-52165238D01*
X127348380Y-52546190D01*
X127348380Y-53117619D01*
X127157904Y-53498571D01*
X126967428Y-53689047D01*
X126586476Y-53879523D01*
X125062666Y-53879523D01*
X125062666Y-49879523D01*
X126396000Y-49879523D01*
X126776952Y-50070000D01*
X126967428Y-50260476D01*
X127157904Y-50641428D01*
X127157904Y-51022380D01*
X126967428Y-51403333D01*
X126776952Y-51593809D01*
X126396000Y-51784285D01*
X125062666Y-51784285D01*
D12*
X101600000Y-107746337D02*
X101600000Y-62738000D01*
X135890000Y-107746337D02*
X101600000Y-107746337D01*
X135890000Y-62738000D02*
X135890000Y-107746337D01*
X101600000Y-62738000D02*
X135890000Y-62738000D01*
X109215000Y-48717500D02*
X109280000Y-48717500D01*
X109215000Y-52247500D02*
X109280000Y-52247500D01*
X102810000Y-48717500D02*
X102875000Y-48717500D01*
X102810000Y-52247500D02*
X102875000Y-52247500D01*
X102875000Y-53572500D02*
X102875000Y-52247500D01*
X109280000Y-52247500D02*
X109280000Y-48717500D01*
X102810000Y-52247500D02*
X102810000Y-48717500D01*
X124492936Y-48471500D02*
X125697064Y-48471500D01*
X124492936Y-46651500D02*
X125697064Y-46651500D01*
X119285936Y-48535000D02*
X120490064Y-48535000D01*
X119285936Y-46715000D02*
X120490064Y-46715000D01*
X100330000Y-54289000D02*
X99000000Y-54289000D01*
X99000000Y-54289000D02*
X99000000Y-52959000D01*
X99000000Y-51689000D02*
X99000000Y-44009000D01*
X101660000Y-44009000D02*
X99000000Y-44009000D01*
X101660000Y-51689000D02*
X101660000Y-44009000D01*
X101660000Y-51689000D02*
X99000000Y-51689000D01*
X137060000Y-50394500D02*
X137060000Y-52679500D01*
X138530000Y-50394500D02*
X137060000Y-50394500D01*
X138530000Y-52679500D02*
X138530000Y-50394500D01*
D13*
X118105015Y-64588140D02*
X118105015Y-65397664D01*
X118152634Y-65492902D01*
X118200253Y-65540521D01*
X118295491Y-65588140D01*
X118485967Y-65588140D01*
X118581205Y-65540521D01*
X118628824Y-65492902D01*
X118676443Y-65397664D01*
X118676443Y-64588140D01*
X119057396Y-64588140D02*
X119724062Y-64588140D01*
X119295491Y-65588140D01*
X99631523Y-91130380D02*
X99060095Y-91130380D01*
X99345809Y-91130380D02*
X99345809Y-90130380D01*
X99250571Y-90273238D01*
X99155333Y-90368476D01*
X99060095Y-90416095D01*
X100583904Y-91130380D02*
X100012476Y-91130380D01*
X100298190Y-91130380D02*
X100298190Y-90130380D01*
X100202952Y-90273238D01*
X100107714Y-90368476D01*
X100012476Y-90416095D01*
X99631523Y-88590380D02*
X99060095Y-88590380D01*
X99345809Y-88590380D02*
X99345809Y-87590380D01*
X99250571Y-87733238D01*
X99155333Y-87828476D01*
X99060095Y-87876095D01*
X100250571Y-87590380D02*
X100345809Y-87590380D01*
X100441047Y-87638000D01*
X100488666Y-87685619D01*
X100536285Y-87780857D01*
X100583904Y-87971333D01*
X100583904Y-88209428D01*
X100536285Y-88399904D01*
X100488666Y-88495142D01*
X100441047Y-88542761D01*
X100345809Y-88590380D01*
X100250571Y-88590380D01*
X100155333Y-88542761D01*
X100107714Y-88495142D01*
X100060095Y-88399904D01*
X100012476Y-88209428D01*
X100012476Y-87971333D01*
X100060095Y-87780857D01*
X100107714Y-87685619D01*
X100155333Y-87638000D01*
X100250571Y-87590380D01*
X100139523Y-86050380D02*
X100330000Y-86050380D01*
X100425238Y-86002761D01*
X100472857Y-85955142D01*
X100568095Y-85812285D01*
X100615714Y-85621809D01*
X100615714Y-85240857D01*
X100568095Y-85145619D01*
X100520476Y-85098000D01*
X100425238Y-85050380D01*
X100234761Y-85050380D01*
X100139523Y-85098000D01*
X100091904Y-85145619D01*
X100044285Y-85240857D01*
X100044285Y-85478952D01*
X100091904Y-85574190D01*
X100139523Y-85621809D01*
X100234761Y-85669428D01*
X100425238Y-85669428D01*
X100520476Y-85621809D01*
X100568095Y-85574190D01*
X100615714Y-85478952D01*
X100234761Y-82938952D02*
X100139523Y-82891333D01*
X100091904Y-82843714D01*
X100044285Y-82748476D01*
X100044285Y-82700857D01*
X100091904Y-82605619D01*
X100139523Y-82558000D01*
X100234761Y-82510380D01*
X100425238Y-82510380D01*
X100520476Y-82558000D01*
X100568095Y-82605619D01*
X100615714Y-82700857D01*
X100615714Y-82748476D01*
X100568095Y-82843714D01*
X100520476Y-82891333D01*
X100425238Y-82938952D01*
X100234761Y-82938952D01*
X100139523Y-82986571D01*
X100091904Y-83034190D01*
X100044285Y-83129428D01*
X100044285Y-83319904D01*
X100091904Y-83415142D01*
X100139523Y-83462761D01*
X100234761Y-83510380D01*
X100425238Y-83510380D01*
X100520476Y-83462761D01*
X100568095Y-83415142D01*
X100615714Y-83319904D01*
X100615714Y-83129428D01*
X100568095Y-83034190D01*
X100520476Y-82986571D01*
X100425238Y-82938952D01*
X99996666Y-79970380D02*
X100663333Y-79970380D01*
X100234761Y-80970380D01*
X100520476Y-77430380D02*
X100330000Y-77430380D01*
X100234761Y-77478000D01*
X100187142Y-77525619D01*
X100091904Y-77668476D01*
X100044285Y-77858952D01*
X100044285Y-78239904D01*
X100091904Y-78335142D01*
X100139523Y-78382761D01*
X100234761Y-78430380D01*
X100425238Y-78430380D01*
X100520476Y-78382761D01*
X100568095Y-78335142D01*
X100615714Y-78239904D01*
X100615714Y-78001809D01*
X100568095Y-77906571D01*
X100520476Y-77858952D01*
X100425238Y-77811333D01*
X100234761Y-77811333D01*
X100139523Y-77858952D01*
X100091904Y-77906571D01*
X100044285Y-78001809D01*
X100568095Y-74890380D02*
X100091904Y-74890380D01*
X100044285Y-75366571D01*
X100091904Y-75318952D01*
X100187142Y-75271333D01*
X100425238Y-75271333D01*
X100520476Y-75318952D01*
X100568095Y-75366571D01*
X100615714Y-75461809D01*
X100615714Y-75699904D01*
X100568095Y-75795142D01*
X100520476Y-75842761D01*
X100425238Y-75890380D01*
X100187142Y-75890380D01*
X100091904Y-75842761D01*
X100044285Y-75795142D01*
X99631523Y-93670380D02*
X99060095Y-93670380D01*
X99345809Y-93670380D02*
X99345809Y-92670380D01*
X99250571Y-92813238D01*
X99155333Y-92908476D01*
X99060095Y-92956095D01*
X100012476Y-92765619D02*
X100060095Y-92718000D01*
X100155333Y-92670380D01*
X100393428Y-92670380D01*
X100488666Y-92718000D01*
X100536285Y-92765619D01*
X100583904Y-92860857D01*
X100583904Y-92956095D01*
X100536285Y-93098952D01*
X99964857Y-93670380D01*
X100583904Y-93670380D01*
X99631523Y-96210380D02*
X99060095Y-96210380D01*
X99345809Y-96210380D02*
X99345809Y-95210380D01*
X99250571Y-95353238D01*
X99155333Y-95448476D01*
X99060095Y-95496095D01*
X99964857Y-95210380D02*
X100583904Y-95210380D01*
X100250571Y-95591333D01*
X100393428Y-95591333D01*
X100488666Y-95638952D01*
X100536285Y-95686571D01*
X100583904Y-95781809D01*
X100583904Y-96019904D01*
X100536285Y-96115142D01*
X100488666Y-96162761D01*
X100393428Y-96210380D01*
X100107714Y-96210380D01*
X100012476Y-96162761D01*
X99964857Y-96115142D01*
X99631523Y-98750380D02*
X99060095Y-98750380D01*
X99345809Y-98750380D02*
X99345809Y-97750380D01*
X99250571Y-97893238D01*
X99155333Y-97988476D01*
X99060095Y-98036095D01*
X100488666Y-98083714D02*
X100488666Y-98750380D01*
X100250571Y-97702761D02*
X100012476Y-98417047D01*
X100631523Y-98417047D01*
X99631523Y-101290380D02*
X99060095Y-101290380D01*
X99345809Y-101290380D02*
X99345809Y-100290380D01*
X99250571Y-100433238D01*
X99155333Y-100528476D01*
X99060095Y-100576095D01*
X100536285Y-100290380D02*
X100060095Y-100290380D01*
X100012476Y-100766571D01*
X100060095Y-100718952D01*
X100155333Y-100671333D01*
X100393428Y-100671333D01*
X100488666Y-100718952D01*
X100536285Y-100766571D01*
X100583904Y-100861809D01*
X100583904Y-101099904D01*
X100536285Y-101195142D01*
X100488666Y-101242761D01*
X100393428Y-101290380D01*
X100155333Y-101290380D01*
X100060095Y-101242761D01*
X100012476Y-101195142D01*
X99631523Y-103830380D02*
X99060095Y-103830380D01*
X99345809Y-103830380D02*
X99345809Y-102830380D01*
X99250571Y-102973238D01*
X99155333Y-103068476D01*
X99060095Y-103116095D01*
X100488666Y-102830380D02*
X100298190Y-102830380D01*
X100202952Y-102878000D01*
X100155333Y-102925619D01*
X100060095Y-103068476D01*
X100012476Y-103258952D01*
X100012476Y-103639904D01*
X100060095Y-103735142D01*
X100107714Y-103782761D01*
X100202952Y-103830380D01*
X100393428Y-103830380D01*
X100488666Y-103782761D01*
X100536285Y-103735142D01*
X100583904Y-103639904D01*
X100583904Y-103401809D01*
X100536285Y-103306571D01*
X100488666Y-103258952D01*
X100393428Y-103211333D01*
X100202952Y-103211333D01*
X100107714Y-103258952D01*
X100060095Y-103306571D01*
X100012476Y-103401809D01*
X100520476Y-72683714D02*
X100520476Y-73350380D01*
X100282380Y-72302761D02*
X100044285Y-73017047D01*
X100663333Y-73017047D01*
X99996666Y-69810380D02*
X100615714Y-69810380D01*
X100282380Y-70191333D01*
X100425238Y-70191333D01*
X100520476Y-70238952D01*
X100568095Y-70286571D01*
X100615714Y-70381809D01*
X100615714Y-70619904D01*
X100568095Y-70715142D01*
X100520476Y-70762761D01*
X100425238Y-70810380D01*
X100139523Y-70810380D01*
X100044285Y-70762761D01*
X99996666Y-70715142D01*
X100044285Y-67365619D02*
X100091904Y-67318000D01*
X100187142Y-67270380D01*
X100425238Y-67270380D01*
X100520476Y-67318000D01*
X100568095Y-67365619D01*
X100615714Y-67460857D01*
X100615714Y-67556095D01*
X100568095Y-67698952D01*
X99996666Y-68270380D01*
X100615714Y-68270380D01*
X122824857Y-61396571D02*
X122491523Y-61396571D01*
X122491523Y-61920380D02*
X122491523Y-60920380D01*
X122967714Y-60920380D01*
X125483904Y-60968000D02*
X125388666Y-60920380D01*
X125245809Y-60920380D01*
X125102952Y-60968000D01*
X125007714Y-61063238D01*
X124960095Y-61158476D01*
X124912476Y-61348952D01*
X124912476Y-61491809D01*
X124960095Y-61682285D01*
X125007714Y-61777523D01*
X125102952Y-61872761D01*
X125245809Y-61920380D01*
X125341047Y-61920380D01*
X125483904Y-61872761D01*
X125531523Y-61825142D01*
X125531523Y-61491809D01*
X125341047Y-61491809D01*
X127476285Y-61920380D02*
X127476285Y-60920380D01*
X127476285Y-61396571D02*
X128047714Y-61396571D01*
X128047714Y-61920380D02*
X128047714Y-60920380D01*
X130302000Y-61920380D02*
X130302000Y-60920380D01*
X114847714Y-61396571D02*
X115181047Y-61396571D01*
X115323904Y-61920380D02*
X114847714Y-61920380D01*
X114847714Y-60920380D01*
X115323904Y-60920380D01*
X112260095Y-61920380D02*
X112260095Y-60920380D01*
X112498190Y-60920380D01*
X112641047Y-60968000D01*
X112736285Y-61063238D01*
X112783904Y-61158476D01*
X112831523Y-61348952D01*
X112831523Y-61491809D01*
X112783904Y-61682285D01*
X112736285Y-61777523D01*
X112641047Y-61872761D01*
X112498190Y-61920380D01*
X112260095Y-61920380D01*
X110291523Y-61825142D02*
X110243904Y-61872761D01*
X110101047Y-61920380D01*
X110005809Y-61920380D01*
X109862952Y-61872761D01*
X109767714Y-61777523D01*
X109720095Y-61682285D01*
X109672476Y-61491809D01*
X109672476Y-61348952D01*
X109720095Y-61158476D01*
X109767714Y-61063238D01*
X109862952Y-60968000D01*
X110005809Y-60920380D01*
X110101047Y-60920380D01*
X110243904Y-60968000D01*
X110291523Y-61015619D01*
X107513428Y-61396571D02*
X107656285Y-61444190D01*
X107703904Y-61491809D01*
X107751523Y-61587047D01*
X107751523Y-61729904D01*
X107703904Y-61825142D01*
X107656285Y-61872761D01*
X107561047Y-61920380D01*
X107180095Y-61920380D01*
X107180095Y-60920380D01*
X107513428Y-60920380D01*
X107608666Y-60968000D01*
X107656285Y-61015619D01*
X107703904Y-61110857D01*
X107703904Y-61206095D01*
X107656285Y-61301333D01*
X107608666Y-61348952D01*
X107513428Y-61396571D01*
X107180095Y-61396571D01*
X132984857Y-60920380D02*
X132984857Y-61634666D01*
X132937238Y-61777523D01*
X132842000Y-61872761D01*
X132699142Y-61920380D01*
X132603904Y-61920380D01*
X104663904Y-61634666D02*
X105140095Y-61634666D01*
X104568666Y-61920380D02*
X104902000Y-60920380D01*
X105235333Y-61920380D01*
X99631523Y-106370380D02*
X99060095Y-106370380D01*
X99345809Y-106370380D02*
X99345809Y-105370380D01*
X99250571Y-105513238D01*
X99155333Y-105608476D01*
X99060095Y-105656095D01*
X99964857Y-105370380D02*
X100631523Y-105370380D01*
X100202952Y-106370380D01*
X100615714Y-65730380D02*
X100044285Y-65730380D01*
X100330000Y-65730380D02*
X100330000Y-64730380D01*
X100234761Y-64873238D01*
X100139523Y-64968476D01*
X100044285Y-65016095D01*
X138461714Y-65730380D02*
X137890285Y-65730380D01*
X138176000Y-65730380D02*
X138176000Y-64730380D01*
X138080761Y-64873238D01*
X137985523Y-64968476D01*
X137890285Y-65016095D01*
X137477523Y-106370380D02*
X136906095Y-106370380D01*
X137191809Y-106370380D02*
X137191809Y-105370380D01*
X137096571Y-105513238D01*
X137001333Y-105608476D01*
X136906095Y-105656095D01*
X137810857Y-105370380D02*
X138477523Y-105370380D01*
X138048952Y-106370380D01*
X137890285Y-67365619D02*
X137937904Y-67318000D01*
X138033142Y-67270380D01*
X138271238Y-67270380D01*
X138366476Y-67318000D01*
X138414095Y-67365619D01*
X138461714Y-67460857D01*
X138461714Y-67556095D01*
X138414095Y-67698952D01*
X137842666Y-68270380D01*
X138461714Y-68270380D01*
X137842666Y-69810380D02*
X138461714Y-69810380D01*
X138128380Y-70191333D01*
X138271238Y-70191333D01*
X138366476Y-70238952D01*
X138414095Y-70286571D01*
X138461714Y-70381809D01*
X138461714Y-70619904D01*
X138414095Y-70715142D01*
X138366476Y-70762761D01*
X138271238Y-70810380D01*
X137985523Y-70810380D01*
X137890285Y-70762761D01*
X137842666Y-70715142D01*
X138366476Y-72683714D02*
X138366476Y-73350380D01*
X138128380Y-72302761D02*
X137890285Y-73017047D01*
X138509333Y-73017047D01*
X137477523Y-103830380D02*
X136906095Y-103830380D01*
X137191809Y-103830380D02*
X137191809Y-102830380D01*
X137096571Y-102973238D01*
X137001333Y-103068476D01*
X136906095Y-103116095D01*
X138334666Y-102830380D02*
X138144190Y-102830380D01*
X138048952Y-102878000D01*
X138001333Y-102925619D01*
X137906095Y-103068476D01*
X137858476Y-103258952D01*
X137858476Y-103639904D01*
X137906095Y-103735142D01*
X137953714Y-103782761D01*
X138048952Y-103830380D01*
X138239428Y-103830380D01*
X138334666Y-103782761D01*
X138382285Y-103735142D01*
X138429904Y-103639904D01*
X138429904Y-103401809D01*
X138382285Y-103306571D01*
X138334666Y-103258952D01*
X138239428Y-103211333D01*
X138048952Y-103211333D01*
X137953714Y-103258952D01*
X137906095Y-103306571D01*
X137858476Y-103401809D01*
X137477523Y-101290380D02*
X136906095Y-101290380D01*
X137191809Y-101290380D02*
X137191809Y-100290380D01*
X137096571Y-100433238D01*
X137001333Y-100528476D01*
X136906095Y-100576095D01*
X138382285Y-100290380D02*
X137906095Y-100290380D01*
X137858476Y-100766571D01*
X137906095Y-100718952D01*
X138001333Y-100671333D01*
X138239428Y-100671333D01*
X138334666Y-100718952D01*
X138382285Y-100766571D01*
X138429904Y-100861809D01*
X138429904Y-101099904D01*
X138382285Y-101195142D01*
X138334666Y-101242761D01*
X138239428Y-101290380D01*
X138001333Y-101290380D01*
X137906095Y-101242761D01*
X137858476Y-101195142D01*
X137477523Y-98750380D02*
X136906095Y-98750380D01*
X137191809Y-98750380D02*
X137191809Y-97750380D01*
X137096571Y-97893238D01*
X137001333Y-97988476D01*
X136906095Y-98036095D01*
X138334666Y-98083714D02*
X138334666Y-98750380D01*
X138096571Y-97702761D02*
X137858476Y-98417047D01*
X138477523Y-98417047D01*
X137477523Y-96210380D02*
X136906095Y-96210380D01*
X137191809Y-96210380D02*
X137191809Y-95210380D01*
X137096571Y-95353238D01*
X137001333Y-95448476D01*
X136906095Y-95496095D01*
X137810857Y-95210380D02*
X138429904Y-95210380D01*
X138096571Y-95591333D01*
X138239428Y-95591333D01*
X138334666Y-95638952D01*
X138382285Y-95686571D01*
X138429904Y-95781809D01*
X138429904Y-96019904D01*
X138382285Y-96115142D01*
X138334666Y-96162761D01*
X138239428Y-96210380D01*
X137953714Y-96210380D01*
X137858476Y-96162761D01*
X137810857Y-96115142D01*
X137477523Y-93670380D02*
X136906095Y-93670380D01*
X137191809Y-93670380D02*
X137191809Y-92670380D01*
X137096571Y-92813238D01*
X137001333Y-92908476D01*
X136906095Y-92956095D01*
X137858476Y-92765619D02*
X137906095Y-92718000D01*
X138001333Y-92670380D01*
X138239428Y-92670380D01*
X138334666Y-92718000D01*
X138382285Y-92765619D01*
X138429904Y-92860857D01*
X138429904Y-92956095D01*
X138382285Y-93098952D01*
X137810857Y-93670380D01*
X138429904Y-93670380D01*
X138414095Y-74890380D02*
X137937904Y-74890380D01*
X137890285Y-75366571D01*
X137937904Y-75318952D01*
X138033142Y-75271333D01*
X138271238Y-75271333D01*
X138366476Y-75318952D01*
X138414095Y-75366571D01*
X138461714Y-75461809D01*
X138461714Y-75699904D01*
X138414095Y-75795142D01*
X138366476Y-75842761D01*
X138271238Y-75890380D01*
X138033142Y-75890380D01*
X137937904Y-75842761D01*
X137890285Y-75795142D01*
X138366476Y-77430380D02*
X138176000Y-77430380D01*
X138080761Y-77478000D01*
X138033142Y-77525619D01*
X137937904Y-77668476D01*
X137890285Y-77858952D01*
X137890285Y-78239904D01*
X137937904Y-78335142D01*
X137985523Y-78382761D01*
X138080761Y-78430380D01*
X138271238Y-78430380D01*
X138366476Y-78382761D01*
X138414095Y-78335142D01*
X138461714Y-78239904D01*
X138461714Y-78001809D01*
X138414095Y-77906571D01*
X138366476Y-77858952D01*
X138271238Y-77811333D01*
X138080761Y-77811333D01*
X137985523Y-77858952D01*
X137937904Y-77906571D01*
X137890285Y-78001809D01*
X137842666Y-79970380D02*
X138509333Y-79970380D01*
X138080761Y-80970380D01*
X138080761Y-82938952D02*
X137985523Y-82891333D01*
X137937904Y-82843714D01*
X137890285Y-82748476D01*
X137890285Y-82700857D01*
X137937904Y-82605619D01*
X137985523Y-82558000D01*
X138080761Y-82510380D01*
X138271238Y-82510380D01*
X138366476Y-82558000D01*
X138414095Y-82605619D01*
X138461714Y-82700857D01*
X138461714Y-82748476D01*
X138414095Y-82843714D01*
X138366476Y-82891333D01*
X138271238Y-82938952D01*
X138080761Y-82938952D01*
X137985523Y-82986571D01*
X137937904Y-83034190D01*
X137890285Y-83129428D01*
X137890285Y-83319904D01*
X137937904Y-83415142D01*
X137985523Y-83462761D01*
X138080761Y-83510380D01*
X138271238Y-83510380D01*
X138366476Y-83462761D01*
X138414095Y-83415142D01*
X138461714Y-83319904D01*
X138461714Y-83129428D01*
X138414095Y-83034190D01*
X138366476Y-82986571D01*
X138271238Y-82938952D01*
X137985523Y-86050380D02*
X138176000Y-86050380D01*
X138271238Y-86002761D01*
X138318857Y-85955142D01*
X138414095Y-85812285D01*
X138461714Y-85621809D01*
X138461714Y-85240857D01*
X138414095Y-85145619D01*
X138366476Y-85098000D01*
X138271238Y-85050380D01*
X138080761Y-85050380D01*
X137985523Y-85098000D01*
X137937904Y-85145619D01*
X137890285Y-85240857D01*
X137890285Y-85478952D01*
X137937904Y-85574190D01*
X137985523Y-85621809D01*
X138080761Y-85669428D01*
X138271238Y-85669428D01*
X138366476Y-85621809D01*
X138414095Y-85574190D01*
X138461714Y-85478952D01*
X137477523Y-88590380D02*
X136906095Y-88590380D01*
X137191809Y-88590380D02*
X137191809Y-87590380D01*
X137096571Y-87733238D01*
X137001333Y-87828476D01*
X136906095Y-87876095D01*
X138096571Y-87590380D02*
X138191809Y-87590380D01*
X138287047Y-87638000D01*
X138334666Y-87685619D01*
X138382285Y-87780857D01*
X138429904Y-87971333D01*
X138429904Y-88209428D01*
X138382285Y-88399904D01*
X138334666Y-88495142D01*
X138287047Y-88542761D01*
X138191809Y-88590380D01*
X138096571Y-88590380D01*
X138001333Y-88542761D01*
X137953714Y-88495142D01*
X137906095Y-88399904D01*
X137858476Y-88209428D01*
X137858476Y-87971333D01*
X137906095Y-87780857D01*
X137953714Y-87685619D01*
X138001333Y-87638000D01*
X138096571Y-87590380D01*
X137477523Y-91130380D02*
X136906095Y-91130380D01*
X137191809Y-91130380D02*
X137191809Y-90130380D01*
X137096571Y-90273238D01*
X137001333Y-90368476D01*
X136906095Y-90416095D01*
X138429904Y-91130380D02*
X137858476Y-91130380D01*
X138144190Y-91130380D02*
X138144190Y-90130380D01*
X138048952Y-90273238D01*
X137953714Y-90368476D01*
X137858476Y-90416095D01*
X104663904Y-109513666D02*
X105140095Y-109513666D01*
X104568666Y-109799380D02*
X104902000Y-108799380D01*
X105235333Y-109799380D01*
X132984857Y-108799380D02*
X132984857Y-109513666D01*
X132937238Y-109656523D01*
X132842000Y-109751761D01*
X132699142Y-109799380D01*
X132603904Y-109799380D01*
X107513428Y-109275571D02*
X107656285Y-109323190D01*
X107703904Y-109370809D01*
X107751523Y-109466047D01*
X107751523Y-109608904D01*
X107703904Y-109704142D01*
X107656285Y-109751761D01*
X107561047Y-109799380D01*
X107180095Y-109799380D01*
X107180095Y-108799380D01*
X107513428Y-108799380D01*
X107608666Y-108847000D01*
X107656285Y-108894619D01*
X107703904Y-108989857D01*
X107703904Y-109085095D01*
X107656285Y-109180333D01*
X107608666Y-109227952D01*
X107513428Y-109275571D01*
X107180095Y-109275571D01*
X110291523Y-109704142D02*
X110243904Y-109751761D01*
X110101047Y-109799380D01*
X110005809Y-109799380D01*
X109862952Y-109751761D01*
X109767714Y-109656523D01*
X109720095Y-109561285D01*
X109672476Y-109370809D01*
X109672476Y-109227952D01*
X109720095Y-109037476D01*
X109767714Y-108942238D01*
X109862952Y-108847000D01*
X110005809Y-108799380D01*
X110101047Y-108799380D01*
X110243904Y-108847000D01*
X110291523Y-108894619D01*
X112260095Y-109799380D02*
X112260095Y-108799380D01*
X112498190Y-108799380D01*
X112641047Y-108847000D01*
X112736285Y-108942238D01*
X112783904Y-109037476D01*
X112831523Y-109227952D01*
X112831523Y-109370809D01*
X112783904Y-109561285D01*
X112736285Y-109656523D01*
X112641047Y-109751761D01*
X112498190Y-109799380D01*
X112260095Y-109799380D01*
X114847714Y-109275571D02*
X115181047Y-109275571D01*
X115323904Y-109799380D02*
X114847714Y-109799380D01*
X114847714Y-108799380D01*
X115323904Y-108799380D01*
X130302000Y-109799380D02*
X130302000Y-108799380D01*
X127476285Y-109799380D02*
X127476285Y-108799380D01*
X127476285Y-109275571D02*
X128047714Y-109275571D01*
X128047714Y-109799380D02*
X128047714Y-108799380D01*
X125483904Y-108847000D02*
X125388666Y-108799380D01*
X125245809Y-108799380D01*
X125102952Y-108847000D01*
X125007714Y-108942238D01*
X124960095Y-109037476D01*
X124912476Y-109227952D01*
X124912476Y-109370809D01*
X124960095Y-109561285D01*
X125007714Y-109656523D01*
X125102952Y-109751761D01*
X125245809Y-109799380D01*
X125341047Y-109799380D01*
X125483904Y-109751761D01*
X125531523Y-109704142D01*
X125531523Y-109370809D01*
X125341047Y-109370809D01*
X122824857Y-109275571D02*
X122491523Y-109275571D01*
X122491523Y-109799380D02*
X122491523Y-108799380D01*
X122967714Y-108799380D01*
X109688380Y-50752333D02*
X110402666Y-50752333D01*
X110545523Y-50799952D01*
X110640761Y-50895190D01*
X110688380Y-51038047D01*
X110688380Y-51133285D01*
X109783619Y-50323761D02*
X109736000Y-50276142D01*
X109688380Y-50180904D01*
X109688380Y-49942809D01*
X109736000Y-49847571D01*
X109783619Y-49799952D01*
X109878857Y-49752333D01*
X109974095Y-49752333D01*
X110116952Y-49799952D01*
X110688380Y-50371380D01*
X110688380Y-49752333D01*
X124698166Y-45585071D02*
X124364833Y-45585071D01*
X124364833Y-46108880D02*
X124364833Y-45108880D01*
X124841023Y-45108880D01*
X125174357Y-45204119D02*
X125221976Y-45156500D01*
X125317214Y-45108880D01*
X125555309Y-45108880D01*
X125650547Y-45156500D01*
X125698166Y-45204119D01*
X125745785Y-45299357D01*
X125745785Y-45394595D01*
X125698166Y-45537452D01*
X125126738Y-46108880D01*
X125745785Y-46108880D01*
X119618166Y-45648571D02*
X119284833Y-45648571D01*
X119284833Y-46172380D02*
X119284833Y-45172380D01*
X119761023Y-45172380D01*
X120665785Y-46172380D02*
X120094357Y-46172380D01*
X120380071Y-46172380D02*
X120380071Y-45172380D01*
X120284833Y-45315238D01*
X120189595Y-45410476D01*
X120094357Y-45458095D01*
X102195380Y-45227833D02*
X102909666Y-45227833D01*
X103052523Y-45275452D01*
X103147761Y-45370690D01*
X103195380Y-45513547D01*
X103195380Y-45608785D01*
X102195380Y-44846880D02*
X102195380Y-44227833D01*
X102576333Y-44561166D01*
X102576333Y-44418309D01*
X102623952Y-44323071D01*
X102671571Y-44275452D01*
X102766809Y-44227833D01*
X103004904Y-44227833D01*
X103100142Y-44275452D01*
X103147761Y-44323071D01*
X103195380Y-44418309D01*
X103195380Y-44704023D01*
X103147761Y-44799261D01*
X103100142Y-44846880D01*
X133921666Y-52141380D02*
X133921666Y-51141380D01*
X134302619Y-51141380D01*
X134397857Y-51189000D01*
X134445476Y-51236619D01*
X134493095Y-51331857D01*
X134493095Y-51474714D01*
X134445476Y-51569952D01*
X134397857Y-51617571D01*
X134302619Y-51665190D01*
X133921666Y-51665190D01*
X134826428Y-51141380D02*
X135064523Y-52141380D01*
X135255000Y-51427095D01*
X135445476Y-52141380D01*
X135683571Y-51141380D01*
X136635952Y-52141380D02*
X136302619Y-51665190D01*
X136064523Y-52141380D02*
X136064523Y-51141380D01*
X136445476Y-51141380D01*
X136540714Y-51189000D01*
X136588333Y-51236619D01*
X136635952Y-51331857D01*
X136635952Y-51474714D01*
X136588333Y-51569952D01*
X136540714Y-51617571D01*
X136445476Y-51665190D01*
X136064523Y-51665190D01*
M02*
