<?xml version="1.0" encoding="utf-8" ?>
<!DOCTYPE svg PUBLIC "-//W3C//DTD SVG 1.1//EN" "http://www.w3.org/Graphics/SVG/1.1/DTD/svg11.dtd">
<svg version="1.1" id="BB" xmlns="http://www.w3.org/2000/svg" xmlns:xlink="http://www.w3.org/1999/xlink" x="0px" y="0px" width="100%" height="100%" viewBox="0 0 150 150" xml:space="preserve">
  <g id="BB" transform="rotate(90, 65, 50) translate(15, 38)">
    <g id="background">
      <rect fill="#D9D9D9" width="129.839" height="100.914" />
    </g>
    <rect x="19.67" y="46.83" fill="#CCC9C9" width="90.5" height="7.252" />
    <g id="sockets" transform="translate(-4.5, -9)">
      <g id="~a1" data-pin="~a1">
        <path fill="#BFBFBF" d="M9.427,19.858c0-1.322,1.071-2.396,2.395-2.396c1.324,0,2.394,1.072,2.394,2.396" />
        <path fill="#E6E6E6" d="M14.214,19.858c0,1.319-1.07,2.393-2.394,2.393c-1.324,0-2.395-1.072-2.395-2.393" />
        <circle fill="#383838" cx="11.822" cy="19.857" r="1.196" />
      </g>
      <g id="~b1" data-pin="~b1">
        <path fill="#BFBFBF" d="M9.427,27.058c0-1.322,1.071-2.396,2.395-2.396c1.324,0,2.394,1.071,2.394,2.396" />
        <path fill="#E6E6E6" d="M14.214,27.058c0,1.321-1.07,2.393-2.394,2.393c-1.324,0-2.395-1.07-2.395-2.393l0,0" />
        <circle fill="#383838" cx="11.822" cy="27.057" r="1.197" />
      </g>
      <g id="~c1" data-pin="~c1">
        <path fill="#BFBFBF" d="M9.427,34.256c0-1.319,1.071-2.394,2.395-2.394c1.324,0,2.394,1.072,2.394,2.394" />
        <path fill="#E6E6E6" d="M14.214,34.256c0,1.322-1.07,2.396-2.394,2.396c-1.324,0-2.395-1.072-2.395-2.396" />
        <circle fill="#383838" cx="11.822" cy="34.257" r="1.196" />
      </g>
      <g id="~d1" data-pin="~d1">
        <path fill="#BFBFBF" d="M9.427,41.457c0-1.322,1.071-2.396,2.395-2.396c1.324,0,2.394,1.072,2.394,2.396" />
        <path fill="#E6E6E6" d="M14.214,41.457c0,1.321-1.07,2.394-2.394,2.394c-1.324,0-2.395-1.07-2.395-2.394l0,0" />
        <circle fill="#383838" cx="11.822" cy="41.457" r="1.197" />
      </g>
      <g id="~e1" data-pin="~e1">
        <path fill="#BFBFBF" d="M9.427,48.657c0-1.322,1.071-2.394,2.395-2.394c1.324,0,2.394,1.07,2.394,2.394" />
        <path fill="#E6E6E6" d="M14.214,48.657c0,1.322-1.07,2.395-2.394,2.395c-1.324,0-2.395-1.072-2.395-2.395l0,0" />
        <circle fill="#383838" cx="11.822" cy="48.657" r="1.197" />
      </g>
      <g id="~a2" data-pin="~a2">
        <path fill="#BFBFBF" d="M16.627,19.858c0-1.322,1.071-2.396,2.395-2.396c1.32,0,2.394,1.072,2.394,2.396" />
        <path fill="#E6E6E6" d="M21.414,19.858c0,1.319-1.07,2.393-2.393,2.395c-1.322,0-2.396-1.07-2.396-2.393c0-0.002,0-0.002,0-0.002 " />
        <circle fill="#383838" cx="19.022" cy="19.857" r="1.196" />
      </g>
      <g id="~b2" data-pin="~b2">
        <path fill="#BFBFBF" d="M16.627,27.058c0-1.322,1.071-2.396,2.395-2.396c1.32,0,2.394,1.071,2.394,2.396" />
        <path fill="#E6E6E6" d="M21.414,27.058c0,1.321-1.07,2.395-2.393,2.395c-1.322,0.002-2.396-1.07-2.396-2.393v-0.002" />
        <circle fill="#383838" cx="19.022" cy="27.057" r="1.197" />
      </g>
      <g id="~c2" data-pin="~c2">
        <path fill="#BFBFBF" d="M16.627,34.256c0-1.319,1.071-2.394,2.395-2.394c1.32,0,2.394,1.072,2.394,2.394" />
        <path fill="#E6E6E6" d="M21.414,34.256c0,1.322-1.07,2.396-2.393,2.396c-1.323,0-2.396-1.069-2.396-2.393 c0-0.002,0-0.002,0-0.004" />
        <circle fill="#383838" cx="19.022" cy="34.257" r="1.196" />
      </g>
      <g id="~d2" data-pin="~d2">
        <path fill="#BFBFBF" d="M16.627,41.457c0-1.322,1.071-2.396,2.395-2.396c1.32,0,2.394,1.072,2.394,2.396" />
        <path fill="#E6E6E6" d="M21.414,41.457c0,1.321-1.07,2.396-2.393,2.396c-1.323,0-2.396-1.07-2.396-2.394v-0.002" />
        <circle fill="#383838" cx="19.022" cy="41.457" r="1.197" />
      </g>
      <g id="~e2" data-pin="~e2">
        <path fill="#BFBFBF" d="M16.627,48.657c0-1.322,1.071-2.394,2.395-2.394c1.32,0,2.394,1.07,2.394,2.394" />
        <path fill="#E6E6E6" d="M21.414,48.657c0,1.322-1.07,2.395-2.393,2.395c-1.322,0.002-2.396-1.07-2.396-2.391 c0-0.002,0-0.002,0-0.004" />
        <circle fill="#383838" cx="19.022" cy="48.657" r="1.197" />
      </g>
      <g id="~a3" data-pin="~a3">
        <path fill="#BFBFBF" d="M23.826,19.858c0-1.322,1.072-2.396,2.395-2.396c1.321,0,2.395,1.072,2.395,2.396" />
        <path fill="#E6E6E6" d="M28.615,19.858c0,1.319-1.072,2.393-2.395,2.393c-1.321,0-2.395-1.072-2.395-2.393l0,0" />
        <circle fill="#383838" cx="26.221" cy="19.857" r="1.196" />
      </g>
      <g id="~b3" data-pin="~b3">
        <path fill="#BFBFBF" d="M23.826,27.058c0-1.322,1.072-2.396,2.395-2.396c1.321,0,2.395,1.071,2.395,2.396" />
        <path fill="#E6E6E6" d="M28.615,27.058c0,1.321-1.072,2.393-2.395,2.393c-1.321,0-2.395-1.07-2.395-2.393" />
        <circle fill="#383838" cx="26.221" cy="27.057" r="1.197" />
      </g>
      <g id="~c3" data-pin="~c3">
        <path fill="#BFBFBF" d="M23.826,34.256c0-1.319,1.072-2.394,2.395-2.394c1.321,0,2.395,1.072,2.395,2.394" />
        <path fill="#E6E6E6" d="M28.615,34.256c0,1.322-1.072,2.396-2.395,2.396c-1.321,0-2.395-1.072-2.395-2.396l0,0" />
        <circle fill="#383838" cx="26.221" cy="34.257" r="1.196" />
      </g>
      <g id="~d3" data-pin="~d3">
        <path fill="#BFBFBF" d="M23.826,41.457c0-1.322,1.072-2.396,2.395-2.396c1.321,0,2.395,1.072,2.395,2.396" />
        <path fill="#E6E6E6" d="M28.615,41.457c0,1.321-1.072,2.394-2.395,2.394c-1.321,0-2.395-1.07-2.395-2.394" />
        <circle fill="#383838" cx="26.221" cy="41.457" r="1.197" />
      </g>
      <g id="~e3" data-pin="~e3">
        <path fill="#BFBFBF" d="M23.826,48.657c0-1.322,1.072-2.394,2.395-2.394c1.321,0,2.395,1.07,2.395,2.394" />
        <path fill="#E6E6E6" d="M28.615,48.657c0,1.322-1.072,2.395-2.395,2.395c-1.321,0-2.395-1.072-2.395-2.395" />
        <circle fill="#383838" cx="26.221" cy="48.657" r="1.197" />
      </g>
      <g id="~a4" data-pin="~a4">
        <path fill="#BFBFBF" d="M31.028,19.858c0-1.322,1.072-2.396,2.394-2.396c1.322,0,2.395,1.072,2.395,2.396" />
        <path fill="#E6E6E6" d="M35.815,19.858c0,1.319-1.071,2.393-2.395,2.393c-1.32,0-2.394-1.072-2.394-2.393l0,0" />
        <circle fill="#383838" cx="33.42" cy="19.857" r="1.196" />
      </g>
      <g id="~b4" data-pin="~b4">
        <path fill="#BFBFBF" d="M31.028,27.058c0-1.322,1.072-2.396,2.394-2.396c1.322,0,2.395,1.071,2.395,2.396" />
        <path fill="#E6E6E6" d="M35.815,27.058c0,1.321-1.071,2.393-2.395,2.393c-1.32,0-2.394-1.07-2.394-2.393" />
        <circle fill="#383838" cx="33.42" cy="27.057" r="1.197" />
      </g>
      <g id="~c4" data-pin="~c4">
        <path fill="#BFBFBF" d="M31.028,34.256c0-1.319,1.072-2.394,2.394-2.394c1.322,0,2.395,1.072,2.395,2.394" />
        <path fill="#E6E6E6" d="M35.815,34.256c0,1.322-1.071,2.396-2.395,2.396c-1.32,0-2.394-1.072-2.394-2.396l0,0" />
        <circle fill="#383838" cx="33.42" cy="34.257" r="1.196" />
      </g>
      <g id="~d4" data-pin="~d4">
        <path fill="#BFBFBF" d="M31.028,41.457c0-1.322,1.072-2.396,2.394-2.396c1.322,0,2.395,1.072,2.395,2.396" />
        <path fill="#E6E6E6" d="M35.815,41.457c0,1.321-1.071,2.394-2.395,2.394c-1.32,0-2.394-1.07-2.394-2.394" />
        <circle fill="#383838" cx="33.42" cy="41.457" r="1.197" />
      </g>
      <g id="~e4" data-pin="~e4">
        <path fill="#BFBFBF" d="M31.028,48.657c0-1.322,1.072-2.394,2.394-2.394c1.322,0,2.395,1.07,2.395,2.394" />
        <path fill="#E6E6E6" d="M35.815,48.657c0,1.322-1.071,2.395-2.395,2.395c-1.32,0-2.394-1.072-2.394-2.395" />
        <circle fill="#383838" cx="33.42" cy="48.657" r="1.197" />
      </g>
      <g id="~a5" data-pin="~a5">
        <path fill="#BFBFBF" d="M38.228,19.858c0-1.322,1.07-2.396,2.394-2.396c1.324,0,2.395,1.072,2.395,2.396" />
        <path fill="#E6E6E6" d="M43.015,19.858c0,1.319-1.071,2.393-2.395,2.393c-1.324,0-2.394-1.072-2.394-2.393l0,0" />
        <circle fill="#383838" cx="40.62" cy="19.857" r="1.196" />
      </g>
      <g id="~b5" data-pin="~b5">
        <path fill="#BFBFBF" d="M38.228,27.058c0-1.322,1.07-2.396,2.394-2.396c1.324,0,2.395,1.071,2.395,2.396" />
        <path fill="#E6E6E6" d="M43.015,27.058c0,1.321-1.071,2.393-2.395,2.393c-1.324,0-2.394-1.07-2.394-2.393" />
        <circle fill="#383838" cx="40.62" cy="27.057" r="1.197" />
      </g>
      <g id="~c5" data-pin="~c5">
        <path fill="#BFBFBF" d="M38.228,34.256c0-1.319,1.07-2.394,2.394-2.394c1.324,0,2.395,1.072,2.395,2.394" />
        <path fill="#E6E6E6" d="M43.015,34.256c0,1.322-1.071,2.396-2.395,2.396c-1.324,0-2.394-1.072-2.394-2.396l0,0" />
        <circle fill="#383838" cx="40.62" cy="34.257" r="1.196" />
      </g>
      <g id="~d5" data-pin="~d5">
        <path fill="#BFBFBF" d="M38.228,41.457c0-1.322,1.07-2.396,2.394-2.396c1.324,0,2.395,1.072,2.395,2.396" />
        <path fill="#E6E6E6" d="M43.015,41.457c0,1.321-1.071,2.394-2.395,2.394c-1.324,0-2.394-1.07-2.394-2.394" />
        <circle fill="#383838" cx="40.62" cy="41.457" r="1.197" />
      </g>
      <g id="~e5" data-pin="~e5">
        <path fill="#BFBFBF" d="M38.228,48.657c0-1.322,1.07-2.394,2.394-2.394c1.324,0,2.395,1.07,2.395,2.394" />
        <path fill="#E6E6E6" d="M43.015,48.657c0,1.322-1.071,2.395-2.395,2.395c-1.324,0-2.394-1.072-2.394-2.395" />
        <circle fill="#383838" cx="40.62" cy="48.657" r="1.197" />
      </g>
      <g id="~a6" data-pin="~a6">
        <path fill="#BFBFBF" d="M45.427,19.858c0-1.322,1.071-2.396,2.395-2.396c1.324,0,2.394,1.072,2.394,2.396" />
        <path fill="#E6E6E6" d="M50.214,19.858c0,1.319-1.07,2.393-2.394,2.393c-1.324,0-2.395-1.072-2.395-2.393l0,0" />
        <circle fill="#383838" cx="47.822" cy="19.857" r="1.196" />
      </g>
      <g id="~b6" data-pin="~b6">
        <path fill="#BFBFBF" d="M45.427,27.058c0-1.322,1.071-2.396,2.395-2.396c1.324,0,2.394,1.071,2.394,2.396" />
        <path fill="#E6E6E6" d="M50.214,27.058c0,1.321-1.07,2.393-2.394,2.393c-1.324,0-2.395-1.07-2.395-2.393" />
        <circle fill="#383838" cx="47.822" cy="27.057" r="1.197" />
      </g>
      <g id="~c6" data-pin="~c6">
        <path fill="#BFBFBF" d="M45.427,34.256c0-1.319,1.071-2.394,2.395-2.394c1.324,0,2.394,1.072,2.394,2.394" />
        <path fill="#E6E6E6" d="M50.214,34.256c0,1.322-1.07,2.396-2.394,2.396c-1.324,0-2.395-1.072-2.395-2.396l0,0" />
        <circle fill="#383838" cx="47.822" cy="34.257" r="1.196" />
      </g>
      <g id="~d6" data-pin="~d6">
        <path fill="#BFBFBF" d="M45.427,41.457c0-1.322,1.071-2.396,2.395-2.396c1.324,0,2.394,1.072,2.394,2.396" />
        <path fill="#E6E6E6" d="M50.214,41.457c0,1.321-1.07,2.394-2.394,2.394c-1.324,0-2.395-1.07-2.395-2.394" />
        <circle fill="#383838" cx="47.822" cy="41.457" r="1.197" />
      </g>
      <g id="~e6" data-pin="~e6">
        <path fill="#BFBFBF" d="M45.427,48.657c0-1.322,1.071-2.394,2.395-2.394c1.324,0,2.394,1.07,2.394,2.394" />
        <path fill="#E6E6E6" d="M50.214,48.657c0,1.322-1.07,2.395-2.394,2.395c-1.324,0-2.395-1.072-2.395-2.395" />
        <circle fill="#383838" cx="47.822" cy="48.657" r="1.197" />
      </g>
      <g id="~a7" data-pin="~a7">
        <path fill="#BFBFBF" d="M52.627,19.858c0-1.322,1.071-2.396,2.395-2.396c1.32,0,2.394,1.072,2.394,2.396" />
        <path fill="#E6E6E6" d="M57.414,19.858c0,1.319-1.072,2.393-2.394,2.393s-2.395-1.072-2.395-2.393l0,0" />
        <circle fill="#383838" cx="55.022" cy="19.857" r="1.196" />
      </g>
      <g id="~b7" data-pin="~b7">
        <path fill="#BFBFBF" d="M52.627,27.058c0-1.322,1.071-2.396,2.395-2.396c1.32,0,2.394,1.071,2.394,2.396" />
        <path fill="#E6E6E6" d="M57.414,27.058c0,1.321-1.072,2.393-2.394,2.393s-2.395-1.07-2.395-2.393" />
        <circle fill="#383838" cx="55.022" cy="27.057" r="1.197" />
      </g>
      <g id="~c7" data-pin="~c7">
        <path fill="#BFBFBF" d="M52.627,34.256c0-1.319,1.071-2.394,2.395-2.394c1.32,0,2.394,1.072,2.394,2.394" />
        <path fill="#E6E6E6" d="M57.414,34.256c0,1.322-1.072,2.396-2.394,2.396s-2.395-1.072-2.395-2.396l0,0" />
        <circle fill="#383838" cx="55.022" cy="34.257" r="1.196" />
      </g>
      <g id="~d7" data-pin="~d7">
        <path fill="#BFBFBF" d="M52.627,41.457c0-1.322,1.071-2.396,2.395-2.396c1.32,0,2.394,1.072,2.394,2.396" />
        <path fill="#E6E6E6" d="M57.414,41.457c0,1.321-1.072,2.394-2.394,2.394s-2.395-1.07-2.395-2.394" />
        <circle fill="#383838" cx="55.022" cy="41.457" r="1.197" />
      </g>
      <g id="~e7" data-pin="~e7">
        <path fill="#BFBFBF" d="M52.627,48.657c0-1.322,1.071-2.394,2.395-2.394c1.32,0,2.394,1.07,2.394,2.394" />
        <path fill="#E6E6E6" d="M57.414,48.657c0,1.322-1.072,2.395-2.394,2.395s-2.395-1.072-2.395-2.395" />
        <circle fill="#383838" cx="55.022" cy="48.657" r="1.197" />
      </g>
      <g id="~a8" data-pin="~a8">
        <path fill="#BFBFBF" d="M59.826,19.858c0-1.322,1.072-2.396,2.395-2.396c1.321,0,2.393,1.072,2.393,2.396" />
        <path fill="#E6E6E6" d="M64.614,19.858c0,1.319-1.07,2.393-2.393,2.393c-1.323,0-2.395-1.072-2.395-2.393l0,0" />
        <circle fill="#383838" cx="62.221" cy="19.857" r="1.196" />
      </g>
      <g id="~b8" data-pin="~b8">
        <path fill="#BFBFBF" d="M59.826,27.058c0-1.322,1.072-2.396,2.395-2.396c1.321,0,2.393,1.071,2.393,2.396" />
        <path fill="#E6E6E6" d="M64.614,27.058c0,1.321-1.07,2.393-2.393,2.393c-1.323,0-2.395-1.07-2.395-2.393" />
        <circle fill="#383838" cx="62.221" cy="27.057" r="1.197" />
      </g>
      <g id="~c8" data-pin="~c8">
        <path fill="#BFBFBF" d="M59.826,34.256c0-1.319,1.072-2.394,2.395-2.394c1.321,0,2.393,1.072,2.393,2.394" />
        <path fill="#E6E6E6" d="M64.614,34.256c0,1.322-1.07,2.396-2.393,2.396c-1.323,0-2.395-1.072-2.395-2.396l0,0" />
        <circle fill="#383838" cx="62.221" cy="34.257" r="1.196" />
      </g>
      <g id="~d8" data-pin="~d8">
        <path fill="#BFBFBF" d="M59.826,41.457c0-1.322,1.072-2.396,2.395-2.396c1.321,0,2.393,1.072,2.393,2.396" />
        <path fill="#E6E6E6" d="M64.614,41.457c0,1.321-1.07,2.394-2.393,2.394c-1.323,0-2.395-1.07-2.395-2.394" />
        <circle fill="#383838" cx="62.221" cy="41.457" r="1.197" />
      </g>
      <g id="~e8" data-pin="~e8">
        <path fill="#BFBFBF" d="M59.826,48.657c0-1.322,1.072-2.394,2.395-2.394c1.321,0,2.393,1.07,2.393,2.394" />
        <path fill="#E6E6E6" d="M64.614,48.657c0,1.322-1.07,2.395-2.393,2.395c-1.323,0-2.395-1.072-2.395-2.395" />
        <circle fill="#383838" cx="62.221" cy="48.657" r="1.197" />
      </g>
      <g id="~a9" data-pin="~a9">
        <path fill="#BFBFBF" d="M67.028,19.858c0-1.322,1.072-2.396,2.393-2.396c1.323,0,2.396,1.072,2.396,2.396" />
        <path fill="#E6E6E6" d="M71.815,19.858c0,1.319-1.071,2.393-2.396,2.393c-1.319,0-2.393-1.072-2.393-2.393l0,0" />
        <circle fill="#383838" cx="69.42" cy="19.857" r="1.196" />
      </g>
      <g id="~b9" data-pin="~b9">
        <path fill="#BFBFBF" d="M67.028,27.058c0-1.322,1.072-2.396,2.393-2.396c1.323,0,2.396,1.071,2.396,2.396" />
        <path fill="#E6E6E6" d="M71.815,27.058c0,1.321-1.071,2.393-2.396,2.393c-1.319,0-2.393-1.07-2.393-2.393" />
        <circle fill="#383838" cx="69.42" cy="27.057" r="1.197" />
      </g>
      <g id="~c9" data-pin="~c9">
        <path fill="#BFBFBF" d="M67.028,34.256c0-1.319,1.072-2.394,2.393-2.394c1.323,0,2.396,1.072,2.396,2.394" />
        <path fill="#E6E6E6" d="M71.815,34.256c0,1.322-1.071,2.396-2.396,2.396c-1.319,0-2.393-1.072-2.393-2.396l0,0" />
        <circle fill="#383838" cx="69.42" cy="34.257" r="1.196" />
      </g>
      <g id="~d9" data-pin="~d9">
        <path fill="#BFBFBF" d="M67.028,41.457c0-1.322,1.072-2.396,2.393-2.396c1.323,0,2.396,1.072,2.396,2.396" />
        <path fill="#E6E6E6" d="M71.815,41.457c0,1.321-1.071,2.394-2.396,2.394c-1.319,0-2.393-1.07-2.393-2.394" />
        <circle fill="#383838" cx="69.42" cy="41.457" r="1.197" />
      </g>
      <g id="~e9" data-pin="~e9">
        <path fill="#BFBFBF" d="M67.028,48.657c0-1.322,1.072-2.394,2.393-2.394c1.323,0,2.396,1.07,2.396,2.394" />
        <path fill="#E6E6E6" d="M71.815,48.657c0,1.322-1.071,2.395-2.396,2.395c-1.319,0-2.393-1.072-2.393-2.395" />
        <circle fill="#383838" cx="69.42" cy="48.657" r="1.197" />
      </g>
      <g id="~a10" data-pin="~a10">
        <path fill="#BFBFBF" d="M74.227,19.858c0-1.322,1.071-2.396,2.396-2.396c1.323,0,2.394,1.072,2.394,2.396" />
        <path fill="#E6E6E6" d="M79.014,19.858c0,1.319-1.07,2.393-2.394,2.393c-1.324,0-2.396-1.072-2.396-2.393l0,0" />
        <circle fill="#383838" cx="76.621" cy="19.857" r="1.196" />
      </g>
      <g id="~b10" data-pin="~b10">
        <path fill="#BFBFBF" d="M74.227,27.058c0-1.322,1.071-2.396,2.396-2.396c1.323,0,2.394,1.071,2.394,2.396" />
        <path fill="#E6E6E6" d="M79.014,27.058c0,1.321-1.07,2.393-2.394,2.393c-1.324,0-2.396-1.07-2.396-2.393" />
        <circle fill="#383838" cx="76.621" cy="27.057" r="1.197" />
      </g>
      <g id="~c10" data-pin="~c10">
        <path fill="#BFBFBF" d="M74.227,34.256c0-1.319,1.071-2.394,2.396-2.394c1.323,0,2.394,1.072,2.394,2.394" />
        <path fill="#E6E6E6" d="M79.014,34.256c0,1.322-1.07,2.396-2.394,2.396c-1.324,0-2.396-1.072-2.396-2.396l0,0" />
        <circle fill="#383838" cx="76.621" cy="34.257" r="1.196" />
      </g>
      <g id="~d10" data-pin="~d10">
        <path fill="#BFBFBF" d="M74.227,41.457c0-1.322,1.071-2.396,2.396-2.396c1.323,0,2.394,1.072,2.394,2.396" />
        <path fill="#E6E6E6" d="M79.014,41.457c0,1.321-1.07,2.394-2.394,2.394c-1.324,0-2.396-1.07-2.396-2.394" />
        <circle fill="#383838" cx="76.621" cy="41.457" r="1.197" />
      </g>
      <g id="~e10" data-pin="~e10">
        <path fill="#BFBFBF" d="M74.227,48.657c0-1.322,1.071-2.394,2.396-2.394c1.323,0,2.394,1.07,2.394,2.394" />
        <path fill="#E6E6E6" d="M79.014,48.657c0,1.322-1.07,2.395-2.394,2.395c-1.324,0-2.396-1.072-2.396-2.395" />
        <circle fill="#383838" cx="76.621" cy="48.657" r="1.197" />
      </g>
      <g id="~a11" data-pin="~a11">
        <path fill="#BFBFBF" d="M81.428,19.858c0-1.322,1.069-2.396,2.394-2.396s2.395,1.072,2.395,2.396" />
        <path fill="#E6E6E6" d="M86.214,19.858c0,1.319-1.07,2.393-2.395,2.393s-2.395-1.072-2.395-2.393l0,0" />
        <circle fill="#383838" cx="83.821" cy="19.857" r="1.196" />
      </g>
      <g id="~b11" data-pin="~b11">
        <path fill="#BFBFBF" d="M81.428,27.058c0-1.322,1.069-2.396,2.394-2.396s2.395,1.071,2.395,2.396" />
        <path fill="#E6E6E6" d="M86.214,27.058c0,1.321-1.07,2.393-2.395,2.393s-2.395-1.07-2.395-2.393" />
        <circle fill="#383838" cx="83.821" cy="27.057" r="1.197" />
      </g>
      <g id="~c11" data-pin="~c11">
        <path fill="#BFBFBF" d="M81.428,34.256c0-1.319,1.069-2.394,2.394-2.394s2.395,1.072,2.395,2.394" />
        <path fill="#E6E6E6" d="M86.214,34.256c0,1.322-1.07,2.396-2.395,2.396s-2.395-1.072-2.395-2.396l0,0" />
        <circle fill="#383838" cx="83.821" cy="34.257" r="1.196" />
      </g>
      <g id="~d11" data-pin="~d11">
        <path fill="#BFBFBF" d="M81.428,41.457c0-1.322,1.069-2.396,2.394-2.396s2.395,1.072,2.395,2.396" />
        <path fill="#E6E6E6" d="M86.214,41.457c0,1.321-1.07,2.394-2.395,2.394s-2.395-1.07-2.395-2.394" />
        <circle fill="#383838" cx="83.821" cy="41.457" r="1.197" />
      </g>
      <g id="~e11" data-pin="~e11">
        <path fill="#BFBFBF" d="M81.428,48.657c0-1.322,1.069-2.394,2.394-2.394s2.395,1.07,2.395,2.394" />
        <path fill="#E6E6E6" d="M86.214,48.657c0,1.322-1.07,2.395-2.395,2.395s-2.395-1.072-2.395-2.395" />
        <circle fill="#383838" cx="83.821" cy="48.657" r="1.197" />
      </g>
      <g id="~a12" data-pin="~a12">
        <path fill="#BFBFBF" d="M88.626,19.858c0-1.322,1.072-2.396,2.396-2.396c1.318,0,2.393,1.072,2.393,2.396" />
        <path fill="#E6E6E6" d="M93.414,19.858c0,1.319-1.072,2.393-2.393,2.393c-1.322,0-2.396-1.072-2.396-2.393l0,0" />
        <circle fill="#383838" cx="91.022" cy="19.857" r="1.196" />
      </g>
      <g id="~b12" data-pin="~b12">
        <path fill="#BFBFBF" d="M88.626,27.058c0-1.322,1.072-2.396,2.396-2.396c1.318,0,2.393,1.071,2.393,2.396" />
        <path fill="#E6E6E6" d="M93.414,27.058c0,1.321-1.072,2.393-2.393,2.393c-1.322,0-2.396-1.07-2.396-2.393" />
        <circle fill="#383838" cx="91.022" cy="27.057" r="1.197" />
      </g>
      <g id="~c12" data-pin="~c12">
        <path fill="#BFBFBF" d="M88.626,34.256c0-1.319,1.072-2.394,2.396-2.394c1.318,0,2.393,1.072,2.393,2.394" />
        <path fill="#E6E6E6" d="M93.414,34.256c0,1.322-1.072,2.396-2.393,2.396c-1.322,0-2.396-1.072-2.396-2.396l0,0" />
        <circle fill="#383838" cx="91.022" cy="34.257" r="1.196" />
      </g>
      <g id="~d12" data-pin="~d12">
        <path fill="#BFBFBF" d="M88.626,41.457c0-1.322,1.072-2.396,2.396-2.396c1.318,0,2.393,1.072,2.393,2.396" />
        <path fill="#E6E6E6" d="M93.414,41.457c0,1.321-1.072,2.394-2.393,2.394c-1.322,0-2.396-1.07-2.396-2.394" />
        <circle fill="#383838" cx="91.022" cy="41.457" r="1.197" />
      </g>
      <g id="~e12" data-pin="~e12">
        <path fill="#BFBFBF" d="M88.626,48.657c0-1.322,1.072-2.394,2.396-2.394c1.318,0,2.393,1.07,2.393,2.394" />
        <path fill="#E6E6E6" d="M93.414,48.657c0,1.322-1.072,2.395-2.393,2.395c-1.322,0-2.396-1.072-2.396-2.395" />
        <circle fill="#383838" cx="91.022" cy="48.657" r="1.197" />
      </g>
      <g id="~a13" data-pin="~a13">
        <path fill="#BFBFBF" d="M95.826,19.858c0-1.322,1.072-2.396,2.396-2.396c1.322,0,2.393,1.072,2.393,2.396" />
        <path fill="#E6E6E6" d="M100.614,19.858c0,1.319-1.069,2.393-2.393,2.393s-2.396-1.072-2.396-2.393l0,0" />
        <circle fill="#383838" cx="98.221" cy="19.857" r="1.196" />
      </g>
      <g id="~b13" data-pin="~b13">
        <path fill="#BFBFBF" d="M95.826,27.058c0-1.322,1.072-2.396,2.396-2.396c1.322,0,2.393,1.071,2.393,2.396" />
        <path fill="#E6E6E6" d="M100.614,27.058c0,1.321-1.069,2.393-2.393,2.393s-2.396-1.07-2.396-2.393" />
        <circle fill="#383838" cx="98.221" cy="27.057" r="1.197" />
      </g>
      <g id="~c13" data-pin="~c13">
        <path fill="#BFBFBF" d="M95.826,34.256c0-1.319,1.072-2.394,2.396-2.394c1.322,0,2.393,1.072,2.393,2.394" />
        <path fill="#E6E6E6" d="M100.614,34.256c0,1.322-1.069,2.396-2.393,2.396s-2.396-1.072-2.396-2.396l0,0" />
        <circle fill="#383838" cx="98.221" cy="34.257" r="1.196" />
      </g>
      <g id="~d13" data-pin="~d13">
        <path fill="#BFBFBF" d="M95.826,41.457c0-1.322,1.072-2.396,2.396-2.396c1.322,0,2.393,1.072,2.393,2.396" />
        <path fill="#E6E6E6" d="M100.614,41.457c0,1.321-1.069,2.394-2.393,2.394s-2.396-1.07-2.396-2.394" />
        <circle fill="#383838" cx="98.221" cy="41.457" r="1.197" />
      </g>
      <g id="~e13" data-pin="~e13">
        <path fill="#BFBFBF" d="M95.826,48.657c0-1.322,1.072-2.394,2.396-2.394c1.322,0,2.393,1.07,2.393,2.394" />
        <path fill="#E6E6E6" d="M100.614,48.657c0,1.322-1.069,2.395-2.393,2.395s-2.396-1.072-2.396-2.395" />
        <circle fill="#383838" cx="98.221" cy="48.657" r="1.197" />
      </g>
      <g id="~a14" data-pin="~a14">
        <path fill="#BFBFBF" d="M103.028,19.858c0-1.322,1.07-2.396,2.394-2.396c1.322,0,2.396,1.072,2.396,2.396" />
        <path fill="#E6E6E6" d="M107.815,19.858c0,1.319-1.071,2.393-2.396,2.393c-1.322,0-2.394-1.072-2.394-2.393l0,0" />
        <circle fill="#383838" cx="105.419" cy="19.857" r="1.196" />
      </g>
      <g id="~b14" data-pin="~b14">
        <path fill="#BFBFBF" d="M103.028,27.058c0-1.322,1.07-2.396,2.394-2.396c1.322,0,2.396,1.071,2.396,2.396" />
        <path fill="#E6E6E6" d="M107.815,27.058c0,1.321-1.071,2.393-2.396,2.393c-1.322,0-2.394-1.07-2.394-2.393" />
        <circle fill="#383838" cx="105.419" cy="27.057" r="1.197" />
      </g>
      <g id="~c14" data-pin="~c14">
        <path fill="#BFBFBF" d="M103.028,34.256c0-1.319,1.07-2.394,2.394-2.394c1.322,0,2.396,1.072,2.396,2.394" />
        <path fill="#E6E6E6" d="M107.815,34.256c0,1.322-1.071,2.396-2.396,2.396c-1.322,0-2.394-1.072-2.394-2.396l0,0" />
        <circle fill="#383838" cx="105.419" cy="34.257" r="1.196" />
      </g>
      <g id="~d14" data-pin="~d14">
        <path fill="#BFBFBF" d="M103.028,41.457c0-1.322,1.07-2.396,2.394-2.396c1.322,0,2.396,1.072,2.396,2.396" />
        <path fill="#E6E6E6" d="M107.815,41.457c0,1.321-1.071,2.394-2.396,2.394c-1.322,0-2.394-1.07-2.394-2.394" />
        <circle fill="#383838" cx="105.419" cy="41.457" r="1.197" />
      </g>
      <g id="~e14" data-pin="~e14">
        <path fill="#BFBFBF" d="M103.028,48.657c0-1.322,1.07-2.394,2.394-2.394c1.322,0,2.396,1.07,2.396,2.394" />
        <path fill="#E6E6E6" d="M107.815,48.657c0,1.322-1.071,2.395-2.396,2.395c-1.322,0-2.394-1.072-2.394-2.395" />
        <circle fill="#383838" cx="105.419" cy="48.657" r="1.197" />
      </g>
      <g id="~a15" data-pin="~a15">
        <path fill="#BFBFBF" d="M110.227,19.858c0.002-1.322,1.075-2.394,2.397-2.392c1.317,0.002,2.387,1.07,2.39,2.392" />
        <path fill="#E6E6E6" d="M115.014,19.858c0.002,1.319-1.068,2.395-2.39,2.396c-1.322,0.002-2.396-1.067-2.397-2.392 c0-0.002,0-0.004,0-0.006" />
        <circle fill="#383838" cx="112.621" cy="19.857" r="1.196" />
      </g>
      <g id="~b15" data-pin="~b15">
        <path fill="#BFBFBF" d="M110.227,27.058c0.002-1.322,1.075-2.394,2.397-2.392c1.317,0.002,2.387,1.071,2.39,2.392" />
        <path fill="#E6E6E6" d="M115.014,27.058c0.002,1.321-1.068,2.395-2.39,2.396c-1.322,0.002-2.396-1.068-2.397-2.39 c0-0.004,0-0.006,0-0.008" />
        <circle fill="#383838" cx="112.621" cy="27.057" r="1.197" />
      </g>
      <g id="~c15" data-pin="~c15">
        <path fill="#BFBFBF" d="M110.227,34.256c0.002-1.319,1.075-2.392,2.397-2.39c1.317,0.003,2.387,1.07,2.39,2.39" />
        <path fill="#E6E6E6" d="M115.014,34.256c0.002,1.322-1.068,2.396-2.39,2.397c-1.322,0.002-2.396-1.067-2.397-2.391 c0-0.002,0-0.004,0-0.008" />
        <circle fill="#383838" cx="112.621" cy="34.257" r="1.196" />
      </g>
      <g id="~d15" data-pin="~d15">
        <path fill="#BFBFBF" d="M110.227,41.457c0.002-1.322,1.075-2.394,2.397-2.392c1.317,0.002,2.387,1.07,2.39,2.392" />
        <path fill="#E6E6E6" d="M115.014,41.457c0.002,1.321-1.068,2.396-2.39,2.396c-1.322,0.002-2.396-1.067-2.397-2.391 c0-0.002,0-0.004,0-0.006" />
        <circle fill="#383838" cx="112.621" cy="41.457" r="1.197" />
      </g>
      <g id="~e15" data-pin="~e15">
        <path fill="#BFBFBF" d="M110.227,48.657c0.002-1.322,1.075-2.394,2.397-2.391c1.317,0.002,2.387,1.071,2.39,2.391" />
        <path fill="#E6E6E6" d="M115.014,48.657c0.002,1.322-1.068,2.395-2.39,2.396c-1.322,0.005-2.396-1.065-2.397-2.389 c0-0.002,0-0.007,0-0.009" />
        <circle fill="#383838" cx="112.621" cy="48.657" r="1.197" />
      </g>
      <g id="~a16" data-pin="~a16">
        <path fill="#BFBFBF" d="M117.428,19.858c0.003-1.322,1.073-2.394,2.396-2.392c1.318,0.002,2.389,1.07,2.391,2.392" />
        <path fill="#E6E6E6" d="M122.214,19.858c0.002,1.319-1.066,2.395-2.391,2.396s-2.395-1.067-2.396-2.392c0-0.002,0-0.004,0-0.006" />
        <circle fill="#383838" cx="119.821" cy="19.857" r="1.196" />
      </g>
      <g id="~b16" data-pin="~b16">
        <path fill="#BFBFBF" d="M117.428,27.058c0.003-1.322,1.073-2.394,2.396-2.392c1.318,0.002,2.389,1.071,2.391,2.392" />
        <path fill="#E6E6E6" d="M122.214,27.058c0.002,1.321-1.066,2.395-2.391,2.396s-2.395-1.068-2.396-2.39c0-0.004,0-0.006,0-0.008" />
        <circle fill="#383838" cx="119.821" cy="27.057" r="1.197" />
      </g>
      <g id="~c16" data-pin="~c16">
        <path fill="#BFBFBF" d="M117.428,34.256c0.003-1.319,1.073-2.392,2.396-2.39c1.318,0.003,2.389,1.07,2.391,2.39" />
        <path fill="#E6E6E6" d="M122.214,34.256c0.002,1.322-1.066,2.396-2.391,2.397s-2.395-1.067-2.396-2.391c0-0.002,0-0.004,0-0.008" />
        <circle fill="#383838" cx="119.821" cy="34.257" r="1.196" />
      </g>
      <g id="~d16" data-pin="~d16">
        <path fill="#BFBFBF" d="M117.428,41.457c0.003-1.322,1.073-2.394,2.396-2.392c1.318,0.002,2.389,1.07,2.391,2.392" />
        <path fill="#E6E6E6" d="M122.214,41.457c0.002,1.321-1.066,2.396-2.391,2.396c-1.322,0.002-2.395-1.067-2.396-2.391 c0-0.002,0-0.004,0-0.006" />
        <circle fill="#383838" cx="119.821" cy="41.457" r="1.197" />
      </g>
      <g id="~e16" data-pin="~e16">
        <path fill="#BFBFBF" d="M117.428,48.657c0.003-1.322,1.073-2.394,2.396-2.391c1.318,0.002,2.389,1.071,2.391,2.391" />
        <path fill="#E6E6E6" d="M122.214,48.657c0.002,1.322-1.066,2.395-2.391,2.396c-1.322,0.005-2.395-1.065-2.396-2.389 c0-0.002,0-0.007,0-0.009" />
        <circle fill="#383838" cx="119.821" cy="48.657" r="1.197" />
      </g>
      <g id="~a17" data-pin="~a17">
        <path fill="#BFBFBF" d="M124.626,19.858c0.002-1.322,1.074-2.394,2.396-2.392c1.318,0.002,2.389,1.07,2.391,2.392" />
        <path fill="#E6E6E6" d="M129.414,19.858c0.002,1.319-1.067,2.395-2.392,2.396c-1.321,0.002-2.396-1.067-2.396-2.392 c0-0.002,0-0.004,0-0.006" />
        <circle fill="#383838" cx="127.02" cy="19.857" r="1.196" />
      </g>
      <g id="~b17" data-pin="~b17">
        <path fill="#BFBFBF" d="M124.626,27.058c0.002-1.322,1.074-2.394,2.396-2.392c1.318,0.002,2.389,1.071,2.391,2.392" />
        <path fill="#E6E6E6" d="M129.414,27.058c0.002,1.321-1.067,2.395-2.392,2.396c-1.321,0.002-2.396-1.068-2.396-2.39 c0-0.004,0-0.006,0-0.008" />
        <circle fill="#383838" cx="127.02" cy="27.057" r="1.197" />
      </g>
      <g id="~c17" data-pin="~c17">
        <path fill="#BFBFBF" d="M124.626,34.256c0.002-1.319,1.074-2.392,2.396-2.39c1.318,0.003,2.389,1.07,2.391,2.39" />
        <path fill="#E6E6E6" d="M129.414,34.256c0.002,1.322-1.067,2.396-2.392,2.397c-1.321,0.002-2.396-1.067-2.396-2.391 c0-0.002,0-0.004,0-0.008" />
        <circle fill="#383838" cx="127.02" cy="34.257" r="1.196" />
      </g>
      <g id="~d17" data-pin="~d17">
        <path fill="#BFBFBF" d="M124.626,41.457c0.002-1.322,1.074-2.394,2.396-2.392c1.318,0.002,2.389,1.07,2.391,2.392" />
        <path fill="#E6E6E6" d="M129.414,41.457c0.002,1.321-1.067,2.396-2.392,2.396c-1.321,0.002-2.396-1.067-2.396-2.391 c0-0.002,0-0.004,0-0.006" />
        <circle fill="#383838" cx="127.02" cy="41.457" r="1.197" />
      </g>
      <g id="~e17" data-pin="~e17">
        <path fill="#BFBFBF" d="M124.626,48.657c0.002-1.322,1.074-2.394,2.396-2.391c1.318,0.002,2.389,1.071,2.391,2.391" />
        <path fill="#E6E6E6" d="M129.414,48.657c0.002,1.322-1.067,2.395-2.392,2.396c-1.321,0.005-2.396-1.065-2.396-2.389 c0-0.002,0-0.007,0-0.009" />
        <circle fill="#383838" cx="127.02" cy="48.657" r="1.197" />
      </g>
      <g id="~f1" data-pin="~f1">
        <path fill="#BFBFBF" d="M9.427,70.256c0-1.32,1.071-2.395,2.395-2.395c1.324,0,2.394,1.07,2.394,2.395" />
        <path fill="#E6E6E6" d="M14.214,70.256c0,1.322-1.07,2.396-2.394,2.396c-1.324,0-2.395-1.072-2.395-2.396l0,0" />
        <circle fill="#383838" cx="11.822" cy="70.257" r="1.196" />
      </g>
      <g id="~g1" data-pin="~g1">
        <path fill="#BFBFBF" d="M9.427,77.457c0-1.322,1.071-2.396,2.395-2.396c1.324,0,2.394,1.072,2.394,2.396" />
        <path fill="#E6E6E6" d="M14.214,77.457c0,1.32-1.07,2.395-2.394,2.395c-1.324,0-2.395-1.07-2.395-2.395l0,0" />
        <circle fill="#383838" cx="11.822" cy="77.456" r="1.196" />
      </g>
      <g id="~h1" data-pin="~h1">
        <path fill="#BFBFBF" d="M9.427,84.657c0-1.322,1.071-2.394,2.395-2.394c1.324,0,2.394,1.069,2.394,2.394" />
        <path fill="#E6E6E6" d="M14.214,84.657c0,1.321-1.07,2.395-2.394,2.395c-1.324,0-2.395-1.071-2.395-2.395" />
        <circle fill="#383838" cx="11.822" cy="84.657" r="1.197" />
      </g>
      <g id="~i1" data-pin="~i1">
        <path fill="#BFBFBF" d="M9.427,91.857c0-1.321,1.071-2.396,2.395-2.396c1.324,0,2.394,1.072,2.394,2.396" />
        <path fill="#E6E6E6" d="M14.214,91.857c0,1.319-1.07,2.394-2.394,2.394c-1.324,0-2.395-1.071-2.395-2.394l0,0" />
        <circle fill="#383838" cx="11.822" cy="91.857" r="1.196" />
      </g>
      <g id="~j1" data-pin="~j1">
        <path fill="#BFBFBF" d="M9.427,99.059c0-1.322,1.071-2.396,2.395-2.396c1.324,0,2.394,1.07,2.394,2.396" />
        <path fill="#E6E6E6" d="M14.214,99.059c0,1.32-1.07,2.393-2.394,2.393c-1.324,0-2.395-1.07-2.395-2.393l0,0" />
        <circle fill="#383838" cx="11.822" cy="99.057" r="1.197" />
      </g>
      <g id="~f2" data-pin="~f2">
        <path fill="#BFBFBF" d="M16.627,70.256c0-1.32,1.071-2.395,2.395-2.395c1.32,0,2.394,1.07,2.394,2.395" />
        <path fill="#E6E6E6" d="M21.414,70.256c0,1.322-1.07,2.396-2.393,2.396c-1.323,0-2.396-1.069-2.396-2.394 c0-0.002,0-0.002,0-0.004" />
        <circle fill="#383838" cx="19.022" cy="70.257" r="1.196" />
      </g>
      <g id="~g2" data-pin="~g2">
        <path fill="#BFBFBF" d="M16.627,77.457c0-1.322,1.071-2.396,2.395-2.396c1.32,0,2.394,1.072,2.394,2.396" />
        <path fill="#E6E6E6" d="M21.414,77.457c0,1.32-1.07,2.396-2.393,2.396c-1.323,0-2.396-1.07-2.396-2.395v-0.002" />
        <circle fill="#383838" cx="19.022" cy="77.456" r="1.196" />
      </g>
      <g id="~h2" data-pin="~h2">
        <path fill="#BFBFBF" d="M16.627,84.657c0-1.322,1.071-2.394,2.395-2.394c1.32,0,2.394,1.069,2.394,2.394" />
        <path fill="#E6E6E6" d="M21.414,84.657c0,1.321-1.07,2.395-2.393,2.395c-1.322,0.003-2.396-1.069-2.396-2.393c0,0,0,0,0-0.002" />
        <circle fill="#383838" cx="19.022" cy="84.657" r="1.197" />
      </g>
      <g id="~i2" data-pin="~i2">
        <path fill="#BFBFBF" d="M16.627,91.857c0-1.321,1.071-2.396,2.395-2.396c1.32,0,2.394,1.072,2.394,2.396" />
        <path fill="#E6E6E6" d="M21.414,91.857c0,1.319-1.07,2.394-2.393,2.396c-1.322,0-2.396-1.069-2.396-2.394 c0-0.002,0-0.002,0-0.002" />
        <circle fill="#383838" cx="19.022" cy="91.857" r="1.196" />
      </g>
      <g id="~j2" data-pin="~j2">
        <path fill="#BFBFBF" d="M16.627,99.059c0-1.322,1.071-2.396,2.395-2.396c1.32,0,2.394,1.07,2.394,2.396" />
        <path fill="#E6E6E6" d="M21.414,99.059c0,1.32-1.07,2.395-2.393,2.395c-1.323,0-2.396-1.07-2.396-2.393v-0.002" />
        <circle fill="#383838" cx="19.022" cy="99.057" r="1.197" />
      </g>
      <g id="~f3" data-pin="~f3">
        <path fill="#BFBFBF" d="M23.826,70.256c0-1.32,1.072-2.395,2.395-2.395c1.321,0,2.395,1.07,2.395,2.395" />
        <path fill="#E6E6E6" d="M28.615,70.256c0,1.322-1.072,2.396-2.395,2.396c-1.321,0-2.395-1.072-2.395-2.396" />
        <circle fill="#383838" cx="26.221" cy="70.257" r="1.196" />
      </g>
      <g id="~g3" data-pin="~g3">
        <path fill="#BFBFBF" d="M23.826,77.457c0-1.322,1.072-2.396,2.395-2.396c1.321,0,2.395,1.072,2.395,2.396" />
        <path fill="#E6E6E6" d="M28.615,77.457c0,1.32-1.072,2.395-2.395,2.395c-1.321,0-2.395-1.07-2.395-2.395" />
        <circle fill="#383838" cx="26.221" cy="77.456" r="1.196" />
      </g>
      <g id="~h3" data-pin="~h3">
        <path fill="#BFBFBF" d="M23.826,84.657c0-1.322,1.072-2.394,2.395-2.394c1.321,0,2.395,1.069,2.395,2.394" />
        <path fill="#E6E6E6" d="M28.615,84.657c0,1.321-1.072,2.395-2.395,2.395c-1.321,0-2.395-1.071-2.395-2.395l0,0" />
        <circle fill="#383838" cx="26.221" cy="84.657" r="1.197" />
      </g>
      <g id="~i3" data-pin="~i3">
        <path fill="#BFBFBF" d="M23.826,91.857c0-1.321,1.072-2.396,2.395-2.396c1.321,0,2.395,1.072,2.395,2.396" />
        <path fill="#E6E6E6" d="M28.615,91.857c0,1.319-1.072,2.394-2.395,2.394c-1.321,0-2.395-1.071-2.395-2.394" />
        <circle fill="#383838" cx="26.221" cy="91.857" r="1.196" />
      </g>
      <g id="~j3" data-pin="~j3">
        <path fill="#BFBFBF" d="M23.826,99.059c0-1.322,1.072-2.396,2.395-2.396c1.321,0,2.395,1.07,2.395,2.396" />
        <path fill="#E6E6E6" d="M28.615,99.059c0,1.32-1.072,2.393-2.395,2.393c-1.321,0-2.395-1.07-2.395-2.393l0,0" />
        <circle fill="#383838" cx="26.221" cy="99.057" r="1.197" />
      </g>
      <g id="~f4" data-pin="~f4">
        <path fill="#BFBFBF" d="M31.028,70.256c0-1.32,1.072-2.395,2.394-2.395c1.322,0,2.395,1.07,2.395,2.395" />
        <path fill="#E6E6E6" d="M35.815,70.256c0,1.322-1.071,2.396-2.395,2.396c-1.32,0-2.394-1.072-2.394-2.396" />
        <circle fill="#383838" cx="33.42" cy="70.257" r="1.196" />
      </g>
      <g id="~g4" data-pin="~g4">
        <path fill="#BFBFBF" d="M31.028,77.457c0-1.322,1.072-2.396,2.394-2.396c1.322,0,2.395,1.072,2.395,2.396" />
        <path fill="#E6E6E6" d="M35.815,77.457c0,1.32-1.071,2.395-2.395,2.395c-1.32,0-2.394-1.07-2.394-2.395" />
        <circle fill="#383838" cx="33.42" cy="77.456" r="1.196" />
      </g>
      <g id="~h4" data-pin="~h4">
        <path fill="#BFBFBF" d="M31.028,84.657c0-1.322,1.072-2.394,2.394-2.394c1.322,0,2.395,1.069,2.395,2.394" />
        <path fill="#E6E6E6" d="M35.815,84.657c0,1.321-1.071,2.395-2.395,2.395c-1.32,0-2.394-1.071-2.394-2.395l0,0" />
        <circle fill="#383838" cx="33.42" cy="84.657" r="1.197" />
      </g>
      <g id="~i4" data-pin="~i4">
        <path fill="#BFBFBF" d="M31.028,91.857c0-1.321,1.072-2.396,2.394-2.396c1.322,0,2.395,1.072,2.395,2.396" />
        <path fill="#E6E6E6" d="M35.815,91.857c0,1.319-1.071,2.394-2.395,2.394c-1.32,0-2.394-1.071-2.394-2.394" />
        <circle fill="#383838" cx="33.42" cy="91.857" r="1.196" />
      </g>
      <g id="~j4" data-pin="~j4">
        <path fill="#BFBFBF" d="M31.028,99.059c0-1.322,1.072-2.396,2.394-2.396c1.322,0,2.395,1.07,2.395,2.396" />
        <path fill="#E6E6E6" d="M35.815,99.059c0,1.32-1.071,2.393-2.395,2.393c-1.32,0-2.394-1.07-2.394-2.393l0,0" />
        <circle fill="#383838" cx="33.42" cy="99.057" r="1.197" />
      </g>
      <g id="~f5" data-pin="~f5">
        <path fill="#BFBFBF" d="M38.228,70.256c0-1.32,1.07-2.395,2.394-2.395c1.324,0,2.395,1.07,2.395,2.395" />
        <path fill="#E6E6E6" d="M43.015,70.256c0,1.322-1.071,2.396-2.395,2.396c-1.324,0-2.394-1.072-2.394-2.396" />
        <circle fill="#383838" cx="40.62" cy="70.257" r="1.196" />
      </g>
      <g id="~g5" data-pin="~g5">
        <path fill="#BFBFBF" d="M38.228,77.457c0-1.322,1.07-2.396,2.394-2.396c1.324,0,2.395,1.072,2.395,2.396" />
        <path fill="#E6E6E6" d="M43.015,77.457c0,1.32-1.071,2.395-2.395,2.395c-1.324,0-2.394-1.07-2.394-2.395" />
        <circle fill="#383838" cx="40.62" cy="77.456" r="1.196" />
      </g>
      <g id="~h5" data-pin="~h5">
        <path fill="#BFBFBF" d="M38.228,84.657c0-1.322,1.07-2.394,2.394-2.394c1.324,0,2.395,1.069,2.395,2.394" />
        <path fill="#E6E6E6" d="M43.015,84.657c0,1.321-1.071,2.395-2.395,2.395c-1.324,0-2.394-1.071-2.394-2.395l0,0" />
        <circle fill="#383838" cx="40.62" cy="84.657" r="1.197" />
      </g>
      <g id="~i5" data-pin="~i5">
        <path fill="#BFBFBF" d="M38.228,91.857c0-1.321,1.07-2.396,2.394-2.396c1.324,0,2.395,1.072,2.395,2.396" />
        <path fill="#E6E6E6" d="M43.015,91.857c0,1.319-1.071,2.394-2.395,2.394c-1.324,0-2.394-1.071-2.394-2.394" />
        <circle fill="#383838" cx="40.62" cy="91.857" r="1.196" />
      </g>
      <g id="~j5" data-pin="~j5">
        <path fill="#BFBFBF" d="M38.228,99.059c0-1.322,1.07-2.396,2.394-2.396c1.324,0,2.395,1.07,2.395,2.396" />
        <path fill="#E6E6E6" d="M43.015,99.059c0,1.32-1.071,2.393-2.395,2.393c-1.324,0-2.394-1.07-2.394-2.393l0,0" />
        <circle fill="#383838" cx="40.62" cy="99.057" r="1.197" />
      </g>
      <g id="~f6" data-pin="~f6">
        <path fill="#BFBFBF" d="M45.427,70.256c0-1.32,1.071-2.395,2.395-2.395c1.324,0,2.394,1.07,2.394,2.395" />
        <path fill="#E6E6E6" d="M50.214,70.256c0,1.322-1.07,2.396-2.394,2.396c-1.324,0-2.395-1.072-2.395-2.396" />
        <circle fill="#383838" cx="47.822" cy="70.257" r="1.196" />
      </g>
      <g id="~g6" data-pin="~g6">
        <path fill="#BFBFBF" d="M45.427,77.457c0-1.322,1.071-2.396,2.395-2.396c1.324,0,2.394,1.072,2.394,2.396" />
        <path fill="#E6E6E6" d="M50.214,77.457c0,1.32-1.07,2.395-2.394,2.395c-1.324,0-2.395-1.07-2.395-2.395" />
        <circle fill="#383838" cx="47.822" cy="77.456" r="1.196" />
      </g>
      <g id="~h6" data-pin="~h6">
        <path fill="#BFBFBF" d="M45.427,84.657c0-1.322,1.071-2.394,2.395-2.394c1.324,0,2.394,1.069,2.394,2.394" />
        <path fill="#E6E6E6" d="M50.214,84.657c0,1.321-1.07,2.395-2.394,2.395c-1.324,0-2.395-1.071-2.395-2.395l0,0" />
        <circle fill="#383838" cx="47.822" cy="84.657" r="1.197" />
      </g>
      <g id="~i6" data-pin="~i6">
        <path fill="#BFBFBF" d="M45.427,91.857c0-1.321,1.071-2.396,2.395-2.396c1.324,0,2.394,1.072,2.394,2.396" />
        <path fill="#E6E6E6" d="M50.214,91.857c0,1.319-1.07,2.394-2.394,2.394c-1.324,0-2.395-1.071-2.395-2.394" />
        <circle fill="#383838" cx="47.822" cy="91.857" r="1.196" />
      </g>
      <g id="~j6" data-pin="~j6">
        <path fill="#BFBFBF" d="M45.427,99.059c0-1.322,1.071-2.396,2.395-2.396c1.324,0,2.394,1.07,2.394,2.396" />
        <path fill="#E6E6E6" d="M50.214,99.059c0,1.32-1.07,2.393-2.394,2.393c-1.324,0-2.395-1.07-2.395-2.393l0,0" />
        <circle fill="#383838" cx="47.822" cy="99.057" r="1.197" />
      </g>
      <g id="~f7" data-pin="~f7">
        <path fill="#BFBFBF" d="M52.627,70.256c0-1.32,1.071-2.395,2.395-2.395c1.32,0,2.394,1.07,2.394,2.395" />
        <path fill="#E6E6E6" d="M57.414,70.256c0,1.322-1.072,2.396-2.394,2.396s-2.395-1.072-2.395-2.396" />
        <circle fill="#383838" cx="55.022" cy="70.257" r="1.196" />
      </g>
      <g id="~g7" data-pin="~g7">
        <path fill="#BFBFBF" d="M52.627,77.457c0-1.322,1.071-2.396,2.395-2.396c1.32,0,2.394,1.072,2.394,2.396" />
        <path fill="#E6E6E6" d="M57.414,77.457c0,1.32-1.072,2.395-2.394,2.395s-2.395-1.07-2.395-2.395" />
        <circle fill="#383838" cx="55.022" cy="77.456" r="1.196" />
      </g>
      <g id="~h7" data-pin="~h7">
        <path fill="#BFBFBF" d="M52.627,84.657c0-1.322,1.071-2.394,2.395-2.394c1.32,0,2.394,1.069,2.394,2.394" />
        <path fill="#E6E6E6" d="M57.414,84.657c0,1.321-1.072,2.395-2.394,2.395s-2.395-1.071-2.395-2.395l0,0" />
        <circle fill="#383838" cx="55.022" cy="84.657" r="1.197" />
      </g>
      <g id="~i7" data-pin="~i7">
        <path fill="#BFBFBF" d="M52.627,91.857c0-1.321,1.071-2.396,2.395-2.396c1.32,0,2.394,1.072,2.394,2.396" />
        <path fill="#E6E6E6" d="M57.414,91.857c0,1.319-1.072,2.394-2.394,2.394s-2.395-1.071-2.395-2.394" />
        <circle fill="#383838" cx="55.022" cy="91.857" r="1.196" />
      </g>
      <g id="~j7" data-pin="~j7">
        <path fill="#BFBFBF" d="M52.627,99.059c0-1.322,1.071-2.396,2.395-2.396c1.32,0,2.394,1.07,2.394,2.396" />
        <path fill="#E6E6E6" d="M57.414,99.059c0,1.32-1.072,2.393-2.394,2.393s-2.395-1.07-2.395-2.393l0,0" />
        <circle fill="#383838" cx="55.022" cy="99.057" r="1.197" />
      </g>
      <g id="~f8" data-pin="~f8">
        <path fill="#BFBFBF" d="M59.826,70.256c0-1.32,1.072-2.395,2.395-2.395c1.321,0,2.393,1.07,2.393,2.395" />
        <path fill="#E6E6E6" d="M64.614,70.256c0,1.322-1.07,2.396-2.393,2.396c-1.323,0-2.395-1.072-2.395-2.396" />
        <circle fill="#383838" cx="62.221" cy="70.257" r="1.196" />
      </g>
      <g id="~g8" data-pin="~g8">
        <path fill="#BFBFBF" d="M59.826,77.457c0-1.322,1.072-2.396,2.395-2.396c1.321,0,2.393,1.072,2.393,2.396" />
        <path fill="#E6E6E6" d="M64.614,77.457c0,1.32-1.07,2.395-2.393,2.395c-1.323,0-2.395-1.07-2.395-2.395" />
        <circle fill="#383838" cx="62.221" cy="77.456" r="1.196" />
      </g>
      <g id="~h8" data-pin="~h8">
        <path fill="#BFBFBF" d="M59.826,84.657c0-1.322,1.072-2.394,2.395-2.394c1.321,0,2.393,1.069,2.393,2.394" />
        <path fill="#E6E6E6" d="M64.614,84.657c0,1.321-1.07,2.395-2.393,2.395c-1.323,0-2.395-1.071-2.395-2.395l0,0" />
        <circle fill="#383838" cx="62.221" cy="84.657" r="1.197" />
      </g>
      <g id="~i8" data-pin="~i8">
        <path fill="#BFBFBF" d="M59.826,91.857c0-1.321,1.072-2.396,2.395-2.396c1.321,0,2.393,1.072,2.393,2.396" />
        <path fill="#E6E6E6" d="M64.614,91.857c0,1.319-1.07,2.394-2.393,2.394c-1.323,0-2.395-1.071-2.395-2.394" />
        <circle fill="#383838" cx="62.221" cy="91.857" r="1.196" />
      </g>
      <g id="~j8" data-pin="~j8">
        <path fill="#BFBFBF" d="M59.826,99.059c0-1.322,1.072-2.396,2.395-2.396c1.321,0,2.393,1.07,2.393,2.396" />
        <path fill="#E6E6E6" d="M64.614,99.059c0,1.32-1.07,2.393-2.393,2.393c-1.323,0-2.395-1.07-2.395-2.393l0,0" />
        <circle fill="#383838" cx="62.221" cy="99.057" r="1.197" />
      </g>
      <g id="~f9" data-pin="~f9">
        <path fill="#BFBFBF" d="M67.028,70.256c0-1.32,1.072-2.395,2.393-2.395c1.323,0,2.396,1.07,2.396,2.395" />
        <path fill="#E6E6E6" d="M71.815,70.256c0,1.322-1.071,2.396-2.396,2.396c-1.319,0-2.393-1.072-2.393-2.396" />
        <circle fill="#383838" cx="69.42" cy="70.257" r="1.196" />
      </g>
      <g id="~g9" data-pin="~g9">
        <path fill="#BFBFBF" d="M67.028,77.457c0-1.322,1.072-2.396,2.393-2.396c1.323,0,2.396,1.072,2.396,2.396" />
        <path fill="#E6E6E6" d="M71.815,77.457c0,1.32-1.071,2.395-2.396,2.395c-1.319,0-2.393-1.07-2.393-2.395" />
        <circle fill="#383838" cx="69.42" cy="77.456" r="1.196" />
      </g>
      <g id="~h9" data-pin="~h9">
        <path fill="#BFBFBF" d="M67.028,84.657c0-1.322,1.072-2.394,2.393-2.394c1.323,0,2.396,1.069,2.396,2.394" />
        <path fill="#E6E6E6" d="M71.815,84.657c0,1.321-1.071,2.395-2.396,2.395c-1.319,0-2.393-1.071-2.393-2.395l0,0" />
        <circle fill="#383838" cx="69.42" cy="84.657" r="1.197" />
      </g>
      <g id="~i9" data-pin="~i9">
        <path fill="#BFBFBF" d="M67.028,91.857c0-1.321,1.072-2.396,2.393-2.396c1.323,0,2.396,1.072,2.396,2.396" />
        <path fill="#E6E6E6" d="M71.815,91.857c0,1.319-1.071,2.394-2.396,2.394c-1.319,0-2.393-1.071-2.393-2.394" />
        <circle fill="#383838" cx="69.42" cy="91.857" r="1.196" />
      </g>
      <g id="~j9" data-pin="~j9">
        <path fill="#BFBFBF" d="M67.028,99.059c0-1.322,1.072-2.396,2.393-2.396c1.323,0,2.396,1.07,2.396,2.396" />
        <path fill="#E6E6E6" d="M71.815,99.059c0,1.32-1.071,2.393-2.396,2.393c-1.319,0-2.393-1.07-2.393-2.393l0,0" />
        <circle fill="#383838" cx="69.42" cy="99.057" r="1.197" />
      </g>
      <g id="~f10" data-pin="~f10">
        <path fill="#BFBFBF" d="M74.227,70.256c0-1.32,1.071-2.395,2.396-2.395c1.323,0,2.394,1.07,2.394,2.395" />
        <path fill="#E6E6E6" d="M79.014,70.256c0,1.322-1.07,2.396-2.394,2.396c-1.324,0-2.396-1.072-2.396-2.396" />
        <circle fill="#383838" cx="76.621" cy="70.257" r="1.196" />
      </g>
      <g id="~g10" data-pin="~g10">
        <path fill="#BFBFBF" d="M74.227,77.457c0-1.322,1.071-2.396,2.396-2.396c1.323,0,2.394,1.072,2.394,2.396" />
        <path fill="#E6E6E6" d="M79.014,77.457c0,1.32-1.07,2.395-2.394,2.395c-1.324,0-2.396-1.07-2.396-2.395" />
        <circle fill="#383838" cx="76.621" cy="77.456" r="1.196" />
      </g>
      <g id="~h10" data-pin="~h10">
        <path fill="#BFBFBF" d="M74.227,84.657c0-1.322,1.071-2.394,2.396-2.394c1.323,0,2.394,1.069,2.394,2.394" />
        <path fill="#E6E6E6" d="M79.014,84.657c0,1.321-1.07,2.395-2.394,2.395c-1.324,0-2.396-1.071-2.396-2.395l0,0" />
        <circle fill="#383838" cx="76.621" cy="84.657" r="1.197" />
      </g>
      <g id="~i10" data-pin="~i10">
        <path fill="#BFBFBF" d="M74.227,91.857c0-1.321,1.071-2.396,2.396-2.396c1.323,0,2.394,1.072,2.394,2.396" />
        <path fill="#E6E6E6" d="M79.014,91.857c0,1.319-1.07,2.394-2.394,2.394c-1.324,0-2.396-1.071-2.396-2.394" />
        <circle fill="#383838" cx="76.621" cy="91.857" r="1.196" />
      </g>
      <g id="~j10" data-pin="~j10">
        <path fill="#BFBFBF" d="M74.227,99.059c0-1.322,1.071-2.396,2.396-2.396c1.323,0,2.394,1.07,2.394,2.396" />
        <path fill="#E6E6E6" d="M79.014,99.059c0,1.32-1.07,2.393-2.394,2.393c-1.324,0-2.396-1.07-2.396-2.393l0,0" />
        <circle fill="#383838" cx="76.621" cy="99.057" r="1.197" />
      </g>
      <g id="~f11" data-pin="~f11">
        <path fill="#BFBFBF" d="M81.428,70.256c0-1.32,1.069-2.395,2.394-2.395s2.395,1.07,2.395,2.395" />
        <path fill="#E6E6E6" d="M86.214,70.256c0,1.322-1.07,2.396-2.395,2.396s-2.395-1.072-2.395-2.396" />
        <circle fill="#383838" cx="83.821" cy="70.257" r="1.196" />
      </g>
      <g id="~g11" data-pin="~g11">
        <path fill="#BFBFBF" d="M81.428,77.457c0-1.322,1.069-2.396,2.394-2.396s2.395,1.072,2.395,2.396" />
        <path fill="#E6E6E6" d="M86.214,77.457c0,1.32-1.07,2.395-2.395,2.395s-2.395-1.07-2.395-2.395" />
        <circle fill="#383838" cx="83.821" cy="77.456" r="1.196" />
      </g>
      <g id="~h11" data-pin="~h11">
        <path fill="#BFBFBF" d="M81.428,84.657c0-1.322,1.069-2.394,2.394-2.394s2.395,1.069,2.395,2.394" />
        <path fill="#E6E6E6" d="M86.214,84.657c0,1.321-1.07,2.395-2.395,2.395s-2.395-1.071-2.395-2.395l0,0" />
        <circle fill="#383838" cx="83.821" cy="84.657" r="1.197" />
      </g>
      <g id="~i11" data-pin="~i11">
        <path fill="#BFBFBF" d="M81.428,91.857c0-1.321,1.069-2.396,2.394-2.396s2.395,1.072,2.395,2.396" />
        <path fill="#E6E6E6" d="M86.214,91.857c0,1.319-1.07,2.394-2.395,2.394s-2.395-1.071-2.395-2.394" />
        <circle fill="#383838" cx="83.821" cy="91.857" r="1.196" />
      </g>
      <g id="~j11" data-pin="~j11">
        <path fill="#BFBFBF" d="M81.428,99.059c0-1.322,1.069-2.396,2.394-2.396s2.395,1.07,2.395,2.396" />
        <path fill="#E6E6E6" d="M86.214,99.059c0,1.32-1.07,2.393-2.395,2.393s-2.395-1.07-2.395-2.393l0,0" />
        <circle fill="#383838" cx="83.821" cy="99.057" r="1.197" />
      </g>
      <g id="~f12" data-pin="~f12">
        <path fill="#BFBFBF" d="M88.626,70.256c0-1.32,1.072-2.395,2.396-2.395c1.318,0,2.393,1.07,2.393,2.395" />
        <path fill="#E6E6E6" d="M93.414,70.256c0,1.322-1.072,2.396-2.393,2.396c-1.322,0-2.396-1.072-2.396-2.396" />
        <circle fill="#383838" cx="91.022" cy="70.257" r="1.196" />
      </g>
      <g id="~g12" data-pin="~g12">
        <path fill="#BFBFBF" d="M88.626,77.457c0-1.322,1.072-2.396,2.396-2.396c1.318,0,2.393,1.072,2.393,2.396" />
        <path fill="#E6E6E6" d="M93.414,77.457c0,1.32-1.072,2.395-2.393,2.395c-1.322,0-2.396-1.07-2.396-2.395" />
        <circle fill="#383838" cx="91.022" cy="77.456" r="1.196" />
      </g>
      <g id="~h12" data-pin="~h12">
        <path fill="#BFBFBF" d="M88.626,84.657c0-1.322,1.072-2.394,2.396-2.394c1.318,0,2.393,1.069,2.393,2.394" />
        <path fill="#E6E6E6" d="M93.414,84.657c0,1.321-1.072,2.395-2.393,2.395c-1.322,0-2.396-1.071-2.396-2.395l0,0" />
        <circle fill="#383838" cx="91.022" cy="84.657" r="1.197" />
      </g>
      <g id="~i12" data-pin="~i12">
        <path fill="#BFBFBF" d="M88.626,91.857c0-1.321,1.072-2.396,2.396-2.396c1.318,0,2.393,1.072,2.393,2.396" />
        <path fill="#E6E6E6" d="M93.414,91.857c0,1.319-1.072,2.394-2.393,2.394c-1.322,0-2.396-1.071-2.396-2.394" />
        <circle fill="#383838" cx="91.022" cy="91.857" r="1.196" />
      </g>
      <g id="~j12" data-pin="~j12">
        <path fill="#BFBFBF" d="M88.626,99.059c0-1.322,1.072-2.396,2.396-2.396c1.318,0,2.393,1.07,2.393,2.396" />
        <path fill="#E6E6E6" d="M93.414,99.059c0,1.32-1.072,2.393-2.393,2.393c-1.322,0-2.396-1.07-2.396-2.393l0,0" />
        <circle fill="#383838" cx="91.022" cy="99.057" r="1.197" />
      </g>
      <g id="~f13" data-pin="~f13">
        <path fill="#BFBFBF" d="M95.826,70.256c0-1.32,1.072-2.395,2.396-2.395c1.322,0,2.393,1.07,2.393,2.395" />
        <path fill="#E6E6E6" d="M100.614,70.256c0,1.322-1.069,2.396-2.393,2.396s-2.396-1.072-2.396-2.396" />
        <circle fill="#383838" cx="98.221" cy="70.257" r="1.196" />
      </g>
      <g id="~g13" data-pin="~g13">
        <path fill="#BFBFBF" d="M95.826,77.457c0-1.322,1.072-2.396,2.396-2.396c1.322,0,2.393,1.072,2.393,2.396" />
        <path fill="#E6E6E6" d="M100.614,77.457c0,1.32-1.069,2.395-2.393,2.395s-2.396-1.07-2.396-2.395" />
        <circle fill="#383838" cx="98.221" cy="77.456" r="1.196" />
      </g>
      <g id="~h13" data-pin="~h13">
        <path fill="#BFBFBF" d="M95.826,84.657c0-1.322,1.072-2.394,2.396-2.394c1.322,0,2.393,1.069,2.393,2.394" />
        <path fill="#E6E6E6" d="M100.614,84.657c0,1.321-1.069,2.395-2.393,2.395s-2.396-1.071-2.396-2.395l0,0" />
        <circle fill="#383838" cx="98.221" cy="84.657" r="1.197" />
      </g>
      <g id="~i13" data-pin="~i13">
        <path fill="#BFBFBF" d="M95.826,91.857c0-1.321,1.072-2.396,2.396-2.396c1.322,0,2.393,1.072,2.393,2.396" />
        <path fill="#E6E6E6" d="M100.614,91.857c0,1.319-1.069,2.394-2.393,2.394s-2.396-1.071-2.396-2.394" />
        <circle fill="#383838" cx="98.221" cy="91.857" r="1.196" />
      </g>
      <g id="~j13" data-pin="~j13">
        <path fill="#BFBFBF" d="M95.826,99.059c0-1.322,1.072-2.396,2.396-2.396c1.322,0,2.393,1.07,2.393,2.396" />
        <path fill="#E6E6E6" d="M100.614,99.059c0,1.32-1.069,2.393-2.393,2.393s-2.396-1.07-2.396-2.393l0,0" />
        <circle fill="#383838" cx="98.221" cy="99.057" r="1.197" />
      </g>
      <g id="~f14" data-pin="~f14">
        <path fill="#BFBFBF" d="M103.028,70.256c0-1.32,1.07-2.395,2.394-2.395c1.322,0,2.396,1.07,2.396,2.395" />
        <path fill="#E6E6E6" d="M107.815,70.256c0,1.322-1.071,2.396-2.396,2.396c-1.322,0-2.394-1.072-2.394-2.396" />
        <circle fill="#383838" cx="105.419" cy="70.257" r="1.196" />
      </g>
      <g id="~g14" data-pin="~g14">
        <path fill="#BFBFBF" d="M103.028,77.457c0-1.322,1.07-2.396,2.394-2.396c1.322,0,2.396,1.072,2.396,2.396" />
        <path fill="#E6E6E6" d="M107.815,77.457c0,1.32-1.071,2.395-2.396,2.395c-1.322,0-2.394-1.07-2.394-2.395" />
        <circle fill="#383838" cx="105.419" cy="77.456" r="1.196" />
      </g>
      <g id="~h14" data-pin="~h14">
        <path fill="#BFBFBF" d="M103.028,84.657c0-1.322,1.07-2.394,2.394-2.394c1.322,0,2.396,1.069,2.396,2.394" />
        <path fill="#E6E6E6" d="M107.815,84.657c0,1.321-1.071,2.395-2.396,2.395c-1.322,0-2.394-1.071-2.394-2.395l0,0" />
        <circle fill="#383838" cx="105.419" cy="84.657" r="1.197" />
      </g>
      <g id="~i14" data-pin="~i14">
        <path fill="#BFBFBF" d="M103.028,91.857c0-1.321,1.07-2.396,2.394-2.396c1.322,0,2.396,1.072,2.396,2.396" />
        <path fill="#E6E6E6" d="M107.815,91.857c0,1.319-1.071,2.394-2.396,2.394c-1.322,0-2.394-1.071-2.394-2.394" />
        <circle fill="#383838" cx="105.419" cy="91.857" r="1.196" />
      </g>
      <g id="~j14" data-pin="~j14">
        <path fill="#BFBFBF" d="M103.028,99.059c0-1.322,1.07-2.396,2.394-2.396c1.322,0,2.396,1.07,2.396,2.396" />
        <path fill="#E6E6E6" d="M107.815,99.059c0,1.32-1.071,2.393-2.396,2.393c-1.322,0-2.394-1.07-2.394-2.393l0,0" />
        <circle fill="#383838" cx="105.419" cy="99.057" r="1.197" />
      </g>
      <g id="~f15" data-pin="~f15">
        <path fill="#BFBFBF" d="M110.227,70.256c0.002-1.32,1.075-2.392,2.397-2.39c1.317,0.003,2.387,1.069,2.39,2.39" />
        <path fill="#E6E6E6" d="M115.014,70.256c0.002,1.322-1.068,2.396-2.39,2.396c-1.322,0.003-2.396-1.066-2.397-2.391 c0-0.002,0-0.004,0-0.008" />
        <circle fill="#383838" cx="112.621" cy="70.257" r="1.196" />
      </g>
      <g id="~g15" data-pin="~g15">
        <path fill="#BFBFBF" d="M110.227,77.457c0.002-1.322,1.075-2.395,2.397-2.393c1.317,0.002,2.387,1.07,2.39,2.393" />
        <path fill="#E6E6E6" d="M115.014,77.457c0.002,1.32-1.068,2.396-2.39,2.396c-1.322,0.002-2.396-1.067-2.397-2.392 c0-0.002,0-0.004,0-0.006" />
        <circle fill="#383838" cx="112.621" cy="77.456" r="1.196" />
      </g>
      <g id="~h15" data-pin="~h15">
        <path fill="#BFBFBF" d="M110.227,84.657c0.002-1.322,1.075-2.394,2.397-2.392c1.317,0.002,2.387,1.071,2.39,2.392" />
        <path fill="#E6E6E6" d="M115.014,84.657c0.002,1.321-1.068,2.395-2.39,2.396c-1.322,0.002-2.396-1.064-2.397-2.389 c0-0.002,0-0.007,0-0.01" />
        <circle fill="#383838" cx="112.621" cy="84.657" r="1.197" />
      </g>
      <g id="~i15" data-pin="~i15">
        <path fill="#BFBFBF" d="M110.227,91.857c0.002-1.321,1.075-2.394,2.397-2.392c1.317,0.002,2.387,1.07,2.39,2.392" />
        <path fill="#E6E6E6" d="M115.014,91.857c0.002,1.319-1.068,2.396-2.39,2.396c-1.322,0.002-2.396-1.066-2.397-2.393 c0-0.002,0-0.004,0-0.006" />
        <circle fill="#383838" cx="112.621" cy="91.857" r="1.196" />
      </g>
      <g id="~j15" data-pin="~j15">
        <path fill="#BFBFBF" d="M110.227,99.059c0.002-1.322,1.075-2.395,2.397-2.393c1.317,0.002,2.387,1.068,2.39,2.393" />
        <path fill="#E6E6E6" d="M115.014,99.059c0.002,1.32-1.068,2.395-2.39,2.396c-1.322,0.002-2.396-1.068-2.397-2.39 c0-0.004,0-0.006,0-0.008" />
        <circle fill="#383838" cx="112.621" cy="99.057" r="1.197" />
      </g>
      <g id="~f16" data-pin="~f16">
        <path fill="#BFBFBF" d="M117.428,70.256c0.003-1.32,1.073-2.392,2.396-2.39c1.318,0.003,2.389,1.069,2.391,2.39" />
        <path fill="#E6E6E6" d="M122.214,70.256c0.002,1.322-1.066,2.396-2.391,2.396c-1.324,0.002-2.395-1.066-2.396-2.391 c0-0.002,0-0.004,0-0.008" />
        <circle fill="#383838" cx="119.821" cy="70.257" r="1.196" />
      </g>
      <g id="~g16" data-pin="~g16">
        <path fill="#BFBFBF" d="M117.428,77.457c0.003-1.322,1.073-2.395,2.396-2.393c1.318,0.002,2.389,1.07,2.391,2.393" />
        <path fill="#E6E6E6" d="M122.214,77.457c0.002,1.32-1.066,2.396-2.391,2.396c-1.322,0.002-2.395-1.067-2.396-2.392 c0-0.002,0-0.004,0-0.006" />
        <circle fill="#383838" cx="119.821" cy="77.456" r="1.196" />
      </g>
      <g id="~h16" data-pin="~h16">
        <path fill="#BFBFBF" d="M117.428,84.657c0.003-1.322,1.073-2.394,2.396-2.392c1.318,0.002,2.389,1.071,2.391,2.392" />
        <path fill="#E6E6E6" d="M122.214,84.657c0.002,1.321-1.066,2.395-2.391,2.396c-1.324,0.002-2.395-1.064-2.396-2.389 c0-0.002,0-0.007,0-0.01" />
        <circle fill="#383838" cx="119.821" cy="84.657" r="1.197" />
      </g>
      <g id="~i16" data-pin="~i16">
        <path fill="#BFBFBF" d="M117.428,91.857c0.003-1.321,1.073-2.394,2.396-2.392c1.318,0.002,2.389,1.07,2.391,2.392" />
        <path fill="#E6E6E6" d="M122.214,91.857c0.002,1.319-1.066,2.396-2.391,2.396s-2.395-1.066-2.396-2.393c0-0.002,0-0.004,0-0.006" />
        <circle fill="#383838" cx="119.821" cy="91.857" r="1.196" />
      </g>
      <g id="~j16" data-pin="~j16">
        <path fill="#BFBFBF" d="M117.428,99.059c0.003-1.322,1.073-2.395,2.396-2.393c1.318,0.002,2.389,1.068,2.391,2.393" />
        <path fill="#E6E6E6" d="M122.214,99.059c0.002,1.32-1.066,2.395-2.391,2.396s-2.395-1.068-2.396-2.39c0-0.004,0-0.006,0-0.008" />
        <circle fill="#383838" cx="119.821" cy="99.057" r="1.197" />
      </g>
      <g id="~f17" data-pin="~f17">
        <path fill="#BFBFBF" d="M124.626,70.256c0.002-1.32,1.074-2.392,2.396-2.39c1.318,0.003,2.389,1.069,2.391,2.39" />
        <path fill="#E6E6E6" d="M129.414,70.256c0.002,1.322-1.067,2.396-2.392,2.396c-1.321,0.003-2.396-1.066-2.396-2.391 c0-0.002,0-0.004,0-0.008" />
        <circle fill="#383838" cx="127.02" cy="70.257" r="1.196" />
      </g>
      <g id="~g17" data-pin="~g17">
        <path fill="#BFBFBF" d="M124.626,77.457c0.002-1.322,1.074-2.395,2.396-2.393c1.318,0.002,2.389,1.07,2.391,2.393" />
        <path fill="#E6E6E6" d="M129.414,77.457c0.002,1.32-1.067,2.396-2.392,2.396c-1.321,0.002-2.396-1.067-2.396-2.392 c0-0.002,0-0.004,0-0.006" />
        <circle fill="#383838" cx="127.02" cy="77.456" r="1.196" />
      </g>
      <g id="~h17" data-pin="~h17">
        <path fill="#BFBFBF" d="M124.626,84.657c0.002-1.322,1.074-2.394,2.396-2.392c1.318,0.002,2.389,1.071,2.391,2.392" />
        <path fill="#E6E6E6" d="M129.414,84.657c0.002,1.321-1.067,2.395-2.392,2.396c-1.321,0.002-2.396-1.064-2.396-2.389 c0-0.002,0-0.007,0-0.01" />
        <circle fill="#383838" cx="127.02" cy="84.657" r="1.197" />
      </g>
      <g id="~i17" data-pin="~i17">
        <path fill="#BFBFBF" d="M124.626,91.857c0.002-1.321,1.074-2.394,2.396-2.392c1.318,0.002,2.389,1.07,2.391,2.392" />
        <path fill="#E6E6E6" d="M129.414,91.857c0.002,1.319-1.067,2.396-2.392,2.396c-1.321,0.002-2.396-1.066-2.396-2.393 c0-0.002,0-0.004,0-0.006" />
        <circle fill="#383838" cx="127.02" cy="91.857" r="1.196" />
      </g>
      <g id="~j17" data-pin="~j17">
        <path fill="#BFBFBF" d="M124.626,99.059c0.002-1.322,1.074-2.395,2.396-2.393c1.318,0.002,2.389,1.068,2.391,2.393" />
        <path fill="#E6E6E6" d="M129.414,99.059c0.002,1.32-1.067,2.395-2.392,2.396c-1.321,0.002-2.396-1.068-2.396-2.39 c0-0.004,0-0.006,0-0.008" />
        <circle fill="#383838" cx="127.02" cy="99.057" r="1.197" />
      </g>
    </g>
  </g>
</svg>